<?xml version="1.0" standalone="no"?>
<!DOCTYPE svg PUBLIC "-//W3C//DTD SVG 1.1//EN" "http://www.w3.org/Graphics/SVG/1.1/DTD/svg11.dtd" >
<svg xmlns="http://www.w3.org/2000/svg">
<metadata>
This is a custom SVG webfont generated by Font Squirrel.
Copyright   : Copyright c 2010 by ELi Fried All rights reserved
Foundry     : ELi Fried
</metadata>
<defs>
<font id="PFTRashiRegular" horiz-adv-x="0" >
<font-face units-per-em="2048" ascent="1638" descent="-410" />
<missing-glyph horiz-adv-x="573" />
<glyph unicode=" "  horiz-adv-x="573" />
<glyph unicode="&#x09;" horiz-adv-x="573" />
<glyph unicode="&#xa0;" horiz-adv-x="573" />
<glyph unicode="!" horiz-adv-x="552" d="M121 117q0 31 12 58.5t33.5 49t48.5 33.5t57 12q66 0 111 -46t45 -111q0 -63 -53 -117q-23 -16 -47.5 -26.5t-51.5 -10.5q-68 0 -111.5 45t-43.5 113zM143 1133q0 86 49.5 136t135.5 50q100 0 100 -102v-31q0 -6 -4 -32t-8 -71l-101 -694q-18 -39 -51 -39q-27 0 -33 51 l-4 52q0 39 -2 69.5t-6 55.5l-18 127l-33 196q-14 78 -19.5 134.5t-5.5 97.5z" />
<glyph unicode="&#x22;" horiz-adv-x="966" d="M72 705l114 399l54 153q16 27 125 27h79q31 -4 31 -37q0 -68 -96 -207l-229 -335h-78zM473 702l109 392l51 159q18 33 151 33q47 0 60 -4q29 -12 28 -45q0 -16 -34 -86q-6 -12 -20.5 -35.5t-35.5 -58.5l-235 -355h-74z" />
<glyph unicode="#" horiz-adv-x="1245" d="M63 375l31 172h174q8 53 16.5 104t18.5 99q10 51 17.5 97t17.5 103h-172l31 164h170q6 35 13 73t15 77l13 65q6 33 10 62h162l-52 -277h318q10 47 19 100.5t20 104.5q4 16 7 34.5t7 32.5h158l-45 -272h170l-31 -164h-174q-4 -23 -7 -43t-7 -43q-14 -84 -27.5 -158.5 t-30.5 -162.5h174l-28 -168h-179q-4 -31 -9 -65t-11 -66q-4 -18 -7 -43t-8.5 -50.5t-9.5 -50t-8 -41.5h-162l58 316h-318q-4 -23 -9 -47.5t-9 -46.5q-4 -25 -9 -54.5t-10.5 -60.5t-10.5 -58.5t-7 -48.5h-162l60 316h-177zM430 545l318 -2q20 109 34.5 202t36.5 203h-315 q-20 -98 -36.5 -192t-33.5 -195z" />
<glyph unicode="$" horiz-adv-x="899" d="M80 264q0 84 88 84q43 0 69.5 -34.5t26.5 -77.5q0 -35 2 -56.5t6 -32.5q12 -45 60 -53l6 426q-236 104 -236 301q0 117 63.5 202t174.5 105l-8 84h69l-2 -65l80 2l-2 63h68l-2 -73q242 -57 241 -230q0 -29 -23.5 -53.5t-53.5 -24.5q-86 0 -82 84l2 52q4 82 -82 94v-369 q266 -100 266 -350q0 -117 -80 -217q-76 -98 -194 -115q0 -35 4 -79t8 -101h-82l10 170h-80l-2 -63l6 -107h-75l8 182q-254 66 -254 252zM254 915q0 -92 84 -133v215l2 50q-86 -38 -86 -132zM395 76l37 -4q31 -4 49 6v373l-82 38zM399 754l82 -31l-2 354q-39 4 -78 -8z M541 90q106 31 106 174q0 119 -106 156v-330z" />
<glyph unicode="%" horiz-adv-x="1796" d="M104 727q0 162 52 283q68 160 206 159q340 0 310 -358l-13 -145q-16 -182 -110 -258q-53 -45 -166 -46q-166 0 -227 107q-52 90 -52 258zM250 762q0 -207 160 -207q68 0 89 25.5t23 97.5l2 94q2 86 -35 146q-47 63 -129 63q-84 0 -106 -72q-2 -10 -3 -45.5t-1 -101.5z M502 -20q61 102 106 180t74 137l172 348l82 180q78 168 141 342h187l-33 -61l-96 -182l-58 -117l-153 -305l-70 -150q-14 -31 -82 -200q-51 -131 -59 -172h-211zM1112 362q0 422 274 422q172 0 236 -112q51 -84 51 -266q0 -76 -12 -175q-33 -256 -256 -256q-188 0 -250 127 q-43 82 -43 260zM1253 451q0 -131 23 -189q33 -92 145 -92q102 0 103 59q6 25 8 51.5t2 57.5q0 51 -5 88t-16 63q-41 104 -153 105q-70 0 -90 -39q-17 -28 -17 -104z" />
<glyph unicode="&#x26;" horiz-adv-x="1742" d="M100 -25v1215h736q166 0 263 -90t97 -254v-447h-219v426q0 176 -182 176h-478v-1026h-217zM545 0v778h219v-590h471q182 0 182 179v823h221v-846q0 -166 -96 -255t-264 -89h-733z" />
<glyph unicode="'" horiz-adv-x="552" d="M90 700l117 428l35 111q12 39 69 45q8 2 90 2l54 -4q31 0 30 -41q0 -53 -98 -201l-221 -340h-76z" />
<glyph unicode="(" horiz-adv-x="692" d="M102 465q0 350 181 588q61 82 135 143t162 100l30 -45q-180 -106 -245 -350q-23 -80 -34.5 -189.5t-11.5 -246.5t11.5 -248t36.5 -197q35 -123 96 -211t149 -147l-28 -51l-60 37q-209 133 -317 352q-105 209 -105 465z" />
<glyph unicode=")" horiz-adv-x="692" d="M80 1241l26 51q229 -100 361 -342q123 -221 123 -487q0 -575 -479 -858l-29 51q180 123 248 379q23 86 34 201.5t11 261.5q0 242 -72 475q-49 155 -223 268z" />
<glyph unicode="*" horiz-adv-x="1173" d="M213 725q0 106 162 129q20 2 43.5 5t50.5 7q59 12 88 33q-29 16 -70 29.5t-98 17.5q-55 0 -108 35q-61 39 -62 94q0 82 78 82q33 0 61.5 -15.5t53 -38t46 -50t44.5 -54.5q16 -16 34.5 -32.5t41.5 -30.5q4 43 -46 176q-14 35 -19 60.5t-5 41.5q0 127 92 127q84 0 84 -112 q0 -37 -5 -69t-20 -56l-32 -92q-6 -23 -6 -39l4 -37l20 14q37 23 103 105q86 104 157 104q80 0 80 -84q0 -66 -76 -100q-57 -29 -133 -29q-35 -4 -67.5 -16t-63.5 -33q35 -18 80 -31.5t104 -17.5q55 0 103 -31q55 -35 55 -86q0 -35 -23.5 -63.5t-58.5 -28.5q-63 0 -125 66 l-71 88l-86 69q-4 -76 28 -149q35 -82 35 -123q0 -115 -88 -115t-88 105q0 43 25 104q41 104 47 182q-25 -10 -49.5 -32.5t-53.5 -57.5q-35 -39 -58.5 -63.5t-35.5 -34.5q-41 -33 -94 -33q-78 0 -78 80z" />
<glyph unicode="+" horiz-adv-x="1521" d="M162 457v198h473v496h196v-496h480v-198h-480v-490h-196v490h-473z" />
<glyph unicode="," horiz-adv-x="485" d="M47 -264l119 430l35 108q10 39 69 45q6 2 90 3q84 0 84 -35q0 -37 -24 -92q-4 -10 -22.5 -39t-53.5 -80l-221 -340h-76z" />
<glyph unicode="-" horiz-adv-x="759" d="M80 471v195h594v-195h-594z" />
<glyph unicode="." horiz-adv-x="485" d="M66 129q0 72 45 119t114 47q68 0 115 -49t47 -117q0 -61 -43 -112.5t-117 -51.5q-70 0 -115.5 47t-45.5 117z" />
<glyph unicode="/" horiz-adv-x="899" d="M90 -12l580 1202h180l-582 -1202h-178z" />
<glyph unicode="0" horiz-adv-x="899" d="M78 592q0 203 82 373q102 215 284 215q193 0 304 -211q43 -82 63 -177.5t20 -201.5q0 -227 -102 -395q-53 -88 -100 -129q-70 -63 -185 -64q-188 0 -288 213q-78 162 -78 377zM315 707q0 -78 7.5 -165t21.5 -186q43 -276 129 -276q119 0 119 399q0 82 -7 166t-20 174 q-43 274 -121 275q-66 0 -90 -70q-39 -47 -39 -317z" />
<glyph unicode="1" horiz-adv-x="899" d="M182 0v80q158 0 158 106l2 631q0 104 -16 129q-33 51 -140 51v84l152 23q76 12 160 74h100l-4 -873q0 -66 4 -105.5t12 -56.5q25 -59 135 -67v-76h-563z" />
<glyph unicode="2" horiz-adv-x="899" d="M68 0l8 84q88 90 147.5 151.5t91.5 96.5q264 297 265 483q0 88 -52.5 148.5t-140.5 60.5q-92 0 -156 -70q-33 -39 -73 -127l-80 35q125 319 401 320q76 0 140.5 -23.5t110.5 -66.5t71.5 -104.5t25.5 -137.5q0 -154 -190 -358q-49 -53 -127 -123t-184 -160l-31 -29 q6 -4 20 0q29 10 97 23q18 2 62 2h110h88q59 20 82 80h88l-88 -283z" />
<glyph unicode="3" horiz-adv-x="899" d="M98 53l31 82q115 -51 205 -51q49 0 91 20.5t71.5 55.5t46 81t16.5 97q0 86 -45 149q-49 74 -131 74q-16 0 -45 -6t-64 -20l-24 75q258 137 258 299q0 61 -43 100.5t-105 39.5q-74 0 -180 -76l-47 71q172 141 344 142q111 0 189 -58q88 -61 88 -163q0 -174 -242 -260 q8 -10 35 -11q111 0 190 -110q74 -98 74 -211q0 -199 -154 -305q-117 -80 -264 -80q-72 0 -144.5 16t-150.5 49z" />
<glyph unicode="4" horiz-adv-x="899" d="M59 315v107l498 762h125l-4 -756l24 -4q70 0 70 78h72l-27 -187l-139 2v-104l4 -61q2 -74 133 -74v-78h-518v78q72 0 90 6q39 14 47 68l6 167zM156 424l12 -4l268 8v426z" />
<glyph unicode="5" horiz-adv-x="899" d="M80 53l37 74q100 -51 182 -51q127 0 210 72.5t83 195.5q0 49 -18.5 93t-51.5 77t-77 51.5t-93 18.5q-86 0 -168 -43l-67 49l131 577h364q88 0 103 45h78l-48 -233h-442l-45 -172l6 -12l10 4q51 10 80 15t39 5q168 0 281 -112q117 -111 117 -277q0 -193 -140 -305 q-164 -135 -344 -135q-114 0 -227 63z" />
<glyph unicode="6" horiz-adv-x="899" d="M80 508q0 276 201 473q197 199 477 199l-19 -78q-135 -18 -243 -113q-129 -102 -129 -227h10q39 14 71.5 19t61.5 5q147 0 231 -120q80 -111 80 -260q0 -82 -28 -158q-100 -250 -330 -250q-188 0 -293 168q-90 145 -90 342zM328 481q0 -121 28 -235q45 -168 123 -168 q104 0 105 252q0 350 -156 350q-72 0 -90 -70q-10 -29 -10 -129z" />
<glyph unicode="7" horiz-adv-x="899" d="M104 838l35 135l54 219h69q0 -23 25 -25l35 -6h493l-6 -117q-276 -602 -277 -1044h-249q76 451 419 977q-49 -14 -145 -14l-186 -5q-147 -4 -178 -120h-89z" />
<glyph unicode="8" horiz-adv-x="899" d="M90 276q0 184 168 291q-41 35 -111 133q-33 68 -32 148q0 74 26.5 137.5t74.5 108.5t112.5 70.5t140.5 25.5q129 0 227 -78q109 -84 109 -211q0 -160 -160 -239q0 -10 14 -19q2 -4 19 -8q147 -88 147 -295q0 -158 -108 -252q-29 -27 -52.5 -43t-41.5 -27 q-66 -33 -177 -32q-145 0 -245 69q-111 76 -111 221zM268 309q0 -238 187 -237q35 0 68.5 11t61 31.5t44 48t16.5 62.5q0 143 -164 221q-35 16 -70.5 37t-70.5 41q-72 -72 -72 -215zM276 952q0 -51 58 -114q47 -55 106 -84l115 -58q82 63 82 197q0 205 -170 205 q-191 -1 -191 -146z" />
<glyph unicode="9" horiz-adv-x="899" d="M70 774q0 158 102 279q111 129 260 129q156 0 258 -125q86 -104 115 -271q2 -35 6 -165q4 -84 -34 -175.5t-111 -191.5q-203 -266 -476 -252l-47 2l17 76q61 14 110 31.5t84 40.5q129 86 178 276l-10 2l-22 -14q-68 -27 -105 -27q-143 0 -237 125q-88 117 -88 260z M305 887q0 -387 154 -387q80 0 98 110l8 109q6 111 -43 258q-41 125 -106 125q-68 0 -97 -103q-8 -29 -11 -56t-3 -56z" />
<glyph unicode=":" horiz-adv-x="456" d="M88 1012q0 68 38 111.5t103 43.5q68 0 111 -45t43 -112q0 -61 -43 -102.5t-104 -41.5q-35 0 -68 19q-80 33 -80 127zM90 137q0 66 41 108t107 42t107.5 -42t41.5 -108q0 -33 -13.5 -60.5t-35 -47t-47 -30.5t-51.5 -11q-61 0 -105.5 44t-44.5 105z" />
<glyph unicode=";" horiz-adv-x="759" d="M45 -264l139 512q35 72 113 71h92q51 -4 51 -45q-12 -66 -34 -100q-16 -23 -39 -58.5t-52 -82.5l-194 -297h-76zM184 999q0 66 42 106t108 40q63 0 102 -43t39 -105q0 -59 -44 -102t-103 -39l-31 4q-113 22 -113 139z" />
<glyph unicode="&#x3c;" horiz-adv-x="1069" d="M92 569l760 541l106 -133l-548 -412l546 -424l-92 -153z" />
<glyph unicode="=" horiz-adv-x="1521" d="M170 330v139h1196v-139h-1196zM170 680v141h1196v-141h-1196z" />
<glyph unicode="&#x3e;" horiz-adv-x="1069" d="M92 977l107 133l759 -541l-772 -581l-92 153l547 424z" />
<glyph unicode="?" horiz-adv-x="829" d="M113 1245q0 131 57 131q18 0 39 -39q35 -35 102 -45q174 0 246 -39q135 -68 135 -272q0 -106 -30 -170q-20 -43 -80 -115q-119 -94 -119 -207l6 -79q0 -45 -39 -58l-29 -14q-8 -8 -26 -8q-45 0 -45 59q0 98 30 166q25 51 93 141q96 127 96 191q0 33 -23.5 72.5 t-56.5 48.5q-37 10 -113 10h-30q-213 0 -213 227zM262 104q0 68 43 113t111 45q61 0 107 -45t46 -106q0 -66 -43 -112t-108 -46q-37 0 -70 16q-86 43 -86 135z" />
<glyph unicode="@" horiz-adv-x="1529" d="M29 432q0 131 82 281q102 193 307 317q205 129 418 129q285 0 448 -166q166 -164 166 -448q0 -104 -70 -242q-72 -139 -151 -190q-63 -39 -168 -39q-145 0 -180 139q-104 -141 -242 -141q-213 0 -213 266q0 109 68 231q63 117 159 185q76 57 142 57q82 0 116 -18 q45 -20 78 -88l23 83h149l-141 -538q-2 -10 -2 -19.5t-2 -17.5q0 -66 88 -66q94 0 172 111q111 160 110 299q0 233 -145 385q-143 150 -383 150q-186 0 -350 -109t-246 -274q-68 -141 -67 -336q0 -184 90 -324q94 -147 260 -211q98 -37 188 -37q156 0 246 19q127 25 225 94 l31 -47q-186 -137 -485 -137q-250 0 -471 184q-250 209 -250 518zM584 311q0 -168 96 -168q80 0 147 82q55 72 80 158q45 160 45 211q0 53 -20 92q-27 51 -72 51q-86 0 -180 -123q-96 -127 -96 -303z" />
<glyph unicode="A" horiz-adv-x="1394" d="M37 0v49h184l463 1290h37l463 -1290h186v-49h-637v49h213l-129 357h-411l-127 -357h245v-49h-487zM424 455h375l-189 518z" />
<glyph unicode="B" horiz-adv-x="1261" d="M51 0v49h182v1223h-182v49h625q164 0 291 -72q150 -82 149 -239q0 -225 -285 -293q133 -31 232 -121q100 -100 100 -236q0 -186 -149 -280q-123 -80 -322 -80h-641zM457 49h219q141 0 200.5 72t59.5 215v47q0 305 -260 305h-219v-639zM457 737h219q121 0 174 68 q45 57 45 188v33q0 246 -219 246h-219v-535z" />
<glyph unicode="C" horiz-adv-x="1292" d="M72 662q0 272 192 477q193 205 465 204q195 0 332 -100l76 72q20 18 34 18q25 0 25 -39v-315q0 -33 -18 -33q-14 0 -21 17l-4 10q-127 317 -424 317q-379 0 -379 -524v-217q0 -532 369 -533q285 0 457 369q12 27 28 27q20 0 21 -29v-375q0 -23 -23 -22q-12 0 -24 12 l-107 106q-145 -141 -352 -141q-264 0 -459 219q-188 214 -188 480z" />
<glyph unicode="D" horiz-adv-x="1396" d="M57 0v49h187v1223h-187v49h633q293 0 479 -174q190 -182 191 -471q0 -303 -182 -492q-182 -184 -488 -184h-633zM467 49h219q422 0 422 578v98q0 240 -90 379q-106 168 -332 168h-219v-1223z" />
<glyph unicode="E" horiz-adv-x="1210" d="M59 1272v49h953q63 0 63 -55v-295q0 -35 -24 -35q-25 0 -27 37q-6 111 -57 192q-63 106 -191 107h-311v-551h158q78 0 110 51q8 12 18.5 42t20.5 77q10 35 25 35q23 0 22 -33v-393q0 -35 -22 -35q-14 0 -37 72q-8 23 -14.5 45t-14.5 45q-31 45 -108 45h-158v-623h330 q133 0 196 88q47 70 84 234q10 47 33 47q25 0 25 -56v-290q0 -72 -70 -72h-1000v49h179v1223h-183z" />
<glyph unicode="F" horiz-adv-x="1155" d="M70 1272v49h952q61 0 61 -55v-295q0 -35 -24 -35q-25 0 -27 37q-6 111 -57 192q-63 106 -191 107h-311v-551h158q78 0 110 51q8 12 18.5 42t20.5 77q10 35 25 35q23 0 22 -33v-393q0 -35 -22 -35q-14 0 -37 72q-8 23 -14 45t-15 45q-31 45 -108 45h-158v-623h182v-49 h-581v49h176v1223h-180z" />
<glyph unicode="G" horiz-adv-x="1411" d="M68 653q0 276 190 484q190 207 465 206q205 0 336 -106l84 78q20 18 37 18q27 0 26 -30v-367q0 -27 -22 -27q-20 0 -29 25q-123 356 -432 356q-207 0 -301 -162q-78 -133 -78 -352v-237q0 -223 76 -355q94 -168 301 -168q266 0 266 254v174h-227v50h645v-50h-182v-57 q0 -213 -152 -324q-131 -100 -354 -100q-266 0 -461 213q-188 207 -188 477z" />
<glyph unicode="H" horiz-adv-x="1445" d="M59 0v49h183v1223h-183v49h588v-49h-182v-545h541v545h-183v49h586v-49h-180v-1223h180v-49h-586v49h183v627h-541v-627h182v-49h-588z" />
<glyph unicode="I" horiz-adv-x="749" d="M82 0v49h180v1223h-180v49h586v-49h-183v-1223h183v-49h-586z" />
<glyph unicode="J" horiz-adv-x="780" d="M16 -16q0 111 105 110q43 0 70.5 -26.5t27.5 -69.5q0 -94 -88 -107q43 -37 113 -36q84 0 112 53q23 41 23 133v1231h-195v49h576v-49h-158v-1157q0 -313 -344 -314q-80 0 -158 47q-84 56 -84 136z" />
<glyph unicode="K" horiz-adv-x="1417" d="M63 0v49h168v1223h-168v49h560v-49h-168v-1223h168v-49h-560zM449 723l595 549h-167v49h434v-49h-185l-485 -447l590 -776h172v-49h-615v49h175z" />
<glyph unicode="L" horiz-adv-x="1263" d="M53 0v49h183v1223h-183v49h606v-49h-200v-1223h424q131 0 194 88q47 70 84 234q10 47 33 47q27 0 27 -56v-290q0 -72 -72 -72h-1096z" />
<glyph unicode="M" horiz-adv-x="1681" d="M63 0v49h168v1223h-168v49h406l381 -979l369 979h405v-49h-168v-1223h168v-49h-559v49h168v1157l-455 -1206h-41l-454 1198v-1149h170v-49h-390z" />
<glyph unicode="N" horiz-adv-x="1386" d="M47 0v49h182v1223h-182v49h430l641 -963v914h-182v49h416v-49h-183v-1288h-86l-802 1210v-1145h182v-49h-416z" />
<glyph unicode="O" horiz-adv-x="1458" d="M76 655q0 274 194 482q195 207 467 206q272 0 467 -206q197 -207 197 -482q0 -274 -197 -483q-195 -209 -467 -209q-268 0 -469 213q-192 205 -192 479zM352 557q0 -541 385 -541q387 0 387 541v195q0 252 -67 374q-92 164 -320 164q-223 0 -315 -166q-70 -125 -70 -372 v-195z" />
<glyph unicode="P" horiz-adv-x="1142" d="M51 0v49h182v1223h-182v49h594q186 0 309 -86q139 -96 140 -274q0 -172 -131 -273q-119 -88 -297 -88h-209v-551h180v-49h-586zM457 649h209q221 0 221 277v69q0 276 -242 277h-188v-623z" />
<glyph unicode="Q" horiz-adv-x="1435" d="M76 653q0 274 194 482q193 209 467 208q272 0 467 -208q197 -207 197 -482q0 -238 -150 -430q-150 -197 -372 -248v-34q0 -344 327 -344q29 0 29 -23q0 -20 -29 -20q-293 0 -418 61q-164 80 -186 317l-4 43q-225 53 -375 248q-147 197 -147 430zM352 555q0 -543 385 -543 q387 0 387 543v195q0 250 -67 376q-90 164 -320 164q-223 0 -315 -168q-70 -125 -70 -372v-195z" />
<glyph unicode="R" horiz-adv-x="1325" d="M57 0v49h183v1223h-183v49h605q176 0 301 -76q150 -88 149 -254q0 -244 -307 -311q197 -53 258 -166q41 -78 47 -291q4 -102 12 -127q14 -43 76 -43q51 0 90 27q16 4 19 4q14 0 14 -14q0 -33 -98 -64q-78 -23 -142 -22q-104 0 -153 55t-60 160q-2 29 -5 80t-9 122 q-29 264 -225 265h-166v-617h182v-49h-588zM463 715h199q231 0 231 241v70q0 246 -231 246h-199v-557z" />
<glyph unicode="S" horiz-adv-x="1142" d="M109 8v348q0 35 24 35q23 0 33 -31q39 -152 160 -247q121 -96 274 -97q131 0 234 78q104 86 104 217q0 137 -117 191q-43 18 -89 34.5t-95 30.5q-154 45 -209 62q-289 88 -289 327q0 180 137 287q125 100 310 100q152 0 303 -77l55 65q14 20 31 21q23 0 22 -29v-346 q0 -29 -24 -29q-27 0 -29 27q-20 147 -114.5 231t-243.5 84q-119 0 -203 -53q-98 -66 -98 -176q0 -129 127 -176q27 -10 119 -36t257 -71q285 -76 285 -358q0 -199 -141 -328t-344 -129q-188 0 -346 127l-70 -92q-18 -25 -35 -25q-28 0 -28 35z" />
<glyph unicode="T" horiz-adv-x="1306" d="M55 932l33 348q4 41 51 41h1041q47 0 51 -41l33 -348h-64q-20 129 -74 219q-74 121 -184 121h-172v-1223h182v-49h-585v49h180v1223h-172q-111 0 -185 -121q-53 -90 -73 -219h-62z" />
<glyph unicode="U" horiz-adv-x="1345" d="M37 1272v49h586v-49h-181v-940q0 -150 81 -233t229 -83q147 0 239 84t92 232v940h-182v49h416v-49h-180v-940q0 -188 -127 -285q-115 -84 -308 -84q-205 0 -329 82q-154 94 -154 287v940h-182z" />
<glyph unicode="V" horiz-adv-x="1333" d="M14 1272v49h588v-49h-186l358 -967l338 967h-178v49h395v-49h-153l-453 -1292h-49l-475 1292h-185z" />
<glyph unicode="W" horiz-adv-x="1896" d="M47 1272v49h1346v-49h-131l-172 -449l200 -534l377 983h-176v49h383v-49h-148l-493 -1292h-41l-229 587l-224 -587h-41l-491 1292h-160zM426 1272l373 -979l135 352l-236 627h-272zM918 1272l143 -373l143 373h-286z" />
<glyph unicode="X" horiz-adv-x="1445" d="M45 0v49h188l398 584l-395 639h-187v49h625v-49h-185l279 -451l303 451h-197v49h461v-49h-192l-340 -504l442 -719h166v-49h-584v49h164l-327 531l-361 -531h203v-49h-461z" />
<glyph unicode="Y" horiz-adv-x="1396" d="M57 1272v49h609v-49h-187l336 -520l311 520h-196v49h448v-49h-174l-344 -576v-647h201v-49h-627v49h203v598l-406 625h-174z" />
<glyph unicode="Z" horiz-adv-x="1073" d="M63 0v61l721 1211h-391q-262 0 -272 -305h-47v354h940v-57l-729 -1215h387q162 0 235 101q61 86 70 258h51v-408h-965z" />
<glyph unicode="[" horiz-adv-x="638" d="M92 -242v1594h436v-88h-227v-1422h227v-84h-436z" />
<glyph unicode="\" horiz-adv-x="899" d="M90 1190h180l580 -1202h-178z" />
<glyph unicode="]" horiz-adv-x="636" d="M92 -158h227v1422h-227v88h436v-1594h-436v84z" />
<glyph unicode="^" horiz-adv-x="919" d="M29 502l331 686h125l332 -686h-127l-268 553l-268 -553h-125z" />
<glyph unicode="_" horiz-adv-x="827" d="M0 -127h827v-160h-827v160z" />
<glyph unicode="a" horiz-adv-x="933" d="M86 154q0 150 168 223q127 55 295 57v219q0 102 -131 103q-125 0 -125 -35l6 -6q4 -4 12 -10q29 -29 29 -62q0 -76 -88 -76q-86 0 -86 80q0 84 117 125q74 27 184 27q283 0 283 -183v-464q0 -111 49 -111q55 0 90 68q8 20 22 20q16 0 17 -18q0 -63 -76 -103 q-66 -35 -129 -35q-133 0 -162 97q-90 -96 -237 -97q-238 1 -238 181zM270 203q0 -162 125 -162q37 0 94 33q59 35 60 65v258q-66 -4 -113 -14t-76 -25q-90 -46 -90 -155z" />
<glyph unicode="b" horiz-adv-x="1093" d="M57 0v49h162v1223h-162v49h361v-612q86 96 221 96q158 0 281 -127q125 -125 124 -285q0 -156 -120 -289q-121 -129 -279 -129q-133 0 -227 107v-82h-361zM418 170q86 -145 221 -145q168 0 168 325v88q0 137 -23 209q-41 109 -153 109q-127 0 -213 -135v-451z" />
<glyph unicode="c" horiz-adv-x="864" d="M59 383q0 176 134 297q131 119 313 119q96 0 180 -39q109 -47 109 -129q0 -90 -103 -90q-100 0 -100 86q0 33 18.5 62.5t18.5 31.5q0 12 -58 20q-23 4 -41 6.5t-28 2.5q-129 0 -174 -105q-29 -74 -29 -219v-84q0 -164 25 -221q43 -100 178 -101q98 0 177 51.5t109 143.5 q8 25 29 25q25 0 25 -25q0 -6 -2 -10l-2 -8q-18 -76 -101 -144q-96 -80 -241 -80q-178 0 -303 117q-134 121 -134 293z" />
<glyph unicode="d" horiz-adv-x="1093" d="M66 391q0 160 124 285q125 129 281 129q139 0 219 -88v555h-160v49h361v-1272h160v-49h-361v84q-96 -111 -225 -111q-152 0 -277 131q-122 131 -122 287zM303 344q0 -135 23 -207q37 -115 147 -114q121 0 217 145v448q-86 139 -211 140q-113 0 -153 -109 q-23 -68 -23 -207v-96z" />
<glyph unicode="e" horiz-adv-x="915" d="M57 379q0 164 121 291q123 129 285 129q180 0 289 -129q86 -104 86 -198q0 -29 -43 -30h-498v-188q0 -233 178 -234q223 0 324 218q12 25 28 24q20 0 21 -22q0 -16 -6 -31q-94 -236 -371 -236q-174 0 -293 119q-121 121 -121 287zM297 492h303q20 0 21 79q0 178 -156 179 q-168 0 -168 -191v-67z" />
<glyph unicode="f" horiz-adv-x="720" d="M41 0v49h158v680h-156v49h156v74q0 221 43 313q80 170 254 170q72 0 129 -32q72 -41 71 -105q0 -78 -75 -78q-82 0 -82 74q0 47 47 70q0 23 -86 22q-100 0 -101 -137v-371h170v-49h-170v-680h158v-49h-516z" />
<glyph unicode="g" horiz-adv-x="899" d="M63 -295q0 141 160 207q-156 39 -155 188q0 131 165 185q-158 84 -157 237q0 111 90 191q98 86 258 86q143 0 215 -49q80 80 160 79q88 0 88 -69q0 -66 -72 -66q-78 0 -78 64q0 10 2 14q-14 -8 -29.5 -21.5t-31.5 -29.5q94 -82 94 -199q0 -100 -76 -176 q-98 -102 -272 -102q-78 0 -121 14q-164 -41 -164 -123q0 -74 125 -74h340q264 0 264 -245q0 -166 -131 -254q-117 -80 -286 -80q-388 0 -388 223zM182 -258q0 -211 277 -211q115 0 203 45q111 55 110 160q0 78 -60.5 123t-142.5 45h-268q-47 0 -84 -56q-35 -59 -35 -106z M285 487q0 -86 22 -135q35 -59 117 -59t117 59q23 49 22 135v66q0 90 -22 139q-31 57 -117 58q-86 0 -117 -58q-23 -49 -22 -139v-66z" />
<glyph unicode="h" horiz-adv-x="1136" d="M53 0v49h150v1223h-150v49h348v-655q98 139 304 139q252 0 251 -187v-569h148v-49h-494v49h146v547q0 141 -117 141q-84 0 -160 -67q-78 -66 -78 -146v-475h148v-49h-496z" />
<glyph unicode="i" horiz-adv-x="620" d="M68 0v49h157v680h-157v49h356v-729h160v-49h-516zM205 1126q0 47 34.5 79t84.5 32q49 0 83.5 -31.5t34.5 -79.5q0 -47 -35.5 -77.5t-82.5 -30.5t-83 30.5t-36 77.5z" />
<glyph unicode="j" horiz-adv-x="577" d="M-43 -383q0 43 28.5 71.5t71.5 28.5q41 0 69 -26.5t28 -67.5q0 -59 -45 -86q16 -4 32 -4q55 0 87 37t32 94v1063h-170v49h371v-833q0 -184 -66 -305q-84 -154 -252 -154q-72 0 -123 33q-63 37 -63 100zM229 1126q0 47 35 79t84 32t84 -31.5t35 -79.5q0 -47 -35 -78.5 t-84 -31.5t-84 31.5t-35 78.5z" />
<glyph unicode="k" horiz-adv-x="1138" d="M55 0v49h170v1223h-170v49h369v-858h47l293 266h-166v49h414v-49h-172l-238 -219l371 -461h151v-49h-528v49h139l-278 365h-33v-365h149v-49h-518z" />
<glyph unicode="l" horiz-adv-x="602" d="M66 0v49h147v1223h-147v49h346v-1272h147v-49h-493z" />
<glyph unicode="m" horiz-adv-x="1607" d="M59 0v49h138v674h-138v49h338v-125q100 141 308 141q178 0 206 -145q98 145 310 145q211 0 211 -180v-559h137v-49h-471v49h133v539q0 135 -98 135q-80 0 -150 -70q-70 -68 -70 -145v-459h138v-49h-473v49h137v539q0 53 -10 84q-20 51 -91 51q-66 0 -141 -68 q-76 -63 -76 -131v-475h135v-49h-473z" />
<glyph unicode="n" horiz-adv-x="1120" d="M68 0v49h147v674h-147v47h346v-123q98 139 288 139q231 0 232 -186v-551h147v-49h-495v49h147v539q0 135 -108 135q-72 0 -142 -68t-69 -139v-467h147v-49h-493z" />
<glyph unicode="o" horiz-adv-x="942" d="M51 385q0 164 131 289t297 125q170 0 295 -125q129 -127 129 -289q0 -164 -129 -289q-129 -123 -295 -123t-297 123q-131 125 -131 289zM289 344q0 -156 22 -219q39 -104 168 -105q129 0 166 107q20 49 21 217v84q0 152 -23 215q-39 106 -164 107q-127 0 -166 -107 q-25 -61 -24 -215v-84z" />
<glyph unicode="p" horiz-adv-x="1054" d="M45 -477h137v1198h-137v51h338v-84q94 111 225 111q160 0 281 -129q123 -127 123 -287q0 -166 -123 -291q-121 -127 -285 -127q-139 0 -221 94v-536h137v-49h-475v49zM383 186q0 -66 78 -118q70 -49 139 -50q117 0 154 111q20 55 20 213v88q0 133 -22 205 q-37 115 -146 115q-76 0 -145 -56q-78 -59 -78 -131v-377z" />
<glyph unicode="q" horiz-adv-x="1073" d="M70 383q0 156 123 283t280 127q141 0 229 -107v84h336v-49h-137v-1198h137v-49h-473v49h137v538q-90 -96 -225 -96q-160 0 -284 129q-123 129 -123 289zM307 289q0 -129 25 -187q39 -86 149 -86q45 0 85 15.5t71 42t48 63.5t17 80v328q0 76 -73 141q-70 63 -154 64 q-168 0 -168 -248v-213z" />
<glyph unicode="r" horiz-adv-x="843" d="M37 0v49h147v674h-147v49h348v-92q90 109 238 108q84 0 135 -32q66 -41 65 -115q0 -49 -32.5 -77.5t-81.5 -28.5t-83 26.5t-34 73.5q0 63 51 90q6 2 6 6q0 8 -49 8q-68 0 -141 -55q-74 -53 -74 -119v-516h147v-49h-495z" />
<glyph unicode="s" horiz-adv-x="751" d="M88 8v207q0 25 23 25q18 0 24 -25q55 -195 266 -195q80 0 138 33q74 39 73 113q0 86 -125 129q-16 2 -196 43q-188 41 -189 207q0 59 22.5 106t61.5 80t91.5 50.5t113.5 17.5q96 0 160 -51l41 38l6 5q8 8 16 8q14 0 15 -23v-207q0 -20 -17 -20q-20 0 -22 18 q-14 82 -69.5 132.5t-141.5 50.5q-63 0 -115 -31q-61 -35 -61 -92q0 -61 123 -99q45 -10 89 -19t89 -20q199 -57 198 -245q0 -129 -81.5 -200t-212.5 -71q-156 0 -238 76l-39 -51q-8 -14 -20 -14q-23 -1 -23 24z" />
<glyph unicode="t" horiz-adv-x="712" d="M39 727v49h143v217l201 92v-309h205v-49h-205v-518q0 -176 127 -176q111 0 133 133q4 29 29 29q20 0 20 -25q0 -16 -2 -20q-35 -176 -252 -177q-119 0 -187.5 61.5t-68.5 178.5v514h-143z" />
<glyph unicode="u" horiz-adv-x="1138" d="M47 723v47h348v-588q0 -68 17 -96q23 -35 90 -35q78 0 153 64q80 63 80 137v471h-147v47h348v-721h147v-49h-348v123q-109 -145 -317 -146q-223 0 -223 218v528h-148z" />
<glyph unicode="v" horiz-adv-x="1034" d="M43 723v47h498v-47h-144l211 -471l205 471h-145v47h331v-47h-129l-319 -731h-29l-338 731h-141z" />
<glyph unicode="w" horiz-adv-x="1368" d="M47 723v47h479v-47h-135l178 -447l174 494h29l215 -496l152 449h-172v47h372v-47h-147l-256 -746h-29l-215 494l-178 -494h-31l-295 746h-141z" />
<glyph unicode="x" horiz-adv-x="1060" d="M53 723v47h465v-47h-129l182 -240l195 240h-125v47h334v-47h-139l-232 -283l299 -391h131v-49h-495v49h149l-199 262l-215 -262h146v-49h-357v49h146l248 305l-281 369h-123z" />
<glyph unicode="y" horiz-adv-x="1067" d="M53 721v49h514v-49h-155l229 -496l207 496h-152v49h351v-49h-142l-432 -1036q-82 -199 -246 -199q-117 0 -116 92q0 80 84 80q61 0 90 -55q12 -23 24 -23q66 0 115 121l121 293l-348 727h-144z" />
<glyph unicode="z" horiz-adv-x="847" d="M100 0v53l463 670h-196q-162 0 -185 -201h-43v248h633v-57l-455 -664h230q188 0 205 221h43v-270h-695z" />
<glyph unicode="{" horiz-adv-x="890" d="M92 532v50q84 25 135 82q61 61 62 141v352q0 150 65 203q61 49 215 49h195l14 -16l-57 -80h-113q-70 0 -92 -60q-10 -35 -10 -118v-301q0 -131 -45 -189q-45 -63 -172 -88q125 -20 172 -84q45 -57 45 -188v-303q0 -49 2 -80t6 -43q20 -55 94 -58h78h78l16 -22l-59 -76 h-152q-145 0 -209 55q-72 61 -71 201v354q0 76 -60 142q-55 59 -137 77z" />
<glyph unicode="|" horiz-adv-x="380" d="M113 -287v1805l155 45v-1805z" />
<glyph unicode="}" horiz-adv-x="890" d="M92 -221l17 22h77h78q74 2 94 58q4 12 6.5 42.5t2.5 80.5v303q0 131 45 188q47 63 172 84q-127 25 -172 88q-45 57 -45 189v301q0 84 -11 118q-23 59 -92 60h-112l-58 80l15 16h194q154 0 215 -49q66 -53 66 -203v-352q0 -80 61 -141q51 -57 135 -82v-50 q-82 -18 -137 -77q-59 -66 -59 -142v-354q0 -139 -72 -201q-66 -55 -209 -55h-151z" />
<glyph unicode="~" horiz-adv-x="1003" d="M70 391v23q0 111 65.5 185.5t177.5 74.5q72 0 119 -25l246 -164q47 -29 72 -28q82 0 81 131h66q0 -113 -70 -201q-78 -96 -184 -96q-70 0 -131 43l-213 147q-39 27 -80 27q-82 0 -82 -117h-67z" />
<glyph unicode="&#xa1;" d="M-369 -256q0 35 25 59.5t61 24.5q37 0 61.5 -23.5t24.5 -60.5t-24.5 -61.5t-61.5 -24.5t-61.5 24.5t-24.5 61.5zM-221 -494q0 35 26.5 61.5t61.5 26.5q37 0 61.5 -25.5t24.5 -62.5t-24.5 -61.5t-61.5 -24.5t-62.5 24.5t-25.5 61.5zM-70 -256q0 35 25 59.5t61 24.5 q37 0 61.5 -24.5t24.5 -59.5q0 -37 -24.5 -61.5t-61.5 -24.5q-35 0 -60.5 25.5t-25.5 60.5zM195 -256q0 37 25.5 60.5t62.5 23.5q35 0 60.5 -24.5t25.5 -59.5q0 -37 -25 -61.5t-61 -24.5q-37 0 -62.5 24.5t-25.5 61.5zM195 -506q0 35 25.5 60.5t60.5 25.5q37 0 61.5 -24.5 t24.5 -61.5t-25 -61.5t-61 -24.5q-37 0 -61.5 24.5t-24.5 61.5z" />
<glyph unicode="&#x5b1;" d="M-369 -256q0 35 25 59.5t61 24.5q37 0 61.5 -23.5t24.5 -60.5t-24.5 -61.5t-61.5 -24.5t-61.5 24.5t-24.5 61.5zM-221 -494q0 35 26.5 61.5t61.5 26.5q37 0 61.5 -25.5t24.5 -62.5t-24.5 -61.5t-61.5 -24.5t-62.5 24.5t-25.5 61.5zM-70 -256q0 35 25 59.5t61 24.5 q37 0 61.5 -24.5t24.5 -59.5q0 -37 -24.5 -61.5t-61.5 -24.5q-35 0 -60.5 25.5t-25.5 60.5zM195 -256q0 37 25.5 60.5t62.5 23.5q35 0 60.5 -24.5t25.5 -59.5q0 -37 -25 -61.5t-61 -24.5q-37 0 -62.5 24.5t-25.5 61.5zM195 -506q0 35 25.5 60.5t60.5 25.5q37 0 61.5 -24.5 t24.5 -61.5t-25 -61.5t-61 -24.5q-37 0 -61.5 24.5t-24.5 61.5z" />
<glyph unicode="&#xa2;" horiz-adv-x="1024" d="M109 440q0 225 131 363q133 139 350 139q6 0 24.5 -3t49.5 -7l90 254h71l-96 -277q154 -53 154 -172q0 -37 -23.5 -64.5t-60.5 -27.5q-78 0 -123 107l-207 -596q70 -25 117 -25q102 0 180 59q57 47 125 146l27 -17q-154 -338 -396 -337q-41 0 -110 18l-101 -283h-69 l104 308q-237 120 -237 415zM266 532q0 -217 140 -331l235 661q-47 18 -98 19q-137 0 -211 -111q-66 -97 -66 -238z" />
<glyph unicode="&#xa3;" horiz-adv-x="1024" d="M25 109q0 78 57 120q51 37 133 37q16 0 38.5 -3t51.5 -7l6 35q0 39 -4 86t-12 104q-6 47 -12.5 95.5t-14.5 95.5h-221v92h219q-8 33 -11 67.5t-3 69.5q0 207 94 338q109 145 305 145q100 0 176 -45q90 -53 91 -145q0 -45 -28 -77t-73 -32q-70 0 -78 64l-10 117 q-20 63 -108 63q-102 0 -154 -92q-41 -78 -41 -186q0 -49 6 -121t17 -166h256v-92h-250q2 -20 2 -44v-53q0 -102 -49 -348q166 -72 307 -71q88 0 151 39q10 6 42 29.5t83 64.5l13 -10q0 -25 -25 -76q-98 -217 -324 -217q-117 0 -290 125q-109 -127 -203 -127q-59 0 -98 34 t-39 91zM78 115q0 -74 82 -74q47 0 89 35t42 82q0 16 -51 24q-23 4 -39.5 7.5t-26.5 3.5q-96 0 -96 -78z" />
<glyph unicode="&#xa5;" horiz-adv-x="872" d="M119.998 841.594q0 110.395 100.796 174.593q-24.5996 20.999 -66.5977 79.7959q-19.7988 40.7988 -19.1992 88.7969q0 44.3984 15.8994 82.4971q15.8994 38.0977 44.6982 65.0967t67.4971 42.2988q38.6982 15.2988 84.2969 15.2988q77.3965 0 136.194 -46.7979 q65.3975 -50.3975 65.3975 -126.595q0 -95.9961 -95.9961 -143.395q0 -6 8.39941 -11.3994q1.2002 -2.39941 11.3994 -4.7998q88.1963 -52.7979 88.1963 -176.992q0 -94.7969 -64.7969 -151.194q-17.3994 -16.1992 -31.499 -25.7988t-24.8984 -16.1992 q-39.5986 -19.7998 -106.196 -19.1992q-86.9961 0 -146.994 41.3984q-66.5967 45.5977 -66.5967 132.595zM226.793 861.393q0 -142.794 112.196 -142.194q20.999 0 41.0977 6.59961q20.0996 6.59961 36.5986 18.8994q16.5 12.2998 26.3994 28.7988t9.89941 37.498 q0 85.7969 -98.3965 132.595q-20.999 9.59961 -42.2979 22.1992t-42.2979 24.5986q-43.1992 -43.1973 -43.1992 -128.994zM231.594 1247.18q0 -30.5986 34.7979 -68.3975q28.1992 -32.998 63.5977 -50.3975l68.9971 -34.7988q49.1982 37.7988 49.1982 118.195 q0 122.995 -101.996 122.995q-114.595 -0.600586 -114.595 -87.5967z" />
<glyph unicode="&#xb4;" horiz-adv-x="872" d="M119.998 841.594q0 110.395 100.796 174.593q-24.5996 20.999 -66.5977 79.7959q-19.7988 40.7988 -19.1992 88.7969q0 44.3984 15.8994 82.4971q15.8994 38.0977 44.6982 65.0967t67.4971 42.2988q38.6982 15.2988 84.2969 15.2988q77.3965 0 136.194 -46.7979 q65.3975 -50.3975 65.3975 -126.595q0 -95.9961 -95.9961 -143.395q0 -6 8.39941 -11.3994q1.2002 -2.39941 11.3994 -4.7998q88.1963 -52.7979 88.1963 -176.992q0 -94.7969 -64.7969 -151.194q-17.3994 -16.1992 -31.499 -25.7988t-24.8984 -16.1992 q-39.5986 -19.7998 -106.196 -19.1992q-86.9961 0 -146.994 41.3984q-66.5967 45.5977 -66.5967 132.595zM226.793 861.393q0 -142.794 112.196 -142.194q20.999 0 41.0977 6.59961q20.0996 6.59961 36.5986 18.8994q16.5 12.2998 26.3994 28.7988t9.89941 37.498 q0 85.7969 -98.3965 132.595q-20.999 9.59961 -42.2979 22.1992t-42.2979 24.5986q-43.1992 -43.1973 -43.1992 -128.994zM231.594 1247.18q0 -30.5986 34.7979 -68.3975q28.1992 -32.998 63.5977 -50.3975l68.9971 -34.7988q49.1982 37.7988 49.1982 118.195 q0 122.995 -101.996 122.995q-114.595 -0.600586 -114.595 -87.5967z" />
<glyph unicode="&#xa8;" horiz-adv-x="882" d="M118.798 1031.19q0 121.795 49.1982 223.791q61.1973 128.994 170.393 128.994q115.796 0 182.393 -126.595q25.7998 -49.1973 37.7988 -106.495q12 -57.2979 12 -120.896q0 -136.194 -61.1982 -236.99q-31.7979 -52.7979 -59.9971 -77.3965 q-41.998 -37.7988 -110.996 -38.3984q-112.795 0 -172.793 127.795q-46.7979 97.1953 -46.7979 226.19zM260.992 1100.18q0 -46.7979 4.5 -98.9961q4.5 -52.1973 12.8994 -111.595q25.7988 -165.594 77.3965 -165.594q71.3975 0 71.3975 239.391q0 49.1973 -4.2002 99.5957 q-4.19922 50.3975 -11.999 104.396q-25.7988 164.394 -72.5977 164.993q-39.5977 0 -53.9971 -41.998q-23.3994 -28.1992 -23.3994 -190.192z" />
<glyph unicode="&#xac;" horiz-adv-x="882" d="M118.798 1031.19q0 121.795 49.1982 223.791q61.1973 128.994 170.393 128.994q115.796 0 182.393 -126.595q25.7998 -49.1973 37.7988 -106.495q12 -57.2979 12 -120.896q0 -136.194 -61.1982 -236.99q-31.7979 -52.7979 -59.9971 -77.3965 q-41.998 -37.7988 -110.996 -38.3984q-112.795 0 -172.793 127.795q-46.7979 97.1953 -46.7979 226.19zM260.992 1100.18q0 -46.7979 4.5 -98.9961q4.5 -52.1973 12.8994 -111.595q25.7988 -165.594 77.3965 -165.594q71.3975 0 71.3975 239.391q0 49.1973 -4.2002 99.5957 q-4.19922 50.3975 -11.999 104.396q-25.7988 164.394 -72.5977 164.993q-39.5977 0 -53.9971 -41.998q-23.3994 -28.1992 -23.3994 -190.192z" />
<glyph unicode="&#xa9;" horiz-adv-x="1556" d="M78 676q0 297 203 504q203 205 501 204q295 0 496 -206q201 -207 201 -502t-201 -502q-201 -203 -496 -203q-299 0 -501 203q-203 203 -203 502zM190 676q0 -248 170 -436q172 -182 422 -183q246 0 418 189q166 180 166 430q0 252 -164 434q-170 188 -420 188 q-254 0 -422 -184q-170 -188 -170 -438zM389 694q0 176 135 291q125 104 310 105q61 0 145 -19q109 -23 108 -61v-144h-34q-8 88 -64 133q-72 49 -162 50q-143 0 -217 -105q-63 -88 -63 -242q0 -373 293 -372q170 0 247 176h33l-33 -144q-10 -35 -118 -55q-90 -18 -150 -18 q-197 0 -305 96q-125 112 -125 309z" />
<glyph unicode="&#xaa;" horiz-adv-x="1048" d="M72 90q0 35 116 186l148 185q-262 348 -262 368q0 23 20 23q8 0 33 -25q150 -147 399 -362q-59 -51 -143 -129t-201 -189q-80 -80 -88 -79q-22 -1 -22 22zM502 90q0 35 116 186l148 185q-262 348 -262 368q0 23 20 23q8 0 33 -25q150 -147 399 -362q-59 -51 -143 -129 t-201 -189q-80 -80 -88 -79q-22 -1 -22 22z" />
<glyph unicode="&#xbb;" horiz-adv-x="1048" d="M72 90q0 35 116 186l148 185q-262 348 -262 368q0 23 20 23q8 0 33 -25q150 -147 399 -362q-59 -51 -143 -129t-201 -189q-80 -80 -88 -79q-22 -1 -22 22zM502 90q0 35 116 186l148 185q-262 348 -262 368q0 23 20 23q8 0 33 -25q150 -147 399 -362q-59 -51 -143 -129 t-201 -189q-80 -80 -88 -79q-22 -1 -22 22z" />
<glyph unicode="&#xab;" horiz-adv-x="1048" d="M68 465q209 180 399 362q27 25 33 25q20 0 20 -23q0 -20 -262 -368l148 -185q117 -152 116 -186q0 -23 -22 -22q-8 0 -54 45q-86 86 -180 173t-198 179zM498 465q209 180 399 362q27 25 33 25q20 0 20 -23q0 -20 -262 -368l148 -185q117 -152 116 -186q0 -23 -22 -22 q-8 0 -53 45q-86 86 -180.5 173t-198.5 179z" />
<glyph unicode="&#xad;" horiz-adv-x="759" d="M80 471v195h594v-195h-594z" />
<glyph unicode="&#xae;" horiz-adv-x="894" d="M118.799 676l4.79883 50.3984q52.7988 53.9971 88.4971 90.8955t54.8975 57.8975q158.394 178.193 158.994 289.789q0 52.7979 -31.499 89.0957q-31.499 36.2988 -84.2969 36.2988q-55.1973 0 -93.5957 -41.998q-19.7998 -23.3994 -43.7988 -76.1973l-47.998 20.999 q74.9971 191.393 240.591 191.992q45.5977 0 84.2959 -14.0996q38.6982 -14.0986 66.2979 -39.8975q27.5986 -25.7998 42.8984 -62.6982q15.2988 -36.8984 15.2988 -82.4961q0 -92.3965 -113.995 -214.792q-29.3994 -31.7979 -76.1973 -73.7969 q-46.7979 -41.998 -110.396 -95.9961l-18.5986 -17.3984q3.59961 -2.40039 11.999 0q17.3994 5.99902 58.1973 13.7988q10.7998 1.2002 37.1992 1.2002h65.9971h52.7979q35.3984 11.999 49.1982 47.998h52.7979l-52.7979 -169.793z" />
<glyph unicode="&#xaf;" horiz-adv-x="858" d="M117.798 707.799l18.5986 49.1982q68.998 -30.5986 122.995 -30.5986q29.3994 0 54.5977 12.2988q25.1992 12.2998 42.8984 33.2988t27.5986 48.5977q9.90039 27.5996 9.90039 58.1982q0 51.5977 -26.999 89.3965q-29.3994 44.3975 -78.5967 44.3975 q-9.59961 0 -26.999 -3.59961t-38.3984 -11.999l-14.3994 44.998q154.793 82.1963 154.793 179.393q0 36.5986 -25.7988 60.2979q-25.7988 23.6982 -62.9971 23.6982q-44.3984 0 -107.995 -45.5977l-28.1992 42.5986q103.195 84.5957 206.392 85.1963 q66.5967 0 113.396 -34.7988q52.7979 -36.5986 52.7979 -97.7959q0 -104.396 -145.194 -155.994q4.7998 -5.99902 20.999 -6.59961q66.5977 0 113.995 -65.9971q44.3984 -58.7979 44.3984 -126.595q0 -119.396 -92.3965 -182.992q-70.1973 -47.998 -158.394 -47.998 q-43.1982 0 -86.6963 9.59961t-90.2959 29.3984z" />
<glyph unicode="&#xbf;" d="M-86 -254q0 35 24.5 59.5t61.5 24.5t61.5 -23.5t24.5 -60.5t-24.5 -61.5t-61.5 -24.5t-61.5 24.5t-24.5 61.5zM-86 -506q0 35 25.5 60.5t60.5 25.5q37 0 61.5 -24.5t24.5 -61.5t-24.5 -61.5t-61.5 -24.5t-61.5 24.5t-24.5 61.5z" />
<glyph unicode="&#x5b0;" d="M-86 -254q0 35 24.5 59.5t61.5 24.5t61.5 -23.5t24.5 -60.5t-24.5 -61.5t-61.5 -24.5t-61.5 24.5t-24.5 61.5zM-86 -506q0 35 25.5 60.5t60.5 25.5q37 0 61.5 -24.5t24.5 -61.5t-24.5 -61.5t-61.5 -24.5t-61.5 24.5t-24.5 61.5z" />
<glyph unicode="&#xd7;" horiz-adv-x="1130" d="M154 111l299 299l-299 301l110 110l299 -299l301 299l111 -110l-299 -301l297 -297l-113 -111l-297 297l-299 -301z" />
<glyph unicode="&#x2122;" horiz-adv-x="1130" d="M154 111l299 299l-299 301l110 110l299 -299l301 299l111 -110l-299 -301l297 -297l-113 -111l-297 297l-299 -301z" />
<glyph unicode="&#x131;" horiz-adv-x="759" d="M49 1083q0 104 68 185q82 -119 278 -119q162 0 295 115q10 -27 13.5 -58.5t3.5 -66.5q0 -53 -17.5 -99.5t-48.5 -83t-74 -60.5t-94 -32q-14 -96 -20.5 -206.5t-6.5 -237.5q0 -35 4 -90l7 -129q12 -180 24 -197q0 -14 4 -36.5t11 -55.5q6 -31 10 -53.5t4 -38.5 q0 -82 -76 -254q-61 -150 -100 -150q-55 0 -82 133q-10 49 -15.5 94.5t-5.5 86.5q0 51 6.5 111.5t16.5 131.5l65 404l25 207l31 276q-326 0 -326 223z" />
<glyph unicode="&#x5e5;" horiz-adv-x="759" d="M49 1083q0 104 68 185q82 -119 278 -119q162 0 295 115q10 -27 13.5 -58.5t3.5 -66.5q0 -53 -17.5 -99.5t-48.5 -83t-74 -60.5t-94 -32q-14 -96 -20.5 -206.5t-6.5 -237.5q0 -35 4 -90l7 -129q12 -180 24 -197q0 -14 4 -36.5t11 -55.5q6 -31 10 -53.5t4 -38.5 q0 -82 -76 -254q-61 -150 -100 -150q-55 0 -82 133q-10 49 -15.5 94.5t-5.5 86.5q0 51 6.5 111.5t16.5 131.5l65 404l25 207l31 276q-326 0 -326 223z" />
<glyph unicode="&#x152;" horiz-adv-x="774" d="M55 850l86 305h551l-86 -305h-551z" />
<glyph unicode="&#x5be;" horiz-adv-x="774" d="M55 850l86 305h551l-86 -305h-551z" />
<glyph unicode="&#x153;" d="M-266 1384v111h532v-111h-532z" />
<glyph unicode="&#x5bf;" d="M-266 1384v111h532v-111h-532z" />
<glyph unicode="&#x192;" d="M-86 -256q0 35 24.5 59.5t61.5 24.5t61.5 -23.5t24.5 -60.5t-24.5 -61.5t-61.5 -24.5t-61.5 24.5t-24.5 61.5z" />
<glyph unicode="&#x5b4;" d="M-86 -256q0 35 24.5 59.5t61.5 24.5t61.5 -23.5t24.5 -60.5t-24.5 -61.5t-61.5 -24.5t-61.5 24.5t-24.5 61.5z" />
<glyph unicode="&#x2c6;" horiz-adv-x="692" d="M57 49q0 166 21 187q0 37 125 61q299 66 299 319q0 215 -219 240q-49 6 -81 15.5t-49.5 25.5t-24.5 46t-7 77q0 94 22 137q35 35 61.5 71t47.5 70q35 63 55.5 98.5t24.5 43.5q51 68 135 67q139 0 139 -86q0 -55 -88 -112q-57 -29 -97 -48.5t-65 -33.5q-74 -41 -73 -76 l2 -14l59 -4q133 -12 203 -181q29 -66 43 -136.5t14 -147.5q0 -442 -274 -637q-102 -74 -197 -74q-49 0 -65 23q-11 12 -11 69z" />
<glyph unicode="&#x5e6;" horiz-adv-x="692" d="M57 49q0 166 21 187q0 37 125 61q299 66 299 319q0 215 -219 240q-49 6 -81 15.5t-49.5 25.5t-24.5 46t-7 77q0 94 22 137q35 35 61.5 71t47.5 70q35 63 55.5 98.5t24.5 43.5q51 68 135 67q139 0 139 -86q0 -55 -88 -112q-57 -29 -97 -48.5t-65 -33.5q-74 -41 -73 -76 l2 -14l59 -4q133 -12 203 -181q29 -66 43 -136.5t14 -147.5q0 -442 -274 -637q-102 -74 -197 -74q-49 0 -65 23q-11 12 -11 69z" />
<glyph unicode="&#x2d8;" horiz-adv-x="1036" d="M78 924q0 6 7 25.5t19 54.5q10 23 33 83l68 181h78q0 -82 71 -107q45 -14 226 -14q117 0 157 14q29 12 53.5 36t40.5 63l87 -7l-52 -229q-25 -123 -153 -158q-63 -18 -240 -14l-188 4v-63v-93v-23q0 -13 -2 -30v-37v-28l-9 -256q20 -6 70 -15q53 -6 100.5 -10t90.5 -4 q287 0 286 358h90l7 -75q2 -43 -5.5 -100.5t-23.5 -127.5q-14 -70 -32.5 -124t-39.5 -93q-49 -90 -137 -121q-27 -10 -64.5 -13t-85.5 -3l-174 20q-74 0 -96 -65l-29 -82q-6 -18 -24 -21h-23l-51 7q4 16 8 66t9 136l16 244l12 412v147q-100 25 -100 62z" />
<glyph unicode="&#x5e9;" horiz-adv-x="1036" d="M78 924q0 6 7 25.5t19 54.5q10 23 33 83l68 181h78q0 -82 71 -107q45 -14 226 -14q117 0 157 14q29 12 53.5 36t40.5 63l87 -7l-52 -229q-25 -123 -153 -158q-63 -18 -240 -14l-188 4v-63v-93v-23q0 -13 -2 -30v-37v-28l-9 -256q20 -6 70 -15q53 -6 100.5 -10t90.5 -4 q287 0 286 358h90l7 -75q2 -43 -5.5 -100.5t-23.5 -127.5q-14 -70 -32.5 -124t-39.5 -93q-49 -90 -137 -121q-27 -10 -64.5 -13t-85.5 -3l-174 20q-74 0 -96 -65l-29 -82q-6 -18 -24 -21h-23l-51 7q4 16 8 66t9 136l16 244l12 412v147q-100 25 -100 62z" />
<glyph unicode="&#x2d9;" horiz-adv-x="1036" d="M68 129v45q0 80 112 129l-22 303q-8 117 106 232q0 18 -14 18q-25 0 -46.5 14.5t-34.5 38t-20.5 51t-3.5 54.5l21 239l88 9q-12 -104 156 -107l165 -6q172 -2 242 -82q125 -137 125 -420q0 -172 -68 -350q-86 -231 -231 -231q-90 0 -90 86q0 47 115 102q176 115 176 307 q0 154 -49 215q-29 37 -81 54.5t-124 19.5l-205 2q-102 -102 -102 -193q0 -16 5 -43.5t15 -68.5l49 -193q20 -80 31.5 -117.5t11.5 -31.5q0 -109 -24 -152q-12 -35 -62 -49q-72 -12 -118 -19.5t-62 -7.5q-51 0 -57 60q-2 10 -3 32.5t-1 59.5z" />
<glyph unicode="&#x5ea;" horiz-adv-x="1036" d="M68 129v45q0 80 112 129l-22 303q-8 117 106 232q0 18 -14 18q-25 0 -46.5 14.5t-34.5 38t-20.5 51t-3.5 54.5l21 239l88 9q-12 -104 156 -107l165 -6q172 -2 242 -82q125 -137 125 -420q0 -172 -68 -350q-86 -231 -231 -231q-90 0 -90 86q0 47 115 102q176 115 176 307 q0 154 -49 215q-29 37 -81 54.5t-124 19.5l-205 2q-102 -102 -102 -193q0 -16 5 -43.5t15 -68.5l49 -193q20 -80 31.5 -117.5t11.5 -31.5q0 -109 -24 -152q-12 -35 -62 -49q-72 -12 -118 -19.5t-62 -7.5q-51 0 -57 60q-2 10 -3 32.5t-1 59.5z" />
<glyph unicode="&#x2db;" horiz-adv-x="45" d="M-258 1604l137 137l31 -31l-82 -82h217v-1628h-45v1583h-176l86 -86l-31 -31z" />
<glyph unicode="&#x200f;" horiz-adv-x="45" d="M-258 1604l137 137l31 -31l-82 -82h217v-1628h-45v1583h-176l86 -86l-31 -31z" />
<glyph unicode="&#x2dc;" horiz-adv-x="1036" d="M113 -510l4 729q0 43 4 100.5t8 131.5q25 125 96 264l86 -8q-37 -152 -37 -261q0 -72 9.5 -158.5t25.5 -193.5l17 -90q16 -104 25 -199.5t9 -183.5q0 -57 -65 -139q-63 -76 -123 -76q-59 0 -59 84zM113 995q0 121 30 254l80 8q12 -66 41 -86t98 -20h242q244 0 314 -285 q25 -102 24 -211q0 -403 -211 -557q-59 -45 -106 -45q-98 0 -99 76q0 45 72 86q246 98 246 395q0 197 -154 232q-23 6 -88 8t-174 2h-133q-182 0 -182 143z" />
<glyph unicode="&#x5e7;" horiz-adv-x="1036" d="M113 -510l4 729q0 43 4 100.5t8 131.5q25 125 96 264l86 -8q-37 -152 -37 -261q0 -72 9.5 -158.5t25.5 -193.5l17 -90q16 -104 25 -199.5t9 -183.5q0 -57 -65 -139q-63 -76 -123 -76q-59 0 -59 84zM113 995q0 121 30 254l80 8q12 -66 41 -86t98 -20h242q244 0 314 -285 q25 -102 24 -211q0 -403 -211 -557q-59 -45 -106 -45q-98 0 -99 76q0 45 72 86q246 98 246 395q0 197 -154 232q-23 6 -88 8t-174 2h-133q-182 0 -182 143z" />
<glyph unicode="&#x2dd;" horiz-adv-x="45" d="M0 0v1628h217l-82 82l31 31l137 -137l-137 -138l-31 31l86 86h-176v-1583h-45z" />
<glyph unicode="&#x200e;" horiz-adv-x="45" d="M0 0v1628h217l-82 82l31 31l137 -137l-137 -138l-31 31l86 86h-176v-1583h-45z" />
<glyph unicode="&#x590;" horiz-adv-x="1536" d="M240 514v127h1054v-127h-1054zM547 -176q0 109 102 174q-14 10 -29.5 30.5t-37.5 49.5q-18 43 -19 90q0 90 60.5 147.5t152.5 57.5q78 0 137 -47q63 -51 64 -127q0 -94 -94 -144q0 -8 8 -10q0 -2 10 -6q88 -53 88 -176q0 -96 -63 -152q-16 -16 -31.5 -26.5t-26.5 -16.5 q-41 -18 -106 -18q-88 0 -148 41q-67 45 -67 133zM588 1282l20 80l31 131h43q0 -12 14 -14l21 -4h297l-4 -70q-166 -360 -166 -627h-150q45 272 252 586q-31 -8 -88 -8l-113 -2q-88 -4 -106 -72h-51zM655 -156q0 -143 113 -143q41 0 78 25.5t37 66.5q0 86 -101 133 q-20 10 -40.5 22.5t-43.5 24.5q-43 -43 -43 -129zM659 229q0 -29 35 -67q31 -37 64 -51l69 -35q49 39 50 119q0 123 -103 122q-115 0 -115 -88z" />
<glyph unicode="&#x591;" d="M-168 -471q0 131 131 164v125h74v-125q133 -35 133 -164v-131h-76v11q0 7 2 24v43q0 147 -86 147q-104 0 -104 -135v-47q2 -14 2 -25v-18h-76v131z" />
<glyph unicode="&#x592;" d="M-186 1444q0 33 20.5 53.5t52.5 20.5q33 0 54.5 -20.5t21.5 -53.5q0 -31 -21.5 -52.5t-54.5 -21.5t-53 20.5t-20 53.5zM-76 1632q0 31 22.5 53.5t53.5 22.5q33 0 54.5 -21.5t21.5 -54.5t-21.5 -54.5t-54.5 -21.5t-54.5 21.5t-21.5 54.5zM37 1444q0 33 21.5 53.5 t54.5 20.5t53 -20.5t20 -53.5q0 -31 -20.5 -52.5t-52.5 -21.5q-31 0 -53.5 21.5t-22.5 52.5z" />
<glyph unicode="&#x593;" d="M-119 1456l156 76l-156 72l156 75l-156 72l156 76h84l-158 -76l158 -72l-158 -75l158 -72l-158 -76l158 -74h-84z" />
<glyph unicode="&#x594;" d="M-76 1452q0 33 21.5 53.5t54.5 20.5t54.5 -20.5t21.5 -53.5q0 -31 -21.5 -52.5t-54.5 -21.5t-54.5 20.5t-21.5 53.5zM-76 1677q0 31 22.5 53.5t53.5 22.5q33 0 54.5 -21.5t21.5 -54.5t-21.5 -53t-54.5 -20t-54.5 20t-21.5 53z" />
<glyph unicode="&#x595;" d="M-113 1378v375h76v-375h-76zM37 1452q0 33 21.5 53.5t54.5 20.5q31 0 52 -21.5t21 -52.5t-20.5 -52.5t-52.5 -21.5q-31 0 -53.5 21.5t-22.5 52.5zM37 1677q0 31 22.5 53.5t53.5 22.5t52 -22.5t21 -53.5q0 -33 -20.5 -53t-52.5 -20q-31 0 -53.5 21t-22.5 52z" />
<glyph unicode="&#x596;" d="M-41 -219q0 6 1 15t3 20h76q-2 -10 -3 -24.5t-1 -37.5q0 -98 63 -149q55 -49 156 -49v-78q-295 0 -295 303z" />
<glyph unicode="&#x597;" d="M-121 1534l123 156l119 -156l-119 -154z" />
<glyph unicode="&#x598;" d="M-258 1530q0 53 38 92t91 39q66 0 109 -53q18 -27 36.5 -51.5t40.5 -53.5q27 -49 70 -49q33 0 53.5 21.5t20.5 54.5q0 47 -54 69l21 56q90 -43 90 -125q0 -55 -39 -93t-92 -38q-66 0 -109 53q-16 27 -33.5 50.5t-33.5 49.5q-39 51 -80 52q-33 0 -53.5 -20.5t-20.5 -53.5 q0 -53 53 -72l-20 -55q-88 39 -88 127z" />
<glyph unicode="&#x599;" d="M-104 1702l90 78q35 -41 61.5 -84t35.5 -95.5t-5.5 -116t-61.5 -143.5l-49 27q20 39 30.5 82t4.5 86t-30.5 85t-75.5 81z" />
<glyph unicode="&#x59a;" d="M-150 -305l199 194h123l-199 -194l199 -205h-121z" />
<glyph unicode="&#x59b;" d="M-66 -266q0 29 18.5 48t45.5 19q66 0 65 -67q0 -63 -65 -64q-27 0 -45.5 18.5t-18.5 45.5zM-66 -442q221 0 222 204l-6 56h75q2 -10 3 -27.5t1 -44.5q0 -133 -86 -207q-70 -59 -209 -59v78z" />
<glyph unicode="&#x59c;" d="M-96 1544q0 125 137 225l55 -51q-111 -80 -110 -172q0 -84 75 -166h-96q-61 76 -61 164z" />
<glyph unicode="&#x59d;" d="M-96 1544q0 125 137 225l55 -51q-111 -80 -110 -172q0 -84 75 -166h-96q-61 76 -61 164z" />
<glyph unicode="&#x59e;" d="M-197 1544q0 125 138 225l55 -51q-111 -84 -111 -172q0 -82 78 -166h-98q-62 76 -62 164zM27 1544q0 123 139 225l53 -51q-111 -80 -110 -172q0 -84 75 -166h-94q-63 76 -63 164z" />
<glyph unicode="&#x59f;" d="M-496 1655q0 80 53.5 134t133.5 54q82 0 135 -54t53 -134q0 -61 -37 -111l123 -123l-41 -41l-123 123q-45 -39 -110 -39q-82 0 -134.5 52.5t-52.5 138.5zM-432 1655q0 -53 36 -88t87 -35q53 0 89 35t36 88q0 51 -36 86t-89 35q-51 0 -87 -35t-36 -86zM35 1421l123 123 q-39 39 -39 111q0 80 54 134t136 54q37 0 71 -15.5t59.5 -41t41 -60t15.5 -71.5q0 -82 -53.5 -136.5t-133.5 -54.5q-72 0 -110 39l-123 -123zM184 1655q0 -53 36 -88t89 -35q51 0 85 35t34 88q0 47 -36 84t-83 37q-53 0 -89 -34t-36 -87z" />
<glyph unicode="&#x5a0;" d="M-55 1421l123 123q-37 43 -37 111q0 80 54 134t134 54q39 0 73 -15.5t59.5 -41t40 -60t14.5 -71.5q0 -82 -53.5 -136.5t-133.5 -54.5q-72 0 -110 39l-123 -123zM96 1655q0 -53 35 -88t88 -35t86 35t33 88q0 47 -36 84t-83 37q-53 0 -88 -34t-35 -87z" />
<glyph unicode="&#x5a1;" d="M-39 1380v357h74v-172q0 -10 39 -11q76 0 76 111v37q-2 16 -3 23v12h76v-82q0 -70 -35 -111q-37 -55 -98 -55q-29 0 -55 10v-119h-74z" />
<glyph unicode="&#x5a3;" d="M-184 -463h153v281h76v-357h-229v76z" />
<glyph unicode="&#x5a4;" d="M-193 -352l173 170h108l-174 -170l174 -178h-106z" />
<glyph unicode="&#x5a5;" d="M-248 -442q217 0 217 202l-4 58h78q6 -90 6 -101q0 -236 -297 -235v76z" />
<glyph unicode="&#x5a6;" d="M-221 -520q111 80 110 170q0 80 -75 168h96q63 -82 63 -164q0 -121 -139 -225zM6 -520q111 82 111 170q0 72 -78 168h98q61 -78 62 -164q0 -119 -138 -225z" />
<glyph unicode="&#x5a7;" d="M-125 -264l64 53l186 33v-74l-139 -24l139 -220l-64 -53l-186 -33v76l137 23z" />
<glyph unicode="&#x5a8;" d="M-97 1731.5q5 11.5 15 20.5t20.5 14.5t16.5 -1.5q37 -39 62.5 -84t33.5 -97t-4 -111.5t-49 -126.5q-4 -8 -16.5 -8.5t-23.5 6t-18.5 14.5t-2.5 18q20 45 35.5 85t16.5 79t-17.5 81t-67.5 93q-6 6 -1 17.5z" />
<glyph unicode="&#x5a9;" d="M-408 1655q0 80 53.5 134t133.5 54t133 -54t53 -134q0 -57 -35 -111l123 -123l-43 -41l-121 123q-45 -39 -110 -39q-82 0 -134.5 52.5t-52.5 138.5zM-344 1655q0 -53 35 -88t88 -35t88 35t35 88q0 51 -35 86t-88 35t-88 -35t-35 -86z" />
<glyph unicode="&#x5aa;" d="M-168 -182h76q0 -10 -2 -38t-2 -44q0 -141 88 -142q106 0 106 134q0 16 -2 44.5t-2 45.5h76v-129q0 -131 -133 -166v-123h-74v123q-59 16 -95 61t-36 105v129z" />
<glyph unicode="&#x5ab;" d="M-139 1561l174 168h106l-174 -168l174 -179h-106z" />
<glyph unicode="&#x5ac;" d="M-195 1382v74h156v281h74v-355h-230z" />
<glyph unicode="&#x5ad;" d="M-41 -217q0 6 1 15t3 20h76q-2 -10 -3 -24.5t-1 -37.5q0 -98 63 -149q55 -49 156 -49v-78q-295 0 -295 303z" />
<glyph unicode="&#x5ae;" d="M-258 1530q0 53 38 92t91 39q66 0 109 -53q18 -27 36.5 -51.5t40.5 -53.5q27 -49 70 -49q33 0 53.5 21.5t20.5 54.5q0 47 -54 69l21 56q90 -43 90 -125q0 -55 -39 -93t-92 -38q-66 0 -109 53q-16 27 -33.5 50.5t-33.5 49.5q-39 51 -80 52q-33 0 -53.5 -20.5t-20.5 -53.5 q0 -53 53 -72l-20 -55q-88 39 -88 127z" />
<glyph unicode="&#x5af;" d="M-213 1614q0 92 60.5 153.5t152.5 61.5t153.5 -61.5t61.5 -153.5q0 -47 -16.5 -86t-46 -67.5t-68.5 -45t-84 -16.5q-88 0 -152 63q-61 62 -61 152zM-156 1614q0 -66 45 -115t111 -49t112 49t46 115t-46 115t-112 49t-111 -49t-45 -115z" />
<glyph unicode="&#x5b2;" d="M-354 -190h387v-109h-387v109zM141 -256q0 37 26 60.5t62 23.5q35 0 60.5 -24.5t25.5 -59.5q0 -37 -24.5 -61.5t-61.5 -24.5t-62.5 24.5t-25.5 61.5zM143 -506q0 35 26 60.5t60 25.5q37 0 61.5 -24.5t24.5 -61.5t-24.5 -61.5t-61.5 -24.5t-61.5 24.5t-24.5 61.5z" />
<glyph unicode="&#x5b3;" d="M-354 -190h387v-109h-158l-6 -92q0 -23 27 -62q29 -41 28 -61q0 -37 -24.5 -61.5t-61.5 -24.5q-35 0 -59.5 24.5t-24.5 61.5q0 25 27 63q29 41 29 60l-7 92h-157v109zM141 -256q0 37 26 60.5t62 23.5q35 0 60.5 -24.5t25.5 -59.5q0 -37 -24.5 -61.5t-61.5 -24.5 t-62.5 24.5t-25.5 61.5zM143 -506q0 35 26 60.5t60 25.5q37 0 61.5 -24.5t24.5 -61.5t-24.5 -61.5t-61.5 -24.5t-61.5 24.5t-24.5 61.5z" />
<glyph unicode="&#x221a;" d="M-354 -190h387v-109h-158l-6 -92q0 -23 27 -62q29 -41 28 -61q0 -37 -24.5 -61.5t-61.5 -24.5q-35 0 -59.5 24.5t-24.5 61.5q0 25 27 63q29 41 29 60l-7 92h-157v109zM141 -256q0 37 26 60.5t62 23.5q35 0 60.5 -24.5t25.5 -59.5q0 -37 -24.5 -61.5t-61.5 -24.5 t-62.5 24.5t-25.5 61.5zM143 -506q0 35 26 60.5t60 25.5q37 0 61.5 -24.5t24.5 -61.5t-24.5 -61.5t-61.5 -24.5t-61.5 24.5t-24.5 61.5z" />
<glyph unicode="&#x5b5;" d="M-225 -256q0 35 24.5 59.5t61.5 24.5t61.5 -23.5t24.5 -60.5t-24.5 -61.5t-61.5 -24.5t-61.5 24.5t-24.5 61.5zM53 -256q0 35 24.5 59.5t61.5 24.5t61.5 -24.5t24.5 -59.5q0 -37 -24.5 -61.5t-61.5 -24.5q-35 0 -60.5 25.5t-25.5 60.5z" />
<glyph unicode="&#x2248;" d="M-225 -256q0 35 24.5 59.5t61.5 24.5t61.5 -23.5t24.5 -60.5t-24.5 -61.5t-61.5 -24.5t-61.5 24.5t-24.5 61.5zM53 -256q0 35 24.5 59.5t61.5 24.5t61.5 -24.5t24.5 -59.5q0 -37 -24.5 -61.5t-61.5 -24.5q-35 0 -60.5 25.5t-25.5 60.5z" />
<glyph unicode="&#x5b6;" d="M-236 -256q0 35 25 59.5t61 24.5q37 0 62 -23.5t25 -60.5t-25 -61.5t-62 -24.5t-61.5 24.5t-24.5 61.5zM-88 -494q0 35 26.5 61.5t61.5 26.5q37 0 61.5 -25.5t24.5 -62.5t-24.5 -61.5t-61.5 -24.5t-62.5 24.5t-25.5 61.5zM63 -256q0 35 25 59.5t62 24.5t61.5 -24.5 t24.5 -59.5q0 -37 -25 -61.5t-61 -24.5q-35 0 -61 25.5t-26 60.5z" />
<glyph unicode="&#x2206;" d="M-236 -256q0 35 25 59.5t61 24.5q37 0 62 -23.5t25 -60.5t-25 -61.5t-62 -24.5t-61.5 24.5t-24.5 61.5zM-88 -494q0 35 26.5 61.5t61.5 26.5q37 0 61.5 -25.5t24.5 -62.5t-24.5 -61.5t-61.5 -24.5t-62.5 24.5t-25.5 61.5zM63 -256q0 35 25 59.5t62 24.5t61.5 -24.5 t24.5 -59.5q0 -37 -25 -61.5t-61 -24.5q-35 0 -61 25.5t-26 60.5z" />
<glyph unicode="&#x5b7;" d="M-193 -190h388v-109h-388v109z" />
<glyph unicode="&#x5b8;" d="M-193 -190h388v-109h-158l-6 -92q0 -23 26 -62q29 -41 29 -61q0 -37 -24.5 -61.5t-61.5 -24.5q-35 0 -59.5 24.5t-24.5 61.5q0 25 27 63q29 41 28 60l-6 92h-158v109z" />
<glyph unicode="&#x5b9;" d="M-86 1411q0 35 25.5 60.5t60.5 25.5q37 0 61.5 -24.5t24.5 -61.5t-24.5 -61.5t-61.5 -24.5t-61.5 24.5t-24.5 61.5z" />
<glyph unicode="&#x2026;" d="M-86 1411q0 35 25.5 60.5t60.5 25.5q37 0 61.5 -24.5t24.5 -61.5t-24.5 -61.5t-61.5 -24.5t-61.5 24.5t-24.5 61.5z" />
<glyph unicode="&#x5bb;" d="M-86 -256q0 35 24.5 59.5t61.5 24.5t61.5 -24.5t24.5 -59.5q0 -37 -24.5 -61.5t-61.5 -24.5q-35 0 -60.5 25.5t-25.5 60.5zM66 -393q0 35 24.5 59.5t61.5 24.5t61.5 -23.5t24.5 -60.5t-25 -61.5t-61 -24.5q-37 0 -61.5 24.5t-24.5 61.5zM217 -537q0 35 26.5 61.5 t61.5 26.5q37 0 61.5 -25.5t24.5 -62.5t-24.5 -61.5t-61.5 -24.5t-62.5 24.5t-25.5 61.5z" />
<glyph unicode="&#x5bc;" d="M-84 590q0 35 24.5 59.5t59.5 24.5t59.5 -24.5t24.5 -59.5t-24.5 -59.5t-59.5 -24.5t-59.5 24.5t-24.5 59.5z" />
<glyph unicode="&#x5bd;" d="M-37 -182h74v-357h-74v357z" />
<glyph unicode="&#x5c0;" horiz-adv-x="497" d="M195 2v1184h110v-1184h-110z" />
<glyph unicode="&#x5c1;" d="M358 1411q0 35 26 60.5t60 25.5q37 0 61.5 -24.5t24.5 -61.5t-24.5 -61.5t-61.5 -24.5t-61.5 24.5t-24.5 61.5z" />
<glyph unicode="&#x5c2;" d="M-172 1411q0 35 25.5 60.5t60.5 25.5q37 0 61.5 -24.5t24.5 -61.5t-24.5 -61.5t-61.5 -24.5t-61.5 24.5t-24.5 61.5z" />
<glyph unicode="&#x5c3;" horiz-adv-x="759" d="M88 1012q0 68 38 111.5t103 43.5q68 0 111 -45t43 -112q0 -61 -43 -102.5t-104 -41.5q-35 0 -68 19q-80 33 -80 127zM90 137q0 66 41 108t107 42t107.5 -42t41.5 -108q0 -33 -13.5 -60.5t-35 -47t-47 -30.5t-51.5 -11q-61 0 -105.5 44t-44.5 105z" />
<glyph unicode="&#x5c4;" d="M-86 1411q0 35 25.5 60.5t60.5 25.5q37 0 61.5 -24.5t24.5 -61.5t-24.5 -61.5t-61.5 -24.5t-61.5 24.5t-24.5 61.5z" />
<glyph unicode="&#x5c7;" d="M-193 -184h388v-109h-158l-6 -266q0 -23 26 -62q29 -41 29 -61q0 -37 -24.5 -61.5t-61.5 -24.5q-35 0 -59.5 24.5t-24.5 61.5q0 25 27 64q29 41 28 59l-6 266h-158v109z" />
<glyph unicode="&#x5d0;" horiz-adv-x="966" d="M68 1026q0 72 10 94q14 39 69 39l54 -4q0 86 35 201q33 113 86 180q43 76 145 76q133 0 133 -109q0 -61 -115 -133q-160 -96 -211 -215l218 6q184 8 260 -69q137 -137 137 -430q0 -270 -135 -469q-88 -125 -179 -125q-84 0 -83 75q0 43 40 70q119 59 191 165.5t72 235.5 q0 248 -263 248h-190q-90 -133 -90 -182q0 -14 5 -41t15 -68l27 -114q43 -176 43 -228q0 -37 -2 -62.5t-10 -47t-23.5 -42t-42.5 -46.5q-49 -53 -90 -54q-53 0 -53 129l-4 267q-2 221 16 299q10 39 27 69q8 12 26.5 43t51.5 82l-48 -2q-122 -6 -122 162z" />
<glyph unicode="&#x2021;" horiz-adv-x="966" d="M68 1026q0 72 10 94q14 39 69 39l54 -4q0 86 35 201q33 113 86 180q43 76 145 76q133 0 133 -109q0 -61 -115 -133q-160 -96 -211 -215l218 6q184 8 260 -69q137 -137 137 -430q0 -270 -135 -469q-88 -125 -179 -125q-84 0 -83 75q0 43 40 70q119 59 191 165.5t72 235.5 q0 248 -263 248h-190q-90 -133 -90 -182q0 -14 5 -41t15 -68l27 -114q43 -176 43 -228q0 -37 -2 -62.5t-10 -47t-23.5 -42t-42.5 -46.5q-49 -53 -90 -54q-53 0 -53 129l-4 267q-2 221 16 299q10 39 27 69q8 12 26.5 43t51.5 82l-48 -2q-122 -6 -122 162z" />
<glyph unicode="&#x5d1;" horiz-adv-x="759" d="M-20 57q0 143 40 183q8 25 130 24q403 0 403 103q0 53 -131 163q-72 55 -60 82l89 238q-6 23 -23 20l-178 -16h-88q-84 0 -117 61q-23 41 -22 134q0 94 22 200l80 11q12 -57 31 -76q37 -41 125 -37l125 2h229q-23 -104 -44.5 -183t-43.5 -139q23 -41 35 -62.5t16 -29.5 q16 -37 28.5 -60.5t18.5 -39.5q37 -66 37 -143q0 -127 -78 -250q-106 -174 -328 -240q-72 -20 -129 -31.5t-100 -11.5q-67 0 -67 98z" />
<glyph unicode="&#x5d2;" horiz-adv-x="759" d="M14 80q6 8 12 13l7 7q66 18 78 86q33 168 194 168q72 0 131 -35l109 -61q12 14 12 23q0 219 -61 385q-14 31 -28.5 56.5t-31.5 47.5q-53 70 -153 113q-66 25 -66 71q0 47 37 133q49 106 102 107q63 0 156 -74q109 -90 135 -291q6 -37 8 -119.5t2 -211.5v-207l-2 -234 q0 -68 -53 -61q-29 0 -33 4q-12 0 -12 100v60q0 45 -78 45q-25 0 -46 -15.5t-38.5 -40t-34 -53t-32.5 -55.5q-49 -59 -131 -59q-39 0 -107 28q-76 35 -76 70z" />
<glyph unicode="&#x201a;" horiz-adv-x="759" d="M14 80q6 8 12 13l7 7q66 18 78 86q33 168 194 168q72 0 131 -35l109 -61q12 14 12 23q0 219 -61 385q-14 31 -28.5 56.5t-31.5 47.5q-53 70 -153 113q-66 25 -66 71q0 47 37 133q49 106 102 107q63 0 156 -74q109 -90 135 -291q6 -37 8 -119.5t2 -211.5v-207l-2 -234 q0 -68 -53 -61q-29 0 -33 4q-12 0 -12 100v60q0 45 -78 45q-25 0 -46 -15.5t-38.5 -40t-34 -53t-32.5 -55.5q-49 -59 -131 -59q-39 0 -107 28q-76 35 -76 70z" />
<glyph unicode="&#x5d3;" horiz-adv-x="899" d="M57 1026q0 98 2 109q4 25 9.5 54.5t11.5 70.5l80 2q0 -74 69 -93q35 -10 108 -14t183 0l301 2q29 -12 29 -59q0 -139 -98 -213q8 -31 8 -109q0 -31 -4 -62.5t-11 -62.5l-116 -467q-29 -123 -37 -147q-18 -63 -62 -64q-51 0 -114 64q-61 68 -62 121q0 25 13.5 61.5 t38.5 87.5q10 20 29.5 58t51.5 98l150 282q14 35 19.5 53.5t5.5 22.5l-3 51l-411 -16q-106 -4 -148.5 32t-42.5 138z" />
<glyph unicode="&#x201e;" horiz-adv-x="899" d="M57 1026q0 98 2 109q4 25 9.5 54.5t11.5 70.5l80 2q0 -74 69 -93q35 -10 108 -14t183 0l301 2q29 -12 29 -59q0 -139 -98 -213q8 -31 8 -109q0 -31 -4 -62.5t-11 -62.5l-116 -467q-29 -123 -37 -147q-18 -63 -62 -64q-51 0 -114 64q-61 68 -62 121q0 25 13.5 61.5 t38.5 87.5q10 20 29.5 58t51.5 98l150 282q14 35 19.5 53.5t5.5 22.5l-3 51l-411 -16q-106 -4 -148.5 32t-42.5 138z" />
<glyph unicode="&#x5d4;" horiz-adv-x="1036" d="M84 1030q0 53 10 112.5t27 121.5h74q20 -104 100 -105l264 -2q176 -4 252 -86q141 -145 141 -471q0 -57 -18 -180q-8 -51 -13.5 -82t-9.5 -43q-25 -80 -80 -80q-29 0 -55 21.5t-26 50.5q0 8 71 164q35 74 35 151q0 170 -139 225q-74 33 -271 33h-120q-119 0 -152 6 q-90 19 -90 164zM104 496q0 49 4.5 91t8.5 79h76q0 -252 239 -334q94 -33 113 -68q23 -35 22 -139q0 -156 -82 -156q-25 0 -73 19q-308 111 -308 508z" />
<glyph unicode="&#x2030;" horiz-adv-x="1036" d="M84 1030q0 53 10 112.5t27 121.5h74q20 -104 100 -105l264 -2q176 -4 252 -86q141 -145 141 -471q0 -57 -18 -180q-8 -51 -13.5 -82t-9.5 -43q-25 -80 -80 -80q-29 0 -55 21.5t-26 50.5q0 8 71 164q35 74 35 151q0 170 -139 225q-74 33 -271 33h-120q-119 0 -152 6 q-90 19 -90 164zM104 496q0 49 4.5 91t8.5 79h76q0 -252 239 -334q94 -33 113 -68q23 -35 22 -139q0 -156 -82 -156q-25 0 -73 19q-308 111 -308 508z" />
<glyph unicode="&#x5d5;" horiz-adv-x="552" d="M47 942q0 66 43 152q49 102 105 102q53 0 122 -57q121 -92 127 -285q2 -33 2 -63v-66v-73q0 -32 -2 -54l-14 -303q-2 -29 -4 -74t-4 -110q-8 -68 -23 -91q0 -33 -69 -32q-23 0 -19 61l11 242q10 203 -25 319q-49 156 -182 252q-68 49 -68 80z" />
<glyph unicode="&#x5d6;" horiz-adv-x="485" d="M66 967q0 82 104 159q88 68 141 68q47 0 60 -35l24 -88q23 -39 23 -82q0 -35 -13.5 -65.5t-35 -61.5t-48 -61.5t-53.5 -63.5q-14 -25 -14 -37q0 -23 10 -59.5t10 -58.5q12 -45 17.5 -90.5t5.5 -92.5q0 -92 -2 -153.5t-8 -93.5q-25 -178 -121 -179q-39 0 -33 25l12 145 l13 232q6 125 -21 282q-6 33 -15 73t-22 91l-20 76z" />
<glyph unicode="&#x5d7;" horiz-adv-x="966" d="M98 1026q0 59 6.5 116.5t22.5 117.5h76q23 -70 57 -89q12 -8 40 -11t67 -3h233q168 0 248 -203q53 -133 53 -288q0 -299 -125 -473q-92 -135 -184 -136q-45 0 -74 35q-18 25 -18 58q0 20 32 45q8 6 24.5 16t45.5 27q201 111 201 360q0 176 -96 231q-31 16 -82.5 25.5 t-124.5 7.5l-201 -6q0 -8 -8 -39q-12 -37 -17.5 -57.5t-5.5 -24.5q0 -27 6.5 -81t22.5 -134l63 -338q0 -55 -67 -135q-66 -78 -121 -78q-63 0 -59 119l24 526q2 57 13.5 100.5t27.5 76.5q25 25 25 49q0 6 -14.5 13t-16.5 9q-74 25 -74 164z" />
<glyph unicode="&#x5d8;" horiz-adv-x="1105" d="M49 1008q0 51 62 135q59 82 106 82q57 0 113 -215q35 -139 51 -285.5t14 -302.5l-2 -127q68 -23 207 -23q74 0 137.5 23.5t108.5 67t70.5 103.5t25.5 136q0 125 -70 209q-80 94 -198 94q-82 0 -182 -63l-25 78q205 309 250 309q92 0 192 -137q133 -176 133 -435 q0 -266 -106 -452q-127 -229 -371 -230q-35 0 -73.5 5.5t-79.5 17.5q-12 4 -24.5 5t-22.5 5q-12 -61 -37 -137q0 -31 -58 -31l-43 4q29 147 43.5 279.5t14.5 255.5q0 111 -12.5 199t-41.5 153q-27 76 -102 164q-80 80 -80 113z" />
<glyph unicode="&#x5d9;" horiz-adv-x="485" d="M43 1042q0 43 16.5 96.5t46.5 118.5h72l-4 -28q0 -76 148 -135q37 -16 59 -30.5t37 -27.5q47 -39 47 -104q0 -258 -217 -475q-27 0 -45 24l-23 29q72 78 94 117q35 63 35 114q0 61 -71 86q-195 55 -195 215z" />
<glyph unicode="&#x5da;" horiz-adv-x="829" d="M53 1034q0 104 19 234l94 8q0 -45 35 -86q25 -31 209 -31q78 0 131 -7t84 -19q100 -45 100 -193q0 -23 -4 -44.5t-8 -43.5l-21 -72q-33 -117 -30 -180l4 -70l36 -374l37 -316q8 -61 11.5 -104t3.5 -68q0 -117 -105 -205q-53 -47 -92 -47q-55 0 -55 121l2 869 q0 86 11 156.5t34 131.5l57 158q-4 18 -12 18l-137 -6h-138q-147 0 -186 19q-80 32 -80 151z" />
<glyph unicode="&#x5db;" horiz-adv-x="829" d="M49 1030q0 104 31 238l92 4q0 -80 55 -101q31 -14 140 -14q393 0 393 -483q0 -305 -166 -502q-174 -205 -479 -205q-16 0 -32.5 19.5t-16.5 36.5v104q0 37 2 47q14 98 79 111q512 0 512 338q0 233 -237 233h-191q-98 0 -140 38t-42 136z" />
<glyph unicode="&#x5dc;" horiz-adv-x="692" d="M27 1638q0 168 71 168q51 0 138 -49q94 -59 94 -100q-2 -23 -7.5 -56.5t-13.5 -80.5q-20 -125 -29.5 -209t-9.5 -129q109 -25 205 -135q129 -154 129 -390q0 -317 -174 -528q-152 -178 -315 -178q-66 0 -66 98l17 152q6 23 12 35t16 20t25.5 13t42.5 14q338 55 338 301 q0 100 -64 161q-37 35 -149 89q-154 74 -150 108l21 250q0 18 1 52t3 85q4 25 4 41v27q0 104 -88 170q-51 38 -51 71z" />
<glyph unicode="&#x5dd;" horiz-adv-x="1036" d="M72 479q0 92 19.5 164t55.5 125q2 2 18.5 21.5t47.5 60.5l-16 14q-23 0 -43.5 11.5t-36 30t-23.5 41t-6 44.5l4 76l33 195l80 10q0 -43 24 -76q25 -47 248 -41l103 2q387 12 387 -547q0 -389 -203 -555q-113 -92 -252 -92q-209 0 -330 160q-110 145 -110 356zM209 582 q0 -94 53 -176q84 -137 270 -138q98 0 187 35q154 92 153 332q0 78 -45 139.5t-120 75.5q-49 6 -183 6h-196q-119 -143 -119 -274z" />
<glyph unicode="&#x5de;" horiz-adv-x="1105" d="M49 72q0 39 43 78q211 139 211 415q0 182 -106 283l-95 88q-14 27 -14 37q0 43 51 131q57 90 92 90q68 0 123 -117q23 -43 35 -86t19 -86l12 -4l26 49q119 205 156 232q20 18 70 18q182 0 278 -201q72 -156 72 -362q0 -176 -59 -338q-35 -96 -87.5 -161.5t-117.5 -104.5 q-63 -41 -115 -41q-106 0 -106 100q0 61 73 103l127 53q180 86 181 287q0 70 -20.5 130t-59.5 105t-94.5 69.5t-122.5 24.5q-51 0 -101.5 -13t-99.5 -42l2 -96q8 -324 -88 -561q-76 -186 -182 -187q-43 0 -73 32t-30 75z" />
<glyph unicode="&#x5df;" horiz-adv-x="552" d="M78 1047q0 133 47 239l80 6q0 -66 55 -96q66 -35 106 -62.5t56 -50.5q23 -27 22 -110v-33q0 -25 -7 -70t-21 -110q-23 -88 -43 -223q-2 -18 -2 -28v-11l4 -58l69 -600q12 -109 13 -188q0 -78 -107 -176q-49 -47 -88 -47q-47 0 -47 45q-4 31 -6 65.5t-2 73.5v45l2 190v560 q0 102 41 215l84 180l-19 12q-139 55 -190 107l-4 2q-43 43 -43 123z" />
<glyph unicode="&#x5e0;" horiz-adv-x="622" d="M43 41l2 41q2 35 6 73t8 72q0 51 47 64q160 39 222 84q113 82 112 239q0 162 -145 220q-20 8 -49 19t-68 26q-78 33 -78 84q0 57 39 135q25 51 54.5 74.5t60.5 23.5q90 0 199 -129q82 -121 82 -365q0 -311 -117 -501q-147 -238 -340 -238q-23 0 -30 18.5t-5 59.5z" />
<glyph unicode="&#xf8ff;" horiz-adv-x="622" d="M43 41l2 41q2 35 6 73t8 72q0 51 47 64q160 39 222 84q113 82 112 239q0 162 -145 220q-20 8 -49 19t-68 26q-78 33 -78 84q0 57 39 135q25 51 54.5 74.5t60.5 23.5q90 0 199 -129q82 -121 82 -365q0 -311 -117 -501q-147 -238 -340 -238q-23 0 -30 18.5t-5 59.5z" />
<glyph unicode="&#x5e1;" horiz-adv-x="1036" d="M76 -139q0 29 5 72.5t19 109.5q12 66 19.5 118t7.5 91l-4 330q-4 92 27 143q6 10 27.5 39t62.5 80q0 8 -9 16q-111 20 -110 137q0 16 5 62.5t19 124.5l13 78l78 10q0 -84 63 -107q10 -4 55 -6t123 -4q86 -4 137.5 -5t67.5 -3q156 -18 233 -203q57 -143 58 -323 q0 -244 -94 -424q-115 -229 -334 -230q-209 0 -295 207q0 35 -43 35l-2 -41q-2 -31 5 -70t19 -86q2 -8 7.5 -27.5t13.5 -52.5q4 -16 6 -25t2 -11q0 -104 -102 -105q-80 0 -80 70zM238 588q0 -68 21.5 -126.5t59 -101.5t93 -66.5t123.5 -23.5q166 0 254 92.5t88 258.5 q-4 35 -8.5 57t-8.5 37q-33 92 -112 123q-29 10 -70 14t-100 4h-218l-75 -106q-47 -66 -47 -162z" />
<glyph unicode="&#x5e2;" horiz-adv-x="1036" d="M43 72q0 121 25 159q6 27 104 31l139 2l15 12q0 115 -19 291q-20 233 -57 254l-72 62q-39 37 -39 82q0 53 29 135q35 94 80 94q43 0 114 -61q72 -61 72 -103l-6 -67q-14 -115 -20.5 -189t-6.5 -115q0 -12 2.5 -54t4.5 -113l8 -216q129 0 270 56q78 41 124 120.5t46 172.5 q0 109 -61 157q-39 33 -152 72q-106 12 -106 70q0 33 45 141q59 127 100 127q74 0 160 -113q115 -147 114 -383q0 -455 -350 -639q-74 -39 -188 -65q-121 -29 -201 -29q-111 0 -129 6q-45 19 -45 103z" />
<glyph unicode="&#x5e3;" horiz-adv-x="966" d="M78 602q0 246 106 402q129 188 260 188q100 0 258 -80q176 -90 177 -178v-9q0 -5 -2 -14q-4 -18 -7.5 -32.5t-5.5 -24.5l-49 -172q-43 -147 -43 -309q0 -25 7 -86.5t20 -163.5l26 -186q4 -23 7.5 -62t7.5 -90l10 -125q2 -74 -90 -170q-68 -68 -113 -68q-23 0 -36 29 t-13 51l2 60l6 583q6 266 45 377l68 183q0 78 -162 157q-141 68 -235 68q-27 0 -50.5 -17.5t-42 -44t-29 -58.5t-10.5 -62q0 -133 150 -226q35 -20 57.5 -38.5t32.5 -32.5q33 -45 33 -144q0 -29 -57 -47q-43 -12 -84 -12q-129 0 -193 119q-51 94 -51 235z" />
<glyph unicode="&#x5e4;" horiz-adv-x="1036" d="M111 594q0 86 69 158l62 67q6 18 -27 31q-63 33 -82 78q-12 33 -12 114q12 137 31 211l84 11q0 -43 16 -66.5t48 -35t77 -13.5t104 -2q68 2 114 1t71 -5q168 -29 239 -221q41 -123 41 -254q0 -489 -438 -660q-115 -45 -260 -45q-76 0 -92 14q-31 18 -31 84q0 59 7 102.5 t20 72.5q0 27 110 26q254 0 387 55q201 84 201 304q0 156 -111 206q-35 16 -100.5 22.5t-161.5 6.5q-70 0 -115 -31q-59 -39 -59 -98q0 -29 23 -49q59 -63 59 -90q0 -39 -51 -109q-45 -63 -86 -63q-29 0 -78 51q-59 61 -59 127z" />
<glyph unicode="&#x5e8;" horiz-adv-x="899" d="M45 1030q0 109 23 234l77 4q0 -113 129 -111l115 2q117 4 182 -20q176 -55 220 -322q6 -47 10 -94t4 -98q0 -162 -68 -383q-86 -283 -215 -273l-30 4q-74 18 -74 88q0 66 59 105q231 211 232 450q0 248 -281 244l-188 -4q-195 -4 -195 174z" />
<glyph unicode="&#x5f0;" horiz-adv-x="1126" d="M47 942q0 66 43 152q49 102 105 102q53 0 122 -57q121 -92 127 -285q2 -33 2 -63v-66v-73q0 -32 -2 -54l-14 -303q-2 -29 -4 -74t-4 -110q-8 -68 -23 -91q0 -33 -69 -32q-23 0 -19 61l11 242q10 203 -25 319q-49 156 -182 252q-68 49 -68 80zM620 942q0 66 43 152 q49 102 105 102q53 0 122 -57q121 -92 127 -285q2 -33 2 -63v-66v-73q0 -32 -2 -54l-14 -303q-2 -29 -4 -74t-4 -110q-8 -68 -23 -91q0 -33 -69 -32q-23 0 -19 61l11 242q10 203 -25 319q-49 156 -182 252q-68 49 -68 80z" />
<glyph unicode="&#x5f1;" horiz-adv-x="1251" d="M682 942q0 66 43 152q49 102 105 102q53 0 122 -57q121 -92 127 -285q2 -33 2 -63v-66v-73q0 -32 -2 -54l-14 -303q-2 -29 -4 -74t-4 -110q-8 -68 -23 -91q0 -33 -69 -32q-23 0 -19 61l11 242q10 203 -25 319q-49 156 -182 252q-68 49 -68 80zM133 1042q0 43 16.5 96.5 t46.5 118.5h72l-4 -28q0 -76 148 -135q37 -16 59 -30.5t37 -27.5q47 -39 47 -104q0 -258 -217 -475q-27 0 -45 24l-23 29q72 78 94 117q35 63 35 114q0 61 -71 86q-195 55 -195 215z" />
<glyph unicode="&#x5f2;" horiz-adv-x="1028" d="M43 1042q0 43 16.5 96.5t46.5 118.5h72l-4 -28q0 -76 148 -135q37 -16 59 -30.5t37 -27.5q47 -39 47 -104q0 -258 -217 -475q-27 0 -45 24l-23 29q72 78 94 117q35 63 35 114q0 61 -71 86q-195 55 -195 215zM586 1042q0 43 16.5 96.5t46.5 118.5h72l-4 -28 q0 -76 148 -135q37 -16 59 -30.5t37 -27.5q47 -39 47 -104q0 -258 -217 -475q-27 0 -45 24l-23 29q72 78 94 117q35 63 35 114q0 61 -71 86q-195 55 -195 215z" />
<glyph unicode="&#x5f3;" horiz-adv-x="552" d="M90 700l117 428l35 111q12 39 69 45q8 2 90 2l54 -4q31 0 30 -41q0 -53 -98 -201l-221 -340h-76z" />
<glyph unicode="&#x25ca;" horiz-adv-x="552" d="M90 700l117 428l35 111q12 39 69 45q8 2 90 2l54 -4q31 0 30 -41q0 -53 -98 -201l-221 -340h-76z" />
<glyph unicode="&#x5f4;" horiz-adv-x="966" d="M72 705l114 399l54 153q16 27 125 27h79q31 -4 31 -37q0 -68 -96 -207l-229 -335h-78zM473 702l109 392l51 159q18 33 151 33q47 0 60 -4q29 -12 28 -45q0 -16 -34 -86q-6 -12 -20.5 -35.5t-35.5 -58.5l-235 -355h-74z" />
<glyph unicode="&#x2000;" horiz-adv-x="1024" />
<glyph unicode="&#x2001;" horiz-adv-x="2048" />
<glyph unicode="&#x2002;" horiz-adv-x="1024" />
<glyph unicode="&#x2003;" horiz-adv-x="2048" />
<glyph unicode="&#x2004;" horiz-adv-x="681" />
<glyph unicode="&#x2005;" horiz-adv-x="512" />
<glyph unicode="&#x2006;" horiz-adv-x="339" />
<glyph unicode="&#x2007;" horiz-adv-x="899" />
<glyph unicode="&#x2008;" horiz-adv-x="485" />
<glyph unicode="&#x2009;" horiz-adv-x="204" />
<glyph unicode="&#x200a;" horiz-adv-x="20" />
<glyph unicode="&#x200b;" />
<glyph unicode="&#x200c;" horiz-adv-x="45" d="M0 0v1628h45v-1628h-45z" />
<glyph unicode="&#x200d;" horiz-adv-x="45" d="M-115 1495l109 109l-109 106l31 31l107 -109l106 109l31 -31l-107 -106l107 -109l-31 -29l-84 84v-1550h-45v1550l-84 -84z" />
<glyph unicode="&#x2010;" horiz-adv-x="759" d="M80 471v195h594v-195h-594z" />
<glyph unicode="&#x2011;" horiz-adv-x="759" d="M80 471v195h594v-195h-594z" />
<glyph unicode="&#x2012;" horiz-adv-x="899" d="M80 471v195h733v-195h-733z" />
<glyph unicode="&#x2013;" horiz-adv-x="929" d="M25 614l69 168h809l-69 -168h-809z" />
<glyph unicode="&#x2014;" horiz-adv-x="1859" d="M25 614l69 168h1731l-70 -168h-1730z" />
<glyph unicode="&#x2015;" horiz-adv-x="4096" d="M80 471v195h3930v-195h-3930z" />
<glyph unicode="&#x2016;" horiz-adv-x="761" d="M494 -287v1805l155 45v-1805zM113 -287v1805l155 45v-1805z" />
<glyph unicode="&#x2018;" horiz-adv-x="485" d="M47 -264l119 430l35 108q10 39 69 45q6 2 90 3q84 0 84 -35q0 -37 -24 -92q-4 -10 -22.5 -39t-53.5 -80l-221 -340h-76z" />
<glyph unicode="&#x2019;" horiz-adv-x="485" d="M66 129q0 72 45 119t114 47q68 0 115 -49t47 -117q0 -61 -43 -112.5t-117 -51.5q-70 0 -115.5 47t-45.5 117z" />
<glyph unicode="&#x201c;" horiz-adv-x="966" d="M72 -156l114 400l54 153q16 27 125 27h79q31 -4 31 -37q0 -68 -96 -207l-229 -336h-78zM473 -158l109 391l51 160q18 33 151 33q47 0 60 -4q29 -12 28 -45q0 -16 -34 -86q-6 -12 -20.5 -36t-35.5 -58l-235 -355h-74z" />
<glyph unicode="&#x201d;" horiz-adv-x="966" d="M72 705l114 399l54 153q16 27 125 27h79q31 -4 31 -37q0 -68 -96 -207l-229 -335h-78zM473 702l109 392l51 159q18 33 151 33q47 0 60 -4q29 -12 28 -45q0 -16 -34 -86q-6 -12 -20.5 -35.5t-35.5 -58.5l-235 -355h-74z" />
<glyph unicode="&#x2022;" horiz-adv-x="1062" d="M115 643q0 172 118 291q121 121 293 121q170 0 291 -121t121 -291q0 -172 -121 -293t-291 -121q-172 0 -293 121q-118 119 -118 293z" />
<glyph unicode="&#x2024;" horiz-adv-x="485" d="M66 129q0 72 45 119t114 47q68 0 115 -49t47 -117q0 -61 -43 -112.5t-117 -51.5q-70 0 -115.5 47t-45.5 117z" />
<glyph unicode="&#x2025;" horiz-adv-x="970" d="M551 129q0 72 45 119t114 47q68 0 115 -49t47 -117q0 -61 -43 -112.5t-117 -51.5q-70 0 -115.5 47t-45.5 117zM66 129q0 72 45 119t114 47q68 0 115 -49t47 -117q0 -61 -43 -112.5t-117 -51.5q-70 0 -115.5 47t-45.5 117z" />
<glyph unicode="&#x202a;" />
<glyph unicode="&#x202f;" horiz-adv-x="378" />
<glyph unicode="&#x2032;" horiz-adv-x="552" d="M90 700l117 428l35 111q12 39 69 45q8 2 90 2l54 -4q31 0 30 -41q0 -53 -98 -201l-221 -340h-76z" />
<glyph unicode="&#x2033;" horiz-adv-x="1105" d="M643 700l117 428l35 111q12 39 69 45q8 2 90 2l54 -4q31 0 30 -41q0 -53 -98 -201l-221 -340h-76zM90 700l117 428l35 111q12 39 69 45q8 2 90 2l54 -4q31 0 30 -41q0 -53 -98 -201l-221 -340h-76z" />
<glyph unicode="&#x2034;" horiz-adv-x="1658" d="M1196 700l117 428l35 111q12 39 69 45q8 2 90 2l54 -4q31 0 30 -41q0 -53 -98 -201l-221 -340h-76zM643 700l117 428l35 111q12 39 69 45q8 2 90 2l54 -4q31 0 30 -41q0 -53 -98 -201l-221 -340h-76zM90 700l117 428l35 111q12 39 69 45q8 2 90 2l54 -4q31 0 30 -41 q0 -53 -98 -201l-221 -340h-76z" />
<glyph unicode="&#x2039;" horiz-adv-x="851" d="M162 582q45 39 109.5 95t150.5 132l147 139q125 117 133 117q25 0 25 -29q0 -35 -328 -461q47 -59 93.5 -116.5t93.5 -116.5q143 -186 143 -229q0 -29 -27 -29q-10 0 -153 143q-23 23 -118 111t-269 244z" />
<glyph unicode="&#x203a;" horiz-adv-x="851" d="M123 1036q0 29 29 29q10 0 153 -143q35 -33 131 -121t256 -232q-45 -39 -109.5 -95t-150.5 -132q-45 -45 -111.5 -107.5t-158.5 -148.5l-10 -2q-27 0 -27 29q0 35 328 460q-47 57 -92.5 114.5t-90.5 117.5q-147 186 -147 231z" />
<glyph unicode="&#x203c;" horiz-adv-x="1105" d="M674 117q0 31 12 58.5t33.5 49t48.5 33.5t57 12q66 0 111 -46t45 -111q0 -63 -53 -117q-23 -16 -47.5 -26.5t-51.5 -10.5q-68 0 -111.5 45t-43.5 113zM696 1133q0 86 49.5 136t135.5 50q100 0 100 -102v-31q0 -6 -4 -32t-8 -71l-101 -694q-18 -39 -51 -39q-27 0 -33 51 l-4 52q0 39 -2 69.5t-6 55.5l-18 127l-33 196q-14 78 -19.5 134.5t-5.5 97.5zM121 117q0 31 12 58.5t33.5 49t48.5 33.5t57 12q66 0 111 -46t45 -111q0 -63 -53 -117q-23 -16 -47.5 -26.5t-51.5 -10.5q-68 0 -111.5 45t-43.5 113zM143 1133q0 86 49.5 136t135.5 50 q100 0 100 -102v-31q0 -6 -4 -32t-8 -71l-101 -694q-18 -39 -51 -39q-27 0 -33 51l-4 52q0 39 -2 69.5t-6 55.5l-18 127l-33 196q-14 78 -19.5 134.5t-5.5 97.5z" />
<glyph unicode="&#x203e;" horiz-adv-x="573" d="M-214.202 162.799l18.5986 49.1982q68.998 -30.5986 122.995 -30.5986q29.3994 0 54.5977 12.2988q25.1992 12.2998 42.8984 33.2988t27.5986 48.5977q9.90039 27.5996 9.90039 58.1982q0 51.5977 -26.999 89.3965q-29.3994 44.3975 -78.5967 44.3975 q-9.59961 0 -26.999 -3.59961t-38.3984 -11.999l-14.3994 44.998q154.793 82.1963 154.793 179.393q0 36.5986 -25.7988 60.2979q-25.7988 23.6982 -62.9971 23.6982q-44.3984 0 -107.995 -45.5977l-28.1992 42.5986q103.195 84.5957 206.392 85.1963 q66.5967 0 113.396 -34.7988q52.7979 -36.5986 52.7979 -97.7959q0 -104.396 -145.194 -155.994q4.7998 -5.99902 20.999 -6.59961q66.5977 0 113.995 -65.9971q44.3984 -58.7979 44.3984 -126.595q0 -119.396 -92.3965 -182.992q-70.1973 -47.998 -158.394 -47.998 q-43.1982 0 -86.6963 9.59961t-90.2959 29.3984z" />
<glyph unicode="&#x2047;" horiz-adv-x="1658" d="M942 1245q0 131 57 131q18 0 39 -39q35 -35 102 -45q174 0 246 -39q135 -68 135 -272q0 -106 -30 -170q-20 -43 -80 -115q-119 -94 -119 -207l6 -79q0 -45 -39 -58l-29 -14q-8 -8 -26 -8q-45 0 -45 59q0 98 30 166q25 51 93 141q96 127 96 191q0 33 -23.5 72.5 t-56.5 48.5q-37 10 -113 10h-30q-213 0 -213 227zM1091 104q0 68 43 113t111 45q61 0 107 -45t46 -106q0 -66 -43 -112t-108 -46q-37 0 -70 16q-86 43 -86 135zM113 1245q0 131 57 131q18 0 39 -39q35 -35 102 -45q174 0 246 -39q135 -68 135 -272q0 -106 -30 -170 q-20 -43 -80 -115q-119 -94 -119 -207l6 -79q0 -45 -39 -58l-29 -14q-8 -8 -26 -8q-45 0 -45 59q0 98 30 166q25 51 93 141q96 127 96 191q0 33 -23.5 72.5t-56.5 48.5q-37 10 -113 10h-30q-213 0 -213 227zM262 104q0 68 43 113t111 45q61 0 107 -45t46 -106 q0 -66 -43 -112t-108 -46q-37 0 -70 16q-86 43 -86 135z" />
<glyph unicode="&#x2048;" horiz-adv-x="1382" d="M950 117q0 31 12 58.5t33.5 49t48.5 33.5t57 12q66 0 111 -46t45 -111q0 -63 -53 -117q-23 -16 -47.5 -26.5t-51.5 -10.5q-68 0 -111.5 45t-43.5 113zM972 1133q0 86 49.5 136t135.5 50q100 0 100 -102v-31q0 -6 -4 -32t-8 -71l-101 -694q-18 -39 -51 -39q-27 0 -33 51 l-4 52q0 39 -2 69.5t-6 55.5l-18 127l-33 196q-14 78 -19.5 134.5t-5.5 97.5zM113 1245q0 131 57 131q18 0 39 -39q35 -35 102 -45q174 0 246 -39q135 -68 135 -272q0 -106 -30 -170q-20 -43 -80 -115q-119 -94 -119 -207l6 -79q0 -45 -39 -58l-29 -14q-8 -8 -26 -8 q-45 0 -45 59q0 98 30 166q25 51 93 141q96 127 96 191q0 33 -23.5 72.5t-56.5 48.5q-37 10 -113 10h-30q-213 0 -213 227zM262 104q0 68 43 113t111 45q61 0 107 -45t46 -106q0 -66 -43 -112t-108 -46q-37 0 -70 16q-86 43 -86 135z" />
<glyph unicode="&#x2049;" horiz-adv-x="1382" d="M666 1245q0 131 57 131q18 0 39 -39q35 -35 102 -45q174 0 246 -39q135 -68 135 -272q0 -106 -30 -170q-20 -43 -80 -115q-119 -94 -119 -207l6 -79q0 -45 -39 -58l-29 -14q-8 -8 -26 -8q-45 0 -45 59q0 98 30 166q25 51 93 141q96 127 96 191q0 33 -23.5 72.5 t-56.5 48.5q-37 10 -113 10h-30q-213 0 -213 227zM815 104q0 68 43 113t111 45q61 0 107 -45t46 -106q0 -66 -43 -112t-108 -46q-37 0 -70 16q-86 43 -86 135zM121 117q0 31 12 58.5t33.5 49t48.5 33.5t57 12q66 0 111 -46t45 -111q0 -63 -53 -117q-23 -16 -47.5 -26.5 t-51.5 -10.5q-68 0 -111.5 45t-43.5 113zM143 1133q0 86 49.5 136t135.5 50q100 0 100 -102v-31q0 -6 -4 -32t-8 -71l-101 -694q-18 -39 -51 -39q-27 0 -33 51l-4 52q0 39 -2 69.5t-6 55.5l-18 127l-33 196q-14 78 -19.5 134.5t-5.5 97.5z" />
<glyph unicode="&#x2057;" horiz-adv-x="2211" d="M1749 700l117 428l35 111q12 39 69 45q8 2 90 2l54 -4q31 0 30 -41q0 -53 -98 -201l-221 -340h-76zM1196 700l117 428l35 111q12 39 69 45q8 2 90 2l54 -4q31 0 30 -41q0 -53 -98 -201l-221 -340h-76zM643 700l117 428l35 111q12 39 69 45q8 2 90 2l54 -4q31 0 30 -41 q0 -53 -98 -201l-221 -340h-76zM90 700l117 428l35 111q12 39 69 45q8 2 90 2l54 -4q31 0 30 -41q0 -53 -98 -201l-221 -340h-76z" />
<glyph unicode="&#x205f;" horiz-adv-x="473" />
<glyph unicode="&#x2060;" />
<glyph unicode="&#xe000;" horiz-adv-x="770" d="M0 770h770v-770h-770v770z" />
<glyph unicode="&#xfb00;" horiz-adv-x="1441" d="M762 0v49h158v680h-156v49h156v74q0 221 43 313q80 170 254 170q72 0 129 -32q72 -41 71 -105q0 -78 -75 -78q-82 0 -82 74q0 47 47 70q0 23 -86 22q-100 0 -101 -137v-371h170v-49h-170v-680h158v-49h-516zM41 0v49h158v680h-156v49h156v74q0 221 43 313q80 170 254 170 q72 0 129 -32q72 -41 71 -105q0 -78 -75 -78q-82 0 -82 74q0 47 47 70q0 23 -86 22q-100 0 -101 -137v-371h170v-49h-170v-680h158v-49h-516z" />
<glyph unicode="&#xfb01;" horiz-adv-x="1341" d="M789 0v49h157v680h-157v49h356v-729h160v-49h-516zM926 1126q0 47 34.5 79t84.5 32q49 0 83.5 -31.5t34.5 -79.5q0 -47 -35.5 -77.5t-82.5 -30.5t-83 30.5t-36 77.5zM41 0v49h158v680h-156v49h156v74q0 221 43 313q80 170 254 170q72 0 129 -32q72 -41 71 -105 q0 -78 -75 -78q-82 0 -82 74q0 47 47 70q0 23 -86 22q-100 0 -101 -137v-371h170v-49h-170v-680h158v-49h-516z" />
<glyph unicode="&#xfb02;" horiz-adv-x="1323" d="M787 0v49h147v1223h-147v49h346v-1272h147v-49h-493zM41 0v49h158v680h-156v49h156v74q0 221 43 313q80 170 254 170q72 0 129 -32q72 -41 71 -105q0 -78 -75 -78q-82 0 -82 74q0 47 47 70q0 23 -86 22q-100 0 -101 -137v-371h170v-49h-170v-680h158v-49h-516z" />
<glyph unicode="&#xfb03;" horiz-adv-x="2062" d="M1510 0v49h157v680h-157v49h356v-729h160v-49h-516zM1647 1126q0 47 34.5 79t84.5 32q49 0 83.5 -31.5t34.5 -79.5q0 -47 -35.5 -77.5t-82.5 -30.5t-83 30.5t-36 77.5zM762 0v49h158v680h-156v49h156v74q0 221 43 313q80 170 254 170q72 0 129 -32q72 -41 71 -105 q0 -78 -75 -78q-82 0 -82 74q0 47 47 70q0 23 -86 22q-100 0 -101 -137v-371h170v-49h-170v-680h158v-49h-516zM41 0v49h158v680h-156v49h156v74q0 221 43 313q80 170 254 170q72 0 129 -32q72 -41 71 -105q0 -78 -75 -78q-82 0 -82 74q0 47 47 70q0 23 -86 22 q-100 0 -101 -137v-371h170v-49h-170v-680h158v-49h-516z" />
<glyph unicode="&#xfb04;" horiz-adv-x="2043" d="M1508 0v49h147v1223h-147v49h346v-1272h147v-49h-493zM762 0v49h158v680h-156v49h156v74q0 221 43 313q80 170 254 170q72 0 129 -32q72 -41 71 -105q0 -78 -75 -78q-82 0 -82 74q0 47 47 70q0 23 -86 22q-100 0 -101 -137v-371h170v-49h-170v-680h158v-49h-516zM41 0v49 h158v680h-156v49h156v74q0 221 43 313q80 170 254 170q72 0 129 -32q72 -41 71 -105q0 -78 -75 -78q-82 0 -82 74q0 47 47 70q0 23 -86 22q-100 0 -101 -137v-371h170v-49h-170v-680h158v-49h-516z" />
<glyph unicode="&#xfb06;" horiz-adv-x="1464" d="M791 727v49h143v217l201 92v-309h205v-49h-205v-518q0 -176 127 -176q111 0 133 133q4 29 29 29q20 0 20 -25q0 -16 -2 -20q-35 -176 -252 -177q-119 0 -187.5 61.5t-68.5 178.5v514h-143zM88 8v207q0 25 23 25q18 0 24 -25q55 -195 266 -195q80 0 138 33q74 39 73 113 q0 86 -125 129q-16 2 -196 43q-188 41 -189 207q0 59 22.5 106t61.5 80t91.5 50.5t113.5 17.5q96 0 160 -51l41 38l6 5q8 8 16 8q14 0 15 -23v-207q0 -20 -17 -20q-20 0 -22 18q-14 82 -69.5 132.5t-141.5 50.5q-63 0 -115 -31q-61 -35 -61 -92q0 -61 123 -99q45 -10 89 -19 t89 -20q199 -57 198 -245q0 -129 -81.5 -200t-212.5 -71q-156 0 -238 76l-39 -51q-8 -14 -20 -14q-23 -1 -23 24z" />
<glyph unicode="&#xfb1d;" horiz-adv-x="485" d="M43 1042q0 43 16.5 96.5t46.5 118.5h72l-4 -28q0 -76 148 -135q37 -16 59 -30.5t37 -27.5q47 -39 47 -104q0 -258 -217 -475q-27 0 -45 24l-23 29q72 78 94 117q35 63 35 114q0 61 -71 86q-195 55 -195 215zM172 -256q0 35 24.5 59.5t61.5 24.5t61.5 -23.5t24.5 -60.5 t-24.5 -61.5t-61.5 -24.5t-61.5 24.5t-24.5 61.5z" />
<glyph unicode="&#xfb1e;" horiz-adv-x="716" d="M45 1649q0 166 70 166q51 0 137 -50q96 -55 96 -100q-4 -23 -8 -56.5t-12 -80.5q-23 -123 -32 -207t-9 -131q111 -25 205 -133q131 -152 131 -391q0 -319 -177 -527q-147 -180 -313 -180q-66 0 -65 100l14 150q8 23 14 35t16.5 20t26 13.5t41.5 13.5q338 57 338 303 q0 98 -63 160q-37 37 -150 90q-156 72 -149 106l18 250q0 20 2 53t4 84q2 25 2 41v27q0 106 -88 170q-49 43 -49 74z" />
<glyph unicode="&#xfb1f;" horiz-adv-x="1028" d="M43 1042q0 43 16.5 96.5t46.5 118.5h72l-4 -28q0 -76 148 -135q37 -16 59 -30.5t37 -27.5q47 -39 47 -104q0 -258 -217 -475q-27 0 -45 24l-23 29q72 78 94 117q35 63 35 114q0 61 -71 86q-195 55 -195 215zM586 1042q0 43 16.5 96.5t46.5 118.5h72l-4 -28 q0 -76 148 -135q37 -16 59 -30.5t37 -27.5q47 -39 47 -104q0 -258 -217 -475q-27 0 -45 24l-23 29q72 78 94 117q35 63 35 114q0 61 -71 86q-195 55 -195 215z" />
<glyph unicode="&#xfb20;" horiz-adv-x="1038" d="M43 80q0 113 25 160q10 27 104 28l141 4l13 13q0 113 -19 288q-20 236 -57 256l-72 60q-37 37 -37 82q0 57 27 135q33 94 80 94t114 -61q74 -63 74 -103l-8 -67q-14 -113 -19.5 -187.5t-5.5 -115.5q0 -12 1.5 -53.5t3.5 -112.5l8 -215q66 0 133 13t139 42q78 39 124 120 t46 171q0 106 -63 157q-20 16 -59.5 35t-92.5 39q-104 8 -104 70q0 37 45 139q55 127 98 127q74 0 160 -113q117 -147 116 -380q0 -455 -350 -642q-76 -39 -190 -63q-117 -31 -201 -31q-113 0 -129 8q-45 19 -45 103z" />
<glyph unicode="&#xfb21;" horiz-adv-x="1579" d="M-20 66q0 141 40 182q2 4 68 7t164 6t216 5t222.5 3t181 2t97.5 1q401 0 401 103q0 57 -129 162q-72 57 -59 81l86 238q-2 25 -23 21l-995 -15h-88q-82 0 -117 60q-23 37 -22 135q0 49 5 99t17 101l80 9q8 -53 29 -74q39 -41 125 -39l944 4h231q-23 -104 -45.5 -184 t-42.5 -139q20 -39 32.5 -61.5t16.5 -31.5q16 -35 29.5 -59.5t19.5 -40.5q37 -61 37 -141q0 -61 -18.5 -125t-59.5 -125q-109 -178 -327 -240q-25 -6 -107 -12t-194.5 -11t-237.5 -9.5t-233.5 -6.5t-185.5 -3t-91 -1q-67 1 -67 99z" />
<glyph unicode="&#xfb22;" horiz-adv-x="1718" d="M57 1032q0 96 2 107l10 55q5 31 11 70l80 4q0 -76 69 -94q12 -2 89 -5.5t187.5 -5.5t242 -3t249.5 -1h212h130l301 2q29 -10 29 -59q0 -137 -98 -213q8 -31 8 -107q0 -63 -16 -125l-115 -467q-29 -127 -37 -147q-18 -66 -61 -66q-51 0 -117 66q-59 70 -59 119 q0 47 51 149q10 23 29.5 60t52.5 96l149 283q14 35 19.5 53t5.5 24l-2 50l-1231 -15q-106 -6 -148.5 30t-42.5 140z" />
<glyph unicode="&#xfb23;" horiz-adv-x="1853" d="M84 1034q0 109 35 236h76q20 -104 98 -105l1085 -4q174 -4 252 -84q139 -150 139 -473q0 -29 -3 -73t-13 -105q-8 -51 -13 -82t-9 -43q-29 -80 -80 -80q-31 0 -56.5 20.5t-25.5 51.5q0 6 18.5 45t52.5 117q35 74 35 153q0 168 -139 223q-78 33 -270 33h-942 q-59 0 -96.5 2t-53.5 6q-90 19 -90 162zM104 500q0 98 13 170h73q0 -250 242 -332q92 -35 111 -68q23 -31 22 -139q0 -156 -82 -156q-12 0 -29.5 4.5t-41.5 14.5q-308 111 -308 506z" />
<glyph unicode="&#xfb24;" horiz-adv-x="1646" d="M49 1047q0 55 7 107t24 118l92 6q0 -82 55 -102q6 -2 74 -4.5t169 -3.5t219 -1h222h181h94q391 0 391 -487q0 -311 -164 -502q-143 -168 -377 -198q-8 -2 -76.5 -2.5t-169 -1.5t-215 -2t-214.5 -1h-168h-78q-16 0 -34 19.5t-18 36.5v104q0 37 5 47q12 98 79 111h79h171 q100 0 215 1t214.5 1t169 1t77.5 1q406 33 406 334q0 233 -238 233l-1010 12q-100 0 -141 37.5t-41 135.5z" />
<glyph unicode="&#xfb25;" horiz-adv-x="692" d="M27 1649q0 166 69 166q51 0 137 -50q96 -55 97 -100q-4 -23 -8.5 -56.5t-12.5 -80.5q-23 -123 -32 -207t-9 -131q111 -25 205 -133q131 -152 131 -391q0 -319 -176 -527q-147 -180 -313 -180q-66 0 -66 100l14 150q8 23 14.5 35t16.5 20t25.5 13.5t42.5 13.5 q338 57 338 303q0 98 -64 160q-37 37 -149 90q-156 72 -150 106l19 250q0 20 2 53t4 84q2 25 2 41v27q0 106 -88 170q-49 43 -49 74z" />
<glyph unicode="&#xfb26;" horiz-adv-x="1855" d="M72 487q0 184 75 287q2 2 18.5 21.5t45.5 60.5l-14 14q-45 0 -79 41t-32 88l6 74l33 195l80 10q0 -43 24 -74q20 -47 248 -43l922 2q387 12 387 -547q0 -389 -203 -555q-117 -92 -252 -92l-868 2q-174 18 -281 158q-110 141 -110 358zM209 590q0 -94 53 -178 q35 -57 88 -92t123 -46h877q100 0 188 35q152 90 152 332q0 78 -44 140.5t-120 74.5q-25 4 -71 6t-112 2h-1017q-117 -147 -117 -274z" />
<glyph unicode="&#xfb27;" horiz-adv-x="1718" d="M45 1036q0 59 6 117.5t17 118.5l77 2q0 -115 129 -111l934 2q59 4 103.5 -2t79.5 -16q176 -57 219 -324q6 -47 10 -94t4 -98q0 -160 -68 -381q-86 -285 -215 -273l-30 3q-74 18 -74 90q0 66 59 102q233 211 234 453q0 246 -283 241l-1007 -2q-195 -4 -195 172z" />
<glyph unicode="&#xfb28;" horiz-adv-x="1855" d="M68 133v45q0 80 112 129l-22 303q-8 113 106 232q0 18 -14 18q-25 0 -46.5 14.5t-34.5 38t-20.5 51t-3.5 54.5l21 239l88 9q-12 -104 156 -107l985 -2q168 -2 241 -86q125 -137 125 -420q0 -176 -67 -350q-86 -231 -232 -231q-90 0 -90 86q0 47 115 102q176 115 176 307 q0 154 -49 215q-55 74 -205 78l-1024 -2q-102 -102 -102 -192q0 -16 5 -44t15 -69l49 -193q20 -80 31.5 -117.5t11.5 -31.5q0 -109 -24 -152q-12 -35 -62 -49q-72 -12 -118 -19t-62 -7q-51 0 -57 59q-2 10 -3 32.5t-1 59.5z" />
<glyph unicode="&#xfb29;" horiz-adv-x="1183" d="M29 584v172h448v448h170v-448h449v-172h-1067z" />
<glyph unicode="&#xfb2a;" horiz-adv-x="1036" d="M78 924q0 6 7 25.5t19 54.5q10 23 33 83l68 181h78q0 -82 71 -107q45 -14 226 -14q117 0 157 14q29 12 53.5 36t40.5 63l87 -7l-52 -229q-25 -123 -153 -158q-63 -18 -240 -14l-188 4v-63v-93v-23q0 -13 -2 -30v-37v-28l-9 -256q20 -6 70 -15q53 -6 100.5 -10t90.5 -4 q287 0 286 358h90l7 -75q2 -43 -5.5 -100.5t-23.5 -127.5q-14 -70 -32.5 -124t-39.5 -93q-49 -90 -137 -121q-27 -10 -64.5 -13t-85.5 -3l-174 20q-74 0 -96 -65l-29 -82q-6 -18 -24 -21h-23l-51 7q4 16 8 66t9 136l16 244l12 412v147q-100 25 -100 62zM747 1405 q0 35 26 60.5t60 25.5q37 0 61.5 -24.5t24.5 -61.5t-24.5 -61.5t-61.5 -24.5t-61.5 24.5t-24.5 61.5z" />
<glyph unicode="&#xfb2b;" horiz-adv-x="1036" d="M78 924q0 6 7 25.5t19 54.5q10 23 33 83l68 181h78q0 -82 71 -107q45 -14 226 -14q117 0 157 14q29 12 53.5 36t40.5 63l87 -7l-52 -229q-25 -123 -153 -158q-63 -18 -240 -14l-188 4v-63v-93v-23q0 -13 -2 -30v-37v-28l-9 -256q20 -6 70 -15q53 -6 100.5 -10t90.5 -4 q287 0 286 358h90l7 -75q2 -43 -5.5 -100.5t-23.5 -127.5q-14 -70 -32.5 -124t-39.5 -93q-49 -90 -137 -121q-27 -10 -64.5 -13t-85.5 -3l-174 20q-74 0 -96 -65l-29 -82q-6 -18 -24 -21h-23l-51 7q4 16 8 66t9 136l16 244l12 412v147q-100 25 -100 62zM207 1411 q0 35 25.5 60.5t60.5 25.5q37 0 61.5 -24.5t24.5 -61.5t-24.5 -61.5t-61.5 -24.5t-61.5 24.5t-24.5 61.5z" />
<glyph unicode="&#xfb2c;" horiz-adv-x="1036" d="M78 924q0 6 7 25.5t19 54.5q10 23 33 83l68 181h78q0 -82 71 -107q45 -14 226 -14q117 0 157 14q29 12 53.5 36t40.5 63l87 -7l-52 -229q-25 -123 -153 -158q-63 -18 -240 -14l-188 4v-63v-93v-23q0 -13 -2 -30v-37v-28l-9 -256q20 -6 70 -15q53 -6 100.5 -10t90.5 -4 q287 0 286 358h90l7 -75q2 -43 -5.5 -100.5t-23.5 -127.5q-14 -70 -32.5 -124t-39.5 -93q-49 -90 -137 -121q-27 -10 -64.5 -13t-85.5 -3l-174 20q-74 0 -96 -65l-29 -82q-6 -18 -24 -21h-23l-51 7q4 16 8 66t9 136l16 244l12 412v147q-100 25 -100 62zM395 578 q0 35 24.5 59.5t59.5 24.5t59.5 -24.5t24.5 -59.5t-24.5 -59.5t-59.5 -24.5t-59.5 24.5t-24.5 59.5zM577 1405q0 35 26 60.5t60 25.5q37 0 61.5 -24.5t24.5 -61.5t-24.5 -61.5t-61.5 -24.5t-61.5 24.5t-24.5 61.5z" />
<glyph unicode="&#xfb2d;" horiz-adv-x="1036" d="M78 924q0 6 7 25.5t19 54.5q10 23 33 83l68 181h78q0 -82 71 -107q45 -14 226 -14q117 0 157 14q29 12 53.5 36t40.5 63l87 -7l-52 -229q-25 -123 -153 -158q-63 -18 -240 -14l-188 4v-63v-93v-23q0 -13 -2 -30v-37v-28l-9 -256q20 -6 70 -15q53 -6 100.5 -10t90.5 -4 q287 0 286 358h90l7 -75q2 -43 -5.5 -100.5t-23.5 -127.5q-14 -70 -32.5 -124t-39.5 -93q-49 -90 -137 -121q-27 -10 -64.5 -13t-85.5 -3l-174 20q-74 0 -96 -65l-29 -82q-6 -18 -24 -21h-23l-51 7q4 16 8 66t9 136l16 244l12 412v147q-100 25 -100 62zM207 1411 q0 35 25.5 60.5t60.5 25.5q37 0 61.5 -24.5t24.5 -61.5t-24.5 -61.5t-61.5 -24.5t-61.5 24.5t-24.5 61.5zM498 578q0 35 24.5 59.5t59.5 24.5t59.5 -24.5t24.5 -59.5t-24.5 -59.5t-59.5 -24.5t-59.5 24.5t-24.5 59.5z" />
<glyph unicode="&#xfb2e;" horiz-adv-x="966" d="M68 1026q0 72 10 94q14 39 69 39l54 -4q0 86 35 201q33 113 86 180q43 76 145 76q133 0 133 -109q0 -61 -115 -133q-160 -96 -211 -215l218 6q184 8 260 -69q137 -137 137 -430q0 -270 -135 -469q-88 -125 -179 -125q-84 0 -83 75q0 43 40 70q119 59 191 165.5t72 235.5 q0 248 -263 248h-190q-90 -133 -90 -182q0 -14 5 -41t15 -68l27 -114q43 -176 43 -228q0 -37 -2 -62.5t-10 -47t-23.5 -42t-42.5 -46.5q-49 -53 -90 -54q-53 0 -53 129l-4 267q-2 221 16 299q10 39 27 69q8 12 26.5 43t51.5 82l-48 -2q-122 -6 -122 162zM268 -190h388v-109 h-388v109z" />
<glyph unicode="&#xfb2f;" horiz-adv-x="966" d="M68 1026q0 72 10 94q14 39 69 39l54 -4q0 86 35 201q33 113 86 180q43 76 145 76q133 0 133 -109q0 -61 -115 -133q-160 -96 -211 -215l218 6q184 8 260 -69q137 -137 137 -430q0 -270 -135 -469q-88 -125 -179 -125q-84 0 -83 75q0 43 40 70q119 59 191 165.5t72 235.5 q0 248 -263 248h-190q-90 -133 -90 -182q0 -14 5 -41t15 -68l27 -114q43 -176 43 -228q0 -37 -2 -62.5t-10 -47t-23.5 -42t-42.5 -46.5q-49 -53 -90 -54q-53 0 -53 129l-4 267q-2 221 16 299q10 39 27 69q8 12 26.5 43t51.5 82l-48 -2q-122 -6 -122 162zM276 -190h388v-109 h-158l-6 -92q0 -23 26 -62q29 -41 29 -61q0 -37 -24.5 -61.5t-61.5 -24.5q-35 0 -59.5 24.5t-24.5 61.5q0 25 27 63q29 41 28 60l-6 92h-158v109z" />
<glyph unicode="&#xfb30;" horiz-adv-x="966" d="M68 1026q0 72 10 94q14 39 69 39l54 -4q0 86 35 201q33 113 86 180q43 76 145 76q133 0 133 -109q0 -61 -115 -133q-160 -96 -211 -215l218 6q184 8 260 -69q137 -137 137 -430q0 -270 -135 -469q-88 -125 -179 -125q-84 0 -83 75q0 43 40 70q119 59 191 165.5t72 235.5 q0 248 -263 248h-190q-90 -133 -90 -182q0 -14 5 -41t15 -68l27 -114q43 -176 43 -228q0 -37 -2 -62.5t-10 -47t-23.5 -42t-42.5 -46.5q-49 -53 -90 -54q-53 0 -53 129l-4 267q-2 221 16 299q10 39 27 69q8 12 26.5 43t51.5 82l-48 -2q-122 -6 -122 162zM551 221 q0 35 24.5 59.5t59.5 24.5t59.5 -24.5t24.5 -59.5t-24.5 -59.5t-59.5 -24.5t-59.5 24.5t-24.5 59.5z" />
<glyph unicode="&#xfb31;" horiz-adv-x="759" d="M-20 57q0 143 40 183q8 25 130 24q403 0 403 103q0 53 -131 163q-72 55 -60 82l89 238q-6 23 -23 20l-178 -16h-88q-84 0 -117 61q-23 41 -22 134q0 94 22 200l80 11q12 -57 31 -76q37 -41 125 -37l125 2h229q-23 -104 -44.5 -183t-43.5 -139q23 -41 35 -62.5t16 -29.5 q16 -37 28.5 -60.5t18.5 -39.5q37 -66 37 -143q0 -127 -78 -250q-106 -174 -328 -240q-72 -20 -129 -31.5t-100 -11.5q-67 0 -67 98zM334 576q0 35 24.5 59.5t59.5 24.5t59.5 -24.5t24.5 -59.5t-24.5 -59.5t-59.5 -24.5t-59.5 24.5t-24.5 59.5z" />
<glyph unicode="&#xfb32;" horiz-adv-x="759" d="M164 580q0 35 24.5 59.5t59.5 24.5t59.5 -24.5t24.5 -59.5t-24.5 -59.5t-59.5 -24.5t-59.5 24.5t-24.5 59.5zM14 80q6 8 12 13l7 7q66 18 78 86q33 168 194 168q72 0 131 -35l109 -61q12 14 12 23q0 219 -61 385q-14 31 -28.5 56.5t-31.5 47.5q-53 70 -153 113 q-66 25 -66 71q0 47 37 133q49 106 102 107q63 0 156 -74q109 -90 135 -291q6 -37 8 -119.5t2 -211.5v-207l-2 -234q0 -68 -53 -61q-29 0 -33 4q-12 0 -12 100v60q0 45 -78 45q-25 0 -46 -15.5t-38.5 -40t-34 -53t-32.5 -55.5q-49 -59 -131 -59q-39 0 -107 28q-76 35 -76 70 z" />
<glyph unicode="&#xfb33;" horiz-adv-x="899" d="M57 1026q0 98 2 109q4 25 9.5 54.5t11.5 70.5l80 2q0 -74 69 -93q35 -10 108 -14t183 0l301 2q29 -12 29 -59q0 -139 -98 -213q8 -31 8 -109q0 -31 -4 -62.5t-11 -62.5l-116 -467q-29 -123 -37 -147q-18 -63 -62 -64q-51 0 -114 64q-61 68 -62 121q0 25 13.5 61.5 t38.5 87.5q10 20 29.5 58t51.5 98l150 282q14 35 19.5 53.5t5.5 22.5l-3 51l-411 -16q-106 -4 -148.5 32t-42.5 138zM330 514q0 35 24.5 59.5t59.5 24.5t59.5 -24.5t24.5 -59.5t-24.5 -59.5t-59.5 -24.5t-59.5 24.5t-24.5 59.5z" />
<glyph unicode="&#xfb34;" horiz-adv-x="1036" d="M84 1030q0 53 10 112.5t27 121.5h74q20 -104 100 -105l264 -2q176 -4 252 -86q141 -145 141 -471q0 -57 -18 -180q-8 -51 -13.5 -82t-9.5 -43q-25 -80 -80 -80q-29 0 -55 21.5t-26 50.5q0 8 71 164q35 74 35 151q0 170 -139 225q-74 33 -271 33h-120q-119 0 -152 6 q-90 19 -90 164zM104 496q0 49 4.5 91t8.5 79h76q0 -252 239 -334q94 -33 113 -68q23 -35 22 -139q0 -156 -82 -156q-25 0 -73 19q-308 111 -308 508zM504 535q0 35 24.5 59.5t59.5 24.5t59.5 -24.5t24.5 -59.5t-24.5 -59.5t-59.5 -24.5t-59.5 24.5t-24.5 59.5z" />
<glyph unicode="&#xfb35;" horiz-adv-x="552" d="M47 942q0 66 43 152q49 102 105 102q53 0 122 -57q121 -92 127 -285q2 -33 2 -63v-66v-73q0 -32 -2 -54l-14 -303q-2 -29 -4 -74t-4 -110q-8 -68 -23 -91q0 -33 -69 -32q-23 0 -19 61l11 242q10 203 -25 319q-49 156 -182 252q-68 49 -68 80zM76 553q0 35 24.5 59.5 t59.5 24.5t59.5 -24.5t24.5 -59.5t-24.5 -59.5t-59.5 -24.5t-59.5 24.5t-24.5 59.5z" />
<glyph unicode="&#xfb36;" horiz-adv-x="485" d="M66 967q0 82 104 159q88 68 141 68q47 0 60 -35l24 -88q23 -39 23 -82q0 -35 -13.5 -65.5t-35 -61.5t-48 -61.5t-53.5 -63.5q-14 -25 -14 -37q0 -23 10 -59.5t10 -58.5q12 -45 17.5 -90.5t5.5 -92.5q0 -92 -2 -153.5t-8 -93.5q-25 -178 -121 -179q-39 0 -33 25l12 145 l13 232q6 125 -21 282q-6 33 -15 73t-22 91l-20 76zM152 621q0 35 24.5 59.5t59.5 24.5t59.5 -24.5t24.5 -59.5t-24.5 -59.5t-59.5 -24.5t-59.5 24.5t-24.5 59.5z" />
<glyph unicode="&#xfb38;" horiz-adv-x="1105" d="M49 1008q0 51 62 135q59 82 106 82q57 0 113 -215q35 -139 51 -285.5t14 -302.5l-2 -127q68 -23 207 -23q74 0 137.5 23.5t108.5 67t70.5 103.5t25.5 136q0 125 -70 209q-80 94 -198 94q-82 0 -182 -63l-25 78q205 309 250 309q92 0 192 -137q133 -176 133 -435 q0 -266 -106 -452q-127 -229 -371 -230q-35 0 -73.5 5.5t-79.5 17.5q-12 4 -24.5 5t-22.5 5q-12 -61 -37 -137q0 -31 -58 -31l-43 4q29 147 43.5 279.5t14.5 255.5q0 111 -12.5 199t-41.5 153q-27 76 -102 164q-80 80 -80 113zM649 576q0 35 24.5 59.5t59.5 24.5t59.5 -24.5 t24.5 -59.5t-24.5 -59.5t-59.5 -24.5t-59.5 24.5t-24.5 59.5z" />
<glyph unicode="&#xfb39;" horiz-adv-x="487" d="M45 1042q0 43 16.5 96.5t46.5 118.5h72l-4 -28q0 -76 148 -135q37 -16 59 -30.5t37 -27.5q47 -39 47 -104q0 -258 -217 -475q-27 0 -45 24l-23 29q72 78 94 117q35 63 35 114q0 61 -71 86q-195 55 -195 215zM43 615q0 35 24.5 59.5t59.5 24.5t59.5 -24.5t24.5 -59.5 t-24.5 -59.5t-59.5 -24.5t-59.5 24.5t-24.5 59.5z" />
<glyph unicode="&#xfb3a;" horiz-adv-x="829" d="M53 1034q0 104 19 234l94 8q0 -45 35 -86q25 -31 209 -31q78 0 131 -7t84 -19q100 -45 100 -193q0 -23 -4 -44.5t-8 -43.5l-21 -72q-33 -117 -30 -180l4 -70l36 -374l37 -316q8 -61 11.5 -104t3.5 -68q0 -117 -105 -205q-53 -47 -92 -47q-55 0 -55 121l2 869 q0 86 11 156.5t34 131.5l57 158q-4 18 -12 18l-137 -6h-138q-147 0 -186 19q-80 32 -80 151zM330 465q0 35 24.5 59.5t59.5 24.5t59.5 -24.5t24.5 -59.5t-24.5 -59.5t-59.5 -24.5t-59.5 24.5t-24.5 59.5z" />
<glyph unicode="&#xfb3b;" horiz-adv-x="829" d="M49 1030q0 104 31 238l92 4q0 -80 55 -101q31 -14 140 -14q393 0 393 -483q0 -305 -166 -502q-174 -205 -479 -205q-16 0 -32.5 19.5t-16.5 36.5v104q0 37 2 47q14 98 79 111q512 0 512 338q0 233 -237 233h-191q-98 0 -140 38t-42 136zM381 551q0 35 24.5 59.5 t59.5 24.5t59.5 -24.5t24.5 -59.5t-24.5 -59.5t-59.5 -24.5t-59.5 24.5t-24.5 59.5z" />
<glyph unicode="&#xfb3c;" horiz-adv-x="692" d="M27 1638q0 168 71 168q51 0 138 -49q94 -59 94 -100q-2 -23 -7.5 -56.5t-13.5 -80.5q-20 -125 -29.5 -209t-9.5 -129q109 -25 205 -135q129 -154 129 -390q0 -317 -174 -528q-152 -178 -315 -178q-66 0 -66 98l17 152q6 23 12 35t16 20t25.5 13t42.5 14q338 55 338 301 q0 100 -64 161q-37 35 -149 89q-154 74 -150 108l21 250q0 18 1 52t3 85q4 25 4 41v27q0 104 -88 170q-51 38 -51 71zM367 615q0 35 24.5 59.5t59.5 24.5t59.5 -24.5t24.5 -59.5t-24.5 -59.5t-59.5 -24.5t-59.5 24.5t-24.5 59.5z" />
<glyph unicode="&#xfb3e;" horiz-adv-x="1105" d="M49 72q0 39 43 78q211 139 211 415q0 182 -106 283l-95 88q-14 27 -14 37q0 43 51 131q57 90 92 90q68 0 123 -117q23 -43 35 -86t19 -86l12 -4l26 49q119 205 156 232q20 18 70 18q182 0 278 -201q72 -156 72 -362q0 -176 -59 -338q-35 -96 -87.5 -161.5t-117.5 -104.5 q-63 -41 -115 -41q-106 0 -106 100q0 61 73 103l127 53q180 86 181 287q0 70 -20.5 130t-59.5 105t-94.5 69.5t-122.5 24.5q-51 0 -101.5 -13t-99.5 -42l2 -96q8 -324 -88 -561q-76 -186 -182 -187q-43 0 -73 32t-30 75zM629 584q0 35 24.5 59.5t59.5 24.5t59.5 -24.5 t24.5 -59.5t-24.5 -59.5t-59.5 -24.5t-59.5 24.5t-24.5 59.5z" />
<glyph unicode="&#xfb40;" horiz-adv-x="622" d="M43 41l2 41q2 35 6 73t8 72q0 51 47 64q160 39 222 84q113 82 112 239q0 162 -145 220q-20 8 -49 19t-68 26q-78 33 -78 84q0 57 39 135q25 51 54.5 74.5t60.5 23.5q90 0 199 -129q82 -121 82 -365q0 -311 -117 -501q-147 -238 -340 -238q-23 0 -30 18.5t-5 59.5z M133 584q0 35 24.5 59.5t59.5 24.5t59.5 -24.5t24.5 -59.5t-24.5 -59.5t-59.5 -24.5t-59.5 24.5t-24.5 59.5z" />
<glyph unicode="&#xfb41;" horiz-adv-x="1036" d="M76 -139q0 29 5 72.5t19 109.5q12 66 19.5 118t7.5 91l-4 330q-4 92 27 143q6 10 27.5 39t62.5 80q0 8 -9 16q-111 20 -110 137q0 16 5 62.5t19 124.5l13 78l78 10q0 -84 63 -107q10 -4 55 -6t123 -4q86 -4 137.5 -5t67.5 -3q156 -18 233 -203q57 -143 58 -323 q0 -244 -94 -424q-115 -229 -334 -230q-209 0 -295 207q0 35 -43 35l-2 -41q-2 -31 5 -70t19 -86q2 -8 7.5 -27.5t13.5 -52.5q4 -16 6 -25t2 -11q0 -104 -102 -105q-80 0 -80 70zM238 588q0 -68 21.5 -126.5t59 -101.5t93 -66.5t123.5 -23.5q166 0 254 92.5t88 258.5 q-4 35 -8.5 57t-8.5 37q-33 92 -112 123q-29 10 -70 14t-100 4h-218l-75 -106q-47 -66 -47 -162zM528 584q0 35 24.5 59.5t59.5 24.5t59.5 -24.5t24.5 -59.5t-24.5 -59.5t-59.5 -24.5t-59.5 24.5t-24.5 59.5z" />
<glyph unicode="&#xfb43;" horiz-adv-x="966" d="M78 602q0 246 106 402q129 188 260 188q100 0 258 -80q176 -90 177 -178v-9q0 -5 -2 -14q-4 -18 -7.5 -32.5t-5.5 -24.5l-49 -172q-43 -147 -43 -309q0 -25 7 -86.5t20 -163.5l26 -186q4 -23 7.5 -62t7.5 -90l10 -125q2 -74 -90 -170q-68 -68 -113 -68q-23 0 -36 29 t-13 51l2 60l6 583q6 266 45 377l68 183q0 78 -162 157q-141 68 -235 68q-27 0 -50.5 -17.5t-42 -44t-29 -58.5t-10.5 -62q0 -133 150 -226q35 -20 57.5 -38.5t32.5 -32.5q33 -45 33 -144q0 -29 -57 -47q-43 -12 -84 -12q-129 0 -193 119q-51 94 -51 235zM569 639 q0 35 24.5 59.5t59.5 24.5t59.5 -24.5t24.5 -59.5t-24.5 -59.5t-59.5 -24.5t-59.5 24.5t-24.5 59.5z" />
<glyph unicode="&#xfb44;" horiz-adv-x="1036" d="M111 594q0 86 69 158l62 67q6 18 -27 31q-63 33 -82 78q-12 33 -12 114q12 137 31 211l84 11q0 -43 16 -66.5t48 -35t77 -13.5t104 -2q68 2 114 1t71 -5q168 -29 239 -221q41 -123 41 -254q0 -489 -438 -660q-115 -45 -260 -45q-76 0 -92 14q-31 18 -31 84q0 59 7 102.5 t20 72.5q0 27 110 26q254 0 387 55q201 84 201 304q0 156 -111 206q-35 16 -100.5 22.5t-161.5 6.5q-70 0 -115 -31q-59 -39 -59 -98q0 -29 23 -49q59 -63 59 -90q0 -39 -51 -109q-45 -63 -86 -63q-29 0 -78 51q-59 61 -59 127zM666 584q0 35 24.5 59.5t59.5 24.5 t59.5 -24.5t24.5 -59.5t-24.5 -59.5t-59.5 -24.5t-59.5 24.5t-24.5 59.5z" />
<glyph unicode="&#xfb46;" horiz-adv-x="692" d="M57 49q0 166 21 187q0 37 125 61q299 66 299 319q0 215 -219 240q-49 6 -81 15.5t-49.5 25.5t-24.5 46t-7 77q0 94 22 137q35 35 61.5 71t47.5 70q35 63 55.5 98.5t24.5 43.5q51 68 135 67q139 0 139 -86q0 -55 -88 -112q-57 -29 -97 -48.5t-65 -33.5q-74 -41 -73 -76 l2 -14l59 -4q133 -12 203 -181q29 -66 43 -136.5t14 -147.5q0 -442 -274 -637q-102 -74 -197 -74q-49 0 -65 23q-11 12 -11 69zM160 555q0 35 24.5 59.5t59.5 24.5t59.5 -24.5t24.5 -59.5t-24.5 -59.5t-59.5 -24.5t-59.5 24.5t-24.5 59.5z" />
<glyph unicode="&#xfb47;" horiz-adv-x="1036" d="M113 -510l4 729q0 43 4 100.5t8 131.5q25 125 96 264l86 -8q-37 -152 -37 -261q0 -72 9.5 -158.5t25.5 -193.5l17 -90q16 -104 25 -199.5t9 -183.5q0 -57 -65 -139q-63 -76 -123 -76q-59 0 -59 84zM113 995q0 121 30 254l80 8q12 -66 41 -86t98 -20h242q244 0 314 -285 q25 -102 24 -211q0 -403 -211 -557q-59 -45 -106 -45q-98 0 -99 76q0 45 72 86q246 98 246 395q0 197 -154 232q-23 6 -88 8t-174 2h-133q-182 0 -182 143zM516 584q0 35 24.5 59.5t59.5 24.5t59.5 -24.5t24.5 -59.5t-24.5 -59.5t-59.5 -24.5t-59.5 24.5t-24.5 59.5z" />
<glyph unicode="&#xfb48;" horiz-adv-x="899" d="M45 1030q0 109 23 234l77 4q0 -113 129 -111l115 2q117 4 182 -20q176 -55 220 -322q6 -47 10 -94t4 -98q0 -162 -68 -383q-86 -283 -215 -273l-30 4q-74 18 -74 88q0 66 59 105q231 211 232 450q0 248 -281 244l-188 -4q-195 -4 -195 174zM322 522q0 35 24.5 59.5 t59.5 24.5t59.5 -24.5t24.5 -59.5t-24.5 -59.5t-59.5 -24.5t-59.5 24.5t-24.5 59.5z" />
<glyph unicode="&#xfb49;" horiz-adv-x="1036" d="M78 924q0 6 7 25.5t19 54.5q10 23 33 83l68 181h78q0 -82 71 -107q45 -14 226 -14q117 0 157 14q29 12 53.5 36t40.5 63l87 -7l-52 -229q-25 -123 -153 -158q-63 -18 -240 -14l-188 4v-63v-93v-23q0 -13 -2 -30v-37v-28l-9 -256q20 -6 70 -15q53 -6 100.5 -10t90.5 -4 q287 0 286 358h90l7 -75q2 -43 -5.5 -100.5t-23.5 -127.5q-14 -70 -32.5 -124t-39.5 -93q-49 -90 -137 -121q-27 -10 -64.5 -13t-85.5 -3l-174 20q-74 0 -96 -65l-29 -82q-6 -18 -24 -21h-23l-51 7q4 16 8 66t9 136l16 244l12 412v147q-100 25 -100 62zM418 578 q0 35 24.5 59.5t59.5 24.5t59.5 -24.5t24.5 -59.5t-24.5 -59.5t-59.5 -24.5t-59.5 24.5t-24.5 59.5z" />
<glyph unicode="&#xfb4a;" horiz-adv-x="1036" d="M68 129v45q0 80 112 129l-22 303q-8 117 106 232q0 18 -14 18q-25 0 -46.5 14.5t-34.5 38t-20.5 51t-3.5 54.5l21 239l88 9q-12 -104 156 -107l165 -6q172 -2 242 -82q125 -137 125 -420q0 -172 -68 -350q-86 -231 -231 -231q-90 0 -90 86q0 47 115 102q176 115 176 307 q0 154 -49 215q-29 37 -81 54.5t-124 19.5l-205 2q-102 -102 -102 -193q0 -16 5 -43.5t15 -68.5l49 -193q20 -80 31.5 -117.5t11.5 -31.5q0 -109 -24 -152q-12 -35 -62 -49q-72 -12 -118 -19.5t-62 -7.5q-51 0 -57 60q-2 10 -3 32.5t-1 59.5zM575 570q0 35 24.5 59.5 t59.5 24.5t59.5 -24.5t24.5 -59.5t-24.5 -59.5t-59.5 -24.5t-59.5 24.5t-24.5 59.5z" />
<glyph unicode="&#xfb4b;" horiz-adv-x="552" d="M47 942q0 66 43 152q49 102 105 102q53 0 122 -57q121 -92 127 -285q2 -33 2 -63v-66v-73q0 -32 -2 -54l-14 -303q-2 -29 -4 -74t-4 -110q-8 -68 -23 -91q0 -33 -69 -32q-23 0 -19 61l11 242q10 203 -25 319q-49 156 -182 252q-68 49 -68 80zM258 1409q0 35 25.5 60.5 t60.5 25.5q37 0 61.5 -24.5t24.5 -61.5t-24.5 -61.5t-61.5 -24.5t-61.5 24.5t-24.5 61.5z" />
<glyph unicode="&#xfb4c;" horiz-adv-x="796" d="M-20 57q0 143 40 183q8 25 130 24q403 0 403 103q0 53 -131 163q-72 55 -60 82l89 238q-6 23 -23 20l-178 -16h-88q-84 0 -117 61q-23 41 -22 134q0 94 22 200l80 11q12 -57 31 -76q37 -41 125 -37l125 2h229q-23 -104 -44.5 -183t-43.5 -139q23 -41 35 -62.5t16 -29.5 q16 -37 28.5 -60.5t18.5 -39.5q37 -66 37 -143q0 -127 -78 -250q-106 -174 -328 -240q-72 -20 -129 -31.5t-100 -11.5q-67 0 -67 98zM289 1384v111h430v-111h-430z" />
<glyph unicode="&#xfb4d;" horiz-adv-x="829" d="M49 1030q0 104 31 238l92 4q0 -80 55 -101q31 -14 140 -14q393 0 393 -483q0 -305 -166 -502q-174 -205 -479 -205q-16 0 -32.5 19.5t-16.5 36.5v104q0 37 2 47q14 98 79 111q512 0 512 338q0 233 -237 233h-191q-98 0 -140 38t-42 136zM313 1384v111h430v-111h-430z" />
<glyph unicode="&#xfb4e;" horiz-adv-x="1036" d="M111 594q0 86 69 158l62 67q6 18 -27 31q-63 33 -82 78q-12 33 -12 114q12 137 31 211l84 11q0 -43 16 -66.5t48 -35t77 -13.5t104 -2q68 2 114 1t71 -5q168 -29 239 -221q41 -123 41 -254q0 -489 -438 -660q-115 -45 -260 -45q-76 0 -92 14q-31 18 -31 84q0 59 7 102.5 t20 72.5q0 27 110 26q254 0 387 55q201 84 201 304q0 156 -111 206q-35 16 -100.5 22.5t-161.5 6.5q-70 0 -115 -31q-59 -39 -59 -98q0 -29 23 -49q59 -63 59 -90q0 -39 -51 -109q-45 -63 -86 -63q-29 0 -78 51q-59 61 -59 127zM375 1384v111h430v-111h-430z" />
<glyph unicode="&#xfb4f;" horiz-adv-x="1159" d="M-50 1663q-1 27 3 48.5t8 31.5q14 41 29.5 62.5t50.5 58.5q18 20 31 30q4 4 10 1t6 -9t-1 -25.5t9 -27.5l137 -86q53 -33 47 -85t-61 -138q-18 -27 -29.5 -41.5t-18.5 -29.5t-11 -36.5t-4 -60.5l4 -88q2 -41 5 -66.5t14 -45t29.5 -39t51.5 -48.5l442 -397l58 90 q23 35 19.5 65.5t-19.5 46.5l-66 68q-47 49 -54 87t15 83q14 29 23.5 46.5t21 29.5t26.5 22.5t40 28.5q20 14 37.5 13t13.5 -33q-4 -25 11.5 -48.5t37.5 -40.5l144 -124q33 -25 54 -47.5t23.5 -54.5t-19 -80t-77.5 -126q-41 27 -80 30t-72.5 -9t-59 -34.5t-38.5 -47.5 l238 -207q39 -35 67.5 -62.5t40 -65.5t3 -95t-40.5 -150q-6 -16 -16.5 -32.5t-22 -27.5t-21.5 -10t-14 23q-4 35 -21.5 73t-48.5 62l-669 553l-101 88q-41 35 -59.5 81t-30.5 100q-2 6 4 65.5t16.5 136t21.5 154.5t22 123q4 23 8 47.5t-23 36.5l-90 43q-31 14 -42 38.5 t-12 51.5z" />
</font>
</defs>
</svg>
