<?xml version="1.0" standalone="no"?>
<!DOCTYPE svg PUBLIC "-//W3C//DTD SVG 1.1//EN" "http://www.w3.org/Graphics/SVG/1.1/DTD/svg11.dtd" >
<svg xmlns="http://www.w3.org/2000/svg">
<metadata>
This is a custom SVG webfont generated by Font Squirrel.
Copyright   : Copyright c 2010 by ELi Fried All rights reserved
Foundry     : ELi Fried
</metadata>
<defs>
<font id="PFTRashiLightRegular" horiz-adv-x="0" >
<font-face units-per-em="2048" ascent="1638" descent="-410" />
<missing-glyph horiz-adv-x="573" />
<glyph unicode=" "  horiz-adv-x="573" />
<glyph unicode="&#x09;" horiz-adv-x="573" />
<glyph unicode="&#xa0;" horiz-adv-x="573" />
<glyph unicode="!" horiz-adv-x="622" d="M125 125q0 59 38 98t97 39q53 0 95 -39t42 -94q0 -59 -40 -96t-99 -37q-74 0 -113 61q-4 8 -6 13.5t-4 9.5q-10 22 -10 45zM150 606v500q0 72 104 72q111 0 111 -50v-540q0 -25 -25 -74l-55 -113l-15 -22l-18 -2l-4 8q-4 8 -12.5 18.5t-18.5 26.5l-39 82l-22 53 q-6 8 -6 41z" />
<glyph unicode="&#x22;" horiz-adv-x="899" d="M150 791l2 14l55 252q25 104 45 145q43 78 115 78q86 0 86 -78q0 -51 -88 -198q-6 -10 -17.5 -29t-28.5 -45l-69 -99q-53 -72 -84 -71q-16 17 -16 31zM500 776l45 209l35 135q29 170 139 170q90 0 90 -88q0 -47 -59 -141l-54 -84l-129 -191q-12 -29 -37 -28q-30 0 -30 18 z" />
<glyph unicode="#" horiz-adv-x="1245" d="M57 375l35 178h172q18 102 32.5 187t33.5 190h-170l33 178h167l16 86q5 29 9 51.5t9 51t16 83.5h178l-51 -272h290q10 57 16.5 86t11.5 51.5t10 51t16 83.5h174l-49 -272h168l-33 -178h-170q-8 -53 -16.5 -98.5t-16.5 -89.5t-16.5 -90t-16.5 -99h170l-33 -178h-172 q-10 -53 -14 -84t-8 -57.5t-9 -57.5t-14 -82h-178l49 281h-293q-10 -53 -15 -84t-9 -57.5t-9 -57.5t-14 -82h-176l49 281h-172zM438 553h293q8 53 17.5 98t16.5 89t15 90.5t19 99.5h-291q-18 -100 -34 -187.5t-36 -189.5z" />
<glyph unicode="$" horiz-adv-x="899" d="M80 250q0 100 90 100q98 0 98 -119q0 -82 13 -102q8 -25 65 -45v432l-76 39q-74 37 -120 112.5t-46 159.5q0 154 103 240q57 49 139 68v135h62v-125q10 0 23 1t26 1q20 0 30 -2v123h66v-131q59 -14 117 -45q115 -63 114 -170q0 -92 -79 -93q-84 0 -82 82l2 66 q2 43 -56 76l-8 4l-8 4v-379l90 -39q78 -37 125 -120t47 -173q0 -154 -110 -258q-68 -61 -152 -82v-188l-66 4v174q-14 -2 -26 -3t-27 -1h-26v-170h-62v176q-39 8 -74.5 20.5t-68.5 34.5q-123 70 -123 193zM258 909q0 -72 47 -110q2 -2 41 -23v279q-88 -37 -88 -146zM408 72 q8 -2 16 -2h16h25q12 0 22 2v370q-14 6 -27.5 13.5t-29.5 17.5l-22 10v-411zM408 748l17 -8.5t19 -8.5l43 -20v366h-14q-39 0 -65 -6v-323zM553 86q98 39 98 164q0 86 -71 145q-4 0 -9 2q-4 2 -9 4t-9 7v-322z" />
<glyph unicode="%" horiz-adv-x="1796" d="M193 758q0 154 67 274q84 147 225 148q141 0 217 -146q59 -119 60 -272q0 -145 -66 -264q-78 -141 -217 -142q-139 0 -217 140q-69 112 -69 262zM362 754q0 -307 119 -308q109 0 109 392q0 39 -5 76.5t-16 74.5q-25 104 -84 105q-37 0 -61.5 -35t-40.5 -105 q-10 -43 -15.5 -93t-5.5 -107zM580 -43l589 1225h138l-584 -1225h-143zM1116 354q0 160 70 279q82 141 229 141q133 0 211 -139q33 -59 49.5 -122.5t16.5 -137.5q0 -154 -68 -271q-80 -139 -223 -139q-139 0 -219 129q-33 55 -49.5 118.5t-16.5 141.5zM1290 360 q0 -315 111 -315q117 0 117 326q0 322 -121 321q-63 0 -90 -143q-10 -45 -13.5 -91.5t-3.5 -97.5z" />
<glyph unicode="&#x26;" horiz-adv-x="1769" d="M102 -25v1223h744q166 0 262 -89t96 -253v-446h-205v426q0 190 -196 190h-498v-1051h-203zM557 0v776h205v-604h491q199 0 199 193v833h205v-856q0 -166 -96.5 -254t-262.5 -88h-741z" />
<glyph unicode="'" horiz-adv-x="552" d="M147 784l3 15l79 348q14 51 50 92t88 41q86 0 86 -94q0 -45 -74 -152l-37 -55l-8 -16l-92 -136q-49 -70 -64 -69q-31 -1 -31 26z" />
<glyph unicode="(" horiz-adv-x="765" d="M66 510q0 281 192 539q154 203 217 202q8 2 27.5 2t39 -3t34 -9t14.5 -14q0 -18 -10 -27q-72 -94 -120 -169t-73 -130q-39 -88 -59.5 -188.5t-20.5 -214.5q0 -332 221 -645l58 -82q6 -10 6 -21q0 -33 -23 -33q-4 0 -17 -2t-30.5 -3t-34 2t-28.5 16q-16 16 -42 40.5 t-61 59.5q-290 309 -290 680z" />
<glyph unicode=")" horiz-adv-x="765" d="M66 -250q0 10 6 21l57 82q221 313 221 645q0 115 -20.5 215t-59.5 188q-25 55 -72.5 130t-119.5 169q-10 8 -10 27q0 8 14 14t33.5 9t38 3t28.5 -2q63 0 217 -202q193 -258 193 -539q0 -371 -291 -680q-35 -35 -60.5 -59.5t-41.5 -40.5q-12 -12 -28.5 -15.5t-34 -2.5 t-31 3t-17.5 2q-22 0 -22 33z" />
<glyph unicode="*" horiz-adv-x="1173" d="M195 727q0 104 202 129q33 4 51.5 6t26.5 2q16 4 32.5 11.5t35.5 21.5q-43 20 -79 31.5t-63 11.5q-68 0 -127 33q-72 37 -71 98q0 84 82 84q84 0 172 -125q35 -51 61 -72q4 -4 14.5 -9t26.5 -15q0 55 -35 147q-35 94 -35 125q0 125 89 125q90 0 90 -123l-9 -43l-43 -131 q-14 -43 -14 -102q45 31 85 69.5t75 90.5q66 66 123 65q84 0 84 -88q0 -72 -103 -106q-20 -8 -94 -21l-31 -6q-70 -8 -116 -41q53 -33 204 -57q51 0 95.5 -33t44.5 -80q0 -39 -25.5 -64.5t-64.5 -25.5q-68 0 -148 96q-55 84 -131 129l4 -51q0 -29 47 -139q0 -14 9.5 -41 t9.5 -41q0 -121 -95 -121q-86 0 -86 104q0 39 41 148l23 65q4 16 8 35t4 41q-29 0 -86 -61q-8 -6 -26.5 -28.5t-46.5 -57.5q-78 -74 -132 -74q-79 0 -79 88z" />
<glyph unicode="+" horiz-adv-x="1521" d="M162 457v198h473v496h196v-496h480v-198h-480v-490h-196v490h-473z" />
<glyph unicode="," horiz-adv-x="485" d="M8 -158l64 310q20 90 30 110q27 55 91 55q37 0 68.5 -22.5t31.5 -56.5q0 -27 -35 -86l-209 -340l-16 -2q-6 2 -8 4l-5 4q-18 14 -12 24z" />
<glyph unicode="-" horiz-adv-x="759" d="M80 479v178h594v-178h-594z" />
<glyph unicode="." horiz-adv-x="485" d="M57 121q0 139 136 139q53 0 93 -42t40 -95t-40 -93t-93 -40q-57 0 -87 28q-49 40 -49 103z" />
<glyph unicode="/" horiz-adv-x="1009" d="M49 -43l621 1221h258l-613 -1215z" />
<glyph unicode="0" horiz-adv-x="899" d="M78 580q0 203 82 372q102 215 284 215q193 0 304 -211q43 -82 63 -177t20 -201q0 -43 -5 -90.5t-17 -100.5q-14 -70 -34.5 -120t-45.5 -85q-102 -193 -285 -192q-188 0 -288 213q-78 158 -78 377zM315 694q0 -78 7.5 -165t21.5 -185q43 -276 129 -276q119 0 119 399 q0 82 -7 165t-20 175q-43 274 -121 274q-66 0 -90 -69q-39 -48 -39 -318z" />
<glyph unicode="1" horiz-adv-x="899" d="M182 0v80q158 0 158 106l2 631q0 100 -16 127q-31 53 -136 53l-4 84l129 19q47 4 93.5 24.5t89.5 53.5h100l-4 -873q0 -111 10 -147q20 -74 82 -78l59 -4v-76h-563z" />
<glyph unicode="2" horiz-adv-x="899" d="M68 -2l8 84q47 49 90 93t84 85q223 233 295 410q35 88 35 141q0 90 -52.5 150.5t-140.5 60.5q-92 0 -156 -70q-37 -45 -73 -127l-80 35q127 319 401 320q76 0 140.5 -23.5t110.5 -66.5t71.5 -104.5t25.5 -137.5q0 -154 -188 -359q-47 -51 -126 -120.5t-187 -161.5 l-31 -29q6 -6 20 0q100 25 193 25h164q59 20 82 80h88l-88 -283z" />
<glyph unicode="3" horiz-adv-x="899" d="M98 45l31 82q111 -49 205 -49q49 0 91 20.5t71.5 54t46 80t16.5 97.5q0 43 -12 84t-35 72.5t-55.5 50t-73.5 18.5q-31 0 -45 -6l-64 -23l-24 76q258 137 258 299q0 63 -43 102t-105 39q-76 0 -180 -77l-47 71q170 143 344 144q106 0 189 -58q88 -63 88 -166 q0 -174 -242 -260q10 -10 35 -10q59 -6 107 -34.5t83 -72.5t54.5 -99.5t19.5 -114.5q0 -170 -125 -277q-121 -109 -293 -108q-72 0 -144.5 16t-150.5 49z" />
<glyph unicode="4" horiz-adv-x="899" d="M59 319v109l498 762h125l-4 -758l24 -2q70 0 70 78h72l-27 -189l-139 3v-105l4 -59q2 -47 49 -68q18 -8 84 -8v-78h-518v78q74 0 90 8q39 14 47 68l6 168zM156 430l12 -6l268 8v428z" />
<glyph unicode="5" horiz-adv-x="899" d="M80 55l37 74q100 -51 182 -51q63 0 116.5 19.5t92.5 54t61.5 85t22.5 111.5q0 49 -18.5 93t-51.5 76t-77 51.5t-93 19.5q-82 0 -168 -45l-67 49l131 577h364q88 0 103 45h78l-48 -233h-442l-45 -172l6 -12l39 14q20 10 90 10q168 0 281 -112q117 -111 117 -277 q0 -215 -181 -340q-143 -100 -303 -100q-114 0 -227 63z" />
<glyph unicode="6" horiz-adv-x="899" d="M80 500q0 272 203 469q205 201 475 200l-19 -77q-135 -18 -243 -113q-129 -102 -129 -227l32 8q31 16 111 16q147 0 231 -121q80 -111 80 -258q0 -164 -98 -280q-109 -127 -260 -127q-188 0 -293 168q-90 145 -90 342zM328 475q0 -123 28 -237q45 -168 123 -168 q25 0 53.5 22.5t34.5 46.5q10 49 13.5 94.5t3.5 88.5q0 348 -156 348q-70 0 -90 -70q-10 -29 -10 -125z" />
<glyph unicode="7" horiz-adv-x="899" d="M104 838l35 135l54 219h69q0 -31 60 -31h493l-6 -117q-276 -596 -277 -1044h-217l-32 -2q12 76 27.5 140.5t37.5 121.5q63 186 150.5 364.5t203.5 352.5q-39 -10 -172 -14l-211 -7q-109 -16 -126 -118h-89z" />
<glyph unicode="8" horiz-adv-x="899" d="M90 276q0 184 168 291q-4 4 -6 7.5t-6 7.5q-4 0 -6 2q-125 96 -125 264q0 74 26.5 137.5t74.5 108.5t112.5 70.5t140.5 25.5q129 0 227 -78q109 -84 109 -211q0 -160 -160 -239q0 -10 14 -19q2 -4 19 -8q147 -88 147 -295q0 -154 -110 -258q-109 -96 -269 -96 q-145 0 -245 69q-111 76 -111 221zM268 309q0 -80 15 -116q43 -121 172 -121q35 0 68.5 11t60 31.5t43 48t16.5 62.5q0 106 -88 176q-37 29 -109 62q-70 35 -106 61q-72 -72 -72 -215zM276 952q0 -51 58 -114q47 -55 106 -84l115 -58q82 74 82 197q0 205 -170 205 q-191 -1 -191 -146z" />
<glyph unicode="9" horiz-adv-x="899" d="M70 774q0 158 102 279q111 129 260 129q176 0 285 -160q94 -139 94 -326v-75q0 -68 -49 -193q-115 -295 -391 -393q-104 -37 -181 -33l-47 2l17 76q25 6 61.5 17.5t87.5 27.5q168 84 223 303l-10 2l-22 -14q-68 -27 -105 -27q-143 0 -237 125q-88 117 -88 260zM305 887 q0 -387 154 -387q106 0 106 219q0 70 -9 132t-32 122q-33 90 -59 108q-20 20 -49 21q-68 0 -97 -103q-8 -29 -11 -56t-3 -56z" />
<glyph unicode=":" horiz-adv-x="485" d="M55 121q0 57 40 98t100 41q59 0 93 -40t34 -99q0 -53 -39 -91t-93 -38q-61 0 -100 43q-35 31 -35 86zM59 715q0 59 37 99t97 40q59 0 98 -38t39 -97q0 -53 -39 -92t-94 -39l-58 6l-10 4q-70 33 -70 117z" />
<glyph unicode=";" horiz-adv-x="485" d="M4 -162q0 25 8 45l64 273q10 41 18 67.5t12 38.5q31 53 84 53h19q29 -6 41 -12q41 -25 41 -67q0 -23 -45 -107q-20 -23 -68 -109l-121 -200q-10 -10 -24 -10q-8 2 -23 16zM53 723q0 53 34 95t87 42q59 0 100 -37t41 -96q0 -139 -133 -139q-59 0 -94 38t-35 97z" />
<glyph unicode="&#x3c;" horiz-adv-x="1105" d="M66 580l763 571l103 -164l-549 -412l547 -423l-103 -172z" />
<glyph unicode="=" horiz-adv-x="1165" d="M156 307v185h845v-185h-845zM156 635v182h845v-182h-845z" />
<glyph unicode="&#x3e;" horiz-adv-x="1105" d="M66 987l102 164l764 -571l-762 -600l-102 172l546 423z" />
<glyph unicode="?" horiz-adv-x="829" d="M41 932q0 84 119 172q88 68 196 67q121 0 205 -69q90 -78 90 -193q0 -109 -147 -252q-88 -88 -88 -190q0 -45 8 -61l4 -17l-6 -10l-6 -8q-33 0 -54 45l-20 53q-14 41 -14 100q0 41 9 78t25 76q10 20 30 55t50 82q47 70 47 127q0 51 -31.5 88t-82.5 37q-61 0 -113 -82 q-39 -72 -39 -145q0 -43 -28 -43q-33 0 -91 30q-63 33 -63 60zM262 121q0 57 39 98t98 41t96 -38t37 -97t-35.5 -98t-95.5 -39q-53 0 -96 39t-43 94z" />
<glyph unicode="@" horiz-adv-x="1529" d="M29 432q0 131 82 281q102 193 307 317q205 129 418 129q285 0 448 -166q166 -164 166 -448q0 -104 -70 -242q-72 -139 -151 -190q-63 -39 -168 -39q-145 0 -180 139q-104 -141 -242 -141q-213 0 -213 266q0 109 68 231q63 117 159 185q76 57 142 57q82 0 116 -18 q45 -20 78 -88l23 83h149l-141 -538q-2 -10 -2 -19.5t-2 -17.5q0 -66 88 -66q94 0 172 111q111 160 110 299q0 233 -145 385q-143 150 -383 150q-186 0 -350 -109t-246 -274q-68 -141 -67 -336q0 -184 90 -324q94 -147 260 -211q98 -37 188 -37q156 0 246 19q127 25 225 94 l31 -47q-186 -137 -485 -137q-250 0 -471 184q-250 209 -250 518zM584 311q0 -168 96 -168q80 0 147 82q55 72 80 158q45 160 45 211q0 53 -20 92q-27 51 -72 51q-86 0 -180 -123q-96 -127 -96 -303z" />
<glyph unicode="A" horiz-adv-x="1394" d="M37 0v49h184l463 1290h37l463 -1290h186v-49h-637v49h213l-129 357h-411l-127 -357h245v-49h-487zM424 455h375l-189 518z" />
<glyph unicode="B" horiz-adv-x="1261" d="M51 0v49h182v1223h-182v49h625q164 0 291 -72q150 -82 149 -239q0 -225 -285 -293q133 -31 232 -121q100 -100 100 -236q0 -186 -149 -280q-123 -80 -322 -80h-641zM457 49h219q141 0 200.5 72t59.5 215v47q0 305 -260 305h-219v-639zM457 737h219q121 0 174 68 q45 57 45 188v33q0 246 -219 246h-219v-535z" />
<glyph unicode="C" horiz-adv-x="1292" d="M72 662q0 272 192 477q193 205 465 204q195 0 332 -100l76 72q20 18 34 18q25 0 25 -39v-315q0 -33 -18 -33q-14 0 -21 17l-4 10q-127 317 -424 317q-379 0 -379 -524v-217q0 -532 369 -533q285 0 457 369q12 27 28 27q20 0 21 -29v-375q0 -23 -23 -22q-12 0 -24 12 l-107 106q-145 -141 -352 -141q-264 0 -459 219q-188 214 -188 480z" />
<glyph unicode="D" horiz-adv-x="1396" d="M57 0v49h187v1223h-187v49h633q293 0 479 -174q190 -182 191 -471q0 -303 -182 -492q-182 -184 -488 -184h-633zM467 49h219q422 0 422 578v98q0 240 -90 379q-106 168 -332 168h-219v-1223z" />
<glyph unicode="E" horiz-adv-x="1210" d="M59 1272v49h953q63 0 63 -55v-295q0 -35 -24 -35q-25 0 -27 37q-6 111 -57 192q-63 106 -191 107h-311v-551h158q78 0 110 51q8 12 18.5 42t20.5 77q10 35 25 35q23 0 22 -33v-393q0 -35 -22 -35q-14 0 -37 72q-8 23 -14.5 45t-14.5 45q-31 45 -108 45h-158v-623h330 q133 0 196 88q47 70 84 234q10 47 33 47q25 0 25 -56v-290q0 -72 -70 -72h-1000v49h179v1223h-183z" />
<glyph unicode="F" horiz-adv-x="1155" d="M70 1272v49h952q61 0 61 -55v-295q0 -35 -24 -35q-25 0 -27 37q-6 111 -57 192q-63 106 -191 107h-311v-551h158q78 0 110 51q8 12 18.5 42t20.5 77q10 35 25 35q23 0 22 -33v-393q0 -35 -22 -35q-14 0 -37 72q-8 23 -14 45t-15 45q-31 45 -108 45h-158v-623h182v-49 h-581v49h176v1223h-180z" />
<glyph unicode="G" horiz-adv-x="1411" d="M68 653q0 276 190 484q190 207 465 206q205 0 336 -106l84 78q20 18 37 18q27 0 26 -30v-367q0 -27 -22 -27q-20 0 -29 25q-123 356 -432 356q-207 0 -301 -162q-78 -133 -78 -352v-237q0 -223 76 -355q94 -168 301 -168q266 0 266 254v174h-227v50h645v-50h-182v-57 q0 -213 -152 -324q-131 -100 -354 -100q-266 0 -461 213q-188 207 -188 477z" />
<glyph unicode="H" horiz-adv-x="1445" d="M59 0v49h183v1223h-183v49h588v-49h-182v-545h541v545h-183v49h586v-49h-180v-1223h180v-49h-586v49h183v627h-541v-627h182v-49h-588z" />
<glyph unicode="I" horiz-adv-x="749" d="M82 0v49h180v1223h-180v49h586v-49h-183v-1223h183v-49h-586z" />
<glyph unicode="J" horiz-adv-x="780" d="M16 -16q0 111 105 110q43 0 70.5 -26.5t27.5 -69.5q0 -94 -88 -107q43 -37 113 -36q84 0 112 53q23 41 23 133v1231h-195v49h576v-49h-158v-1157q0 -313 -344 -314q-80 0 -158 47q-84 56 -84 136z" />
<glyph unicode="K" horiz-adv-x="1417" d="M63 0v49h168v1223h-168v49h560v-49h-168v-1223h168v-49h-560zM449 723l595 549h-167v49h434v-49h-185l-485 -447l590 -776h172v-49h-615v49h175z" />
<glyph unicode="L" horiz-adv-x="1263" d="M53 0v49h183v1223h-183v49h606v-49h-200v-1223h424q131 0 194 88q47 70 84 234q10 47 33 47q27 0 27 -56v-290q0 -72 -72 -72h-1096z" />
<glyph unicode="M" horiz-adv-x="1681" d="M63 0v49h168v1223h-168v49h406l381 -979l369 979h405v-49h-168v-1223h168v-49h-559v49h168v1157l-455 -1206h-41l-454 1198v-1149h170v-49h-390z" />
<glyph unicode="N" horiz-adv-x="1386" d="M47 0v49h182v1223h-182v49h430l641 -963v914h-182v49h416v-49h-183v-1288h-86l-802 1210v-1145h182v-49h-416z" />
<glyph unicode="O" horiz-adv-x="1458" d="M76 655q0 274 194 482q195 207 467 206q272 0 467 -206q197 -207 197 -482q0 -274 -197 -483q-195 -209 -467 -209q-268 0 -469 213q-192 205 -192 479zM352 557q0 -541 385 -541q387 0 387 541v195q0 252 -67 374q-92 164 -320 164q-223 0 -315 -166q-70 -125 -70 -372 v-195z" />
<glyph unicode="P" horiz-adv-x="1142" d="M51 0v49h182v1223h-182v49h594q186 0 309 -86q139 -96 140 -274q0 -172 -131 -273q-119 -88 -297 -88h-209v-551h180v-49h-586zM457 649h209q221 0 221 277v69q0 276 -242 277h-188v-623z" />
<glyph unicode="Q" horiz-adv-x="1435" d="M76 653q0 274 194 482q193 209 467 208q272 0 467 -208q197 -207 197 -482q0 -238 -150 -430q-150 -197 -372 -248v-34q0 -344 327 -344q29 0 29 -23q0 -20 -29 -20q-293 0 -418 61q-164 80 -186 317l-4 43q-225 53 -375 248q-147 197 -147 430zM352 555q0 -543 385 -543 q387 0 387 543v195q0 250 -67 376q-90 164 -320 164q-223 0 -315 -168q-70 -125 -70 -372v-195z" />
<glyph unicode="R" horiz-adv-x="1325" d="M57 0v49h183v1223h-183v49h605q176 0 301 -76q150 -88 149 -254q0 -244 -307 -311q197 -53 258 -166q41 -78 47 -291q4 -102 12 -127q14 -43 76 -43q51 0 90 27q16 4 19 4q14 0 14 -14q0 -33 -98 -64q-78 -23 -142 -22q-104 0 -153 55t-60 160q-2 29 -5 80t-9 122 q-29 264 -225 265h-166v-617h182v-49h-588zM463 715h199q231 0 231 241v70q0 246 -231 246h-199v-557z" />
<glyph unicode="S" horiz-adv-x="1142" d="M109 8v348q0 35 24 35q23 0 33 -31q39 -152 160 -247q121 -96 274 -97q131 0 234 78q104 86 104 217q0 137 -117 191q-43 18 -89 34.5t-95 30.5q-154 45 -209 62q-289 88 -289 327q0 180 137 287q125 100 310 100q152 0 303 -77l55 65q14 20 31 21q23 0 22 -29v-346 q0 -29 -24 -29q-27 0 -29 27q-20 147 -114.5 231t-243.5 84q-119 0 -203 -53q-98 -66 -98 -176q0 -129 127 -176q27 -10 119 -36t257 -71q285 -76 285 -358q0 -199 -141 -328t-344 -129q-188 0 -346 127l-70 -92q-18 -25 -35 -25q-28 0 -28 35z" />
<glyph unicode="T" horiz-adv-x="1306" d="M55 932l33 348q4 41 51 41h1041q47 0 51 -41l33 -348h-64q-20 129 -74 219q-74 121 -184 121h-172v-1223h182v-49h-585v49h180v1223h-172q-111 0 -185 -121q-53 -90 -73 -219h-62z" />
<glyph unicode="U" horiz-adv-x="1345" d="M37 1272v49h586v-49h-181v-940q0 -150 81 -233t229 -83q147 0 239 84t92 232v940h-182v49h416v-49h-180v-940q0 -188 -127 -285q-115 -84 -308 -84q-205 0 -329 82q-154 94 -154 287v940h-182z" />
<glyph unicode="V" horiz-adv-x="1333" d="M14 1272v49h588v-49h-186l358 -967l338 967h-178v49h395v-49h-153l-453 -1292h-49l-475 1292h-185z" />
<glyph unicode="W" horiz-adv-x="1896" d="M47 1272v49h1346v-49h-131l-172 -449l200 -534l377 983h-176v49h383v-49h-148l-493 -1292h-41l-229 587l-224 -587h-41l-491 1292h-160zM426 1272l373 -979l135 352l-236 627h-272zM918 1272l143 -373l143 373h-286z" />
<glyph unicode="X" horiz-adv-x="1445" d="M45 0v49h188l398 584l-395 639h-187v49h625v-49h-185l279 -451l303 451h-197v49h461v-49h-192l-340 -504l442 -719h166v-49h-584v49h164l-327 531l-361 -531h203v-49h-461z" />
<glyph unicode="Y" horiz-adv-x="1396" d="M57 1272v49h609v-49h-187l336 -520l311 520h-196v49h448v-49h-174l-344 -576v-647h201v-49h-627v49h203v598l-406 625h-174z" />
<glyph unicode="Z" horiz-adv-x="1073" d="M63 0v61l721 1211h-391q-262 0 -272 -305h-47v354h940v-57l-729 -1215h387q162 0 235 101q61 86 70 258h51v-408h-965z" />
<glyph unicode="[" horiz-adv-x="507" d="M43 -193v1532h363v-184h-195v-1159h195v-189h-363z" />
<glyph unicode="\" horiz-adv-x="1009" d="M49 1178h258l621 -1221l-266 6z" />
<glyph unicode="]" horiz-adv-x="507" d="M43 -4h195v1159h-195v184h363v-1532h-363v189z" />
<glyph unicode="^" horiz-adv-x="919" d="M29 502l331 686h125l332 -686h-127l-268 553l-268 -553h-125z" />
<glyph unicode="_" horiz-adv-x="827" d="M0 -127h827v-131h-827v131z" />
<glyph unicode="a" horiz-adv-x="933" d="M86 154q0 150 168 223q127 55 295 57v219q0 102 -131 103q-125 0 -125 -35l6 -6q4 -4 12 -10q29 -29 29 -62q0 -76 -88 -76q-86 0 -86 80q0 84 117 125q74 27 184 27q283 0 283 -183v-464q0 -111 49 -111q55 0 90 68q8 20 22 20q16 0 17 -18q0 -63 -76 -103 q-66 -35 -129 -35q-133 0 -162 97q-90 -96 -237 -97q-238 1 -238 181zM270 203q0 -162 125 -162q37 0 94 33q59 35 60 65v258q-66 -4 -113 -14t-76 -25q-90 -46 -90 -155z" />
<glyph unicode="b" horiz-adv-x="1093" d="M57 0v49h162v1223h-162v49h361v-612q86 96 221 96q158 0 281 -127q125 -125 124 -285q0 -156 -120 -289q-121 -129 -279 -129q-133 0 -227 107v-82h-361zM418 170q86 -145 221 -145q168 0 168 325v88q0 137 -23 209q-41 109 -153 109q-127 0 -213 -135v-451z" />
<glyph unicode="c" horiz-adv-x="864" d="M59 383q0 176 134 297q131 119 313 119q96 0 180 -39q109 -47 109 -129q0 -90 -103 -90q-100 0 -100 86q0 33 18.5 62.5t18.5 31.5q0 12 -58 20q-23 4 -41 6.5t-28 2.5q-129 0 -174 -105q-29 -74 -29 -219v-84q0 -164 25 -221q43 -100 178 -101q98 0 177 51.5t109 143.5 q8 25 29 25q25 0 25 -25q0 -6 -2 -10l-2 -8q-18 -76 -101 -144q-96 -80 -241 -80q-178 0 -303 117q-134 121 -134 293z" />
<glyph unicode="d" horiz-adv-x="1093" d="M66 391q0 160 124 285q125 129 281 129q139 0 219 -88v555h-160v49h361v-1272h160v-49h-361v84q-96 -111 -225 -111q-152 0 -277 131q-122 131 -122 287zM303 344q0 -135 23 -207q37 -115 147 -114q121 0 217 145v448q-86 139 -211 140q-113 0 -153 -109 q-23 -68 -23 -207v-96z" />
<glyph unicode="e" horiz-adv-x="915" d="M57 379q0 164 121 291q123 129 285 129q180 0 289 -129q86 -104 86 -198q0 -29 -43 -30h-498v-188q0 -233 178 -234q223 0 324 218q12 25 28 24q20 0 21 -22q0 -16 -6 -31q-94 -236 -371 -236q-174 0 -293 119q-121 121 -121 287zM297 492h303q20 0 21 79q0 178 -156 179 q-168 0 -168 -191v-67z" />
<glyph unicode="f" horiz-adv-x="720" d="M41 0v49h158v680h-156v49h156v74q0 221 43 313q80 170 254 170q72 0 129 -32q72 -41 71 -105q0 -78 -75 -78q-82 0 -82 74q0 47 47 70q0 23 -86 22q-100 0 -101 -137v-371h170v-49h-170v-680h158v-49h-516z" />
<glyph unicode="g" horiz-adv-x="899" d="M63 -295q0 141 160 207q-156 39 -155 188q0 131 165 185q-158 84 -157 237q0 111 90 191q98 86 258 86q143 0 215 -49q80 80 160 79q88 0 88 -69q0 -66 -72 -66q-78 0 -78 64q0 10 2 14q-14 -8 -29.5 -21.5t-31.5 -29.5q94 -82 94 -199q0 -100 -76 -176 q-98 -102 -272 -102q-78 0 -121 14q-164 -41 -164 -123q0 -74 125 -74h340q264 0 264 -245q0 -166 -131 -254q-117 -80 -286 -80q-388 0 -388 223zM182 -258q0 -211 277 -211q115 0 203 45q111 55 110 160q0 78 -60.5 123t-142.5 45h-268q-47 0 -84 -56q-35 -59 -35 -106z M285 487q0 -86 22 -135q35 -59 117 -59t117 59q23 49 22 135v66q0 90 -22 139q-31 57 -117 58q-86 0 -117 -58q-23 -49 -22 -139v-66z" />
<glyph unicode="h" horiz-adv-x="1136" d="M53 0v49h150v1223h-150v49h348v-655q98 139 304 139q252 0 251 -187v-569h148v-49h-494v49h146v547q0 141 -117 141q-84 0 -160 -67q-78 -66 -78 -146v-475h148v-49h-496z" />
<glyph unicode="i" horiz-adv-x="620" d="M68 0v49h157v680h-157v49h356v-729h160v-49h-516zM205 1126q0 47 34.5 79t84.5 32q49 0 83.5 -31.5t34.5 -79.5q0 -47 -35.5 -77.5t-82.5 -30.5t-83 30.5t-36 77.5z" />
<glyph unicode="j" horiz-adv-x="577" d="M-43 -383q0 43 28.5 71.5t71.5 28.5q41 0 69 -26.5t28 -67.5q0 -59 -45 -86q16 -4 32 -4q55 0 87 37t32 94v1063h-170v49h371v-833q0 -184 -66 -305q-84 -154 -252 -154q-72 0 -123 33q-63 37 -63 100zM229 1126q0 47 35 79t84 32t84 -31.5t35 -79.5q0 -47 -35 -78.5 t-84 -31.5t-84 31.5t-35 78.5z" />
<glyph unicode="k" horiz-adv-x="1138" d="M55 0v49h170v1223h-170v49h369v-858h47l293 266h-166v49h414v-49h-172l-238 -219l371 -461h151v-49h-528v49h139l-278 365h-33v-365h149v-49h-518z" />
<glyph unicode="l" horiz-adv-x="602" d="M66 0v49h147v1223h-147v49h346v-1272h147v-49h-493z" />
<glyph unicode="m" horiz-adv-x="1607" d="M59 0v49h138v674h-138v49h338v-125q100 141 308 141q178 0 206 -145q98 145 310 145q211 0 211 -180v-559h137v-49h-471v49h133v539q0 135 -98 135q-80 0 -150 -70q-70 -68 -70 -145v-459h138v-49h-473v49h137v539q0 53 -10 84q-20 51 -91 51q-66 0 -141 -68 q-76 -63 -76 -131v-475h135v-49h-473z" />
<glyph unicode="n" horiz-adv-x="1120" d="M68 0v49h147v674h-147v47h346v-123q98 139 288 139q231 0 232 -186v-551h147v-49h-495v49h147v539q0 135 -108 135q-72 0 -142 -68t-69 -139v-467h147v-49h-493z" />
<glyph unicode="o" horiz-adv-x="942" d="M51 385q0 164 131 289t297 125q170 0 295 -125q129 -127 129 -289q0 -164 -129 -289q-129 -123 -295 -123t-297 123q-131 125 -131 289zM289 344q0 -156 22 -219q39 -104 168 -105q129 0 166 107q20 49 21 217v84q0 152 -23 215q-39 106 -164 107q-127 0 -166 -107 q-25 -61 -24 -215v-84z" />
<glyph unicode="p" horiz-adv-x="1054" d="M45 -477h137v1198h-137v51h338v-84q94 111 225 111q160 0 281 -129q123 -127 123 -287q0 -166 -123 -291q-121 -127 -285 -127q-139 0 -221 94v-536h137v-49h-475v49zM383 186q0 -66 78 -118q70 -49 139 -50q117 0 154 111q20 55 20 213v88q0 133 -22 205 q-37 115 -146 115q-76 0 -145 -56q-78 -59 -78 -131v-377z" />
<glyph unicode="q" horiz-adv-x="1073" d="M70 383q0 156 123 283t280 127q141 0 229 -107v84h336v-49h-137v-1198h137v-49h-473v49h137v538q-90 -96 -225 -96q-160 0 -284 129q-123 129 -123 289zM307 289q0 -129 25 -187q39 -86 149 -86q45 0 85 15.5t71 42t48 63.5t17 80v328q0 76 -73 141q-70 63 -154 64 q-168 0 -168 -248v-213z" />
<glyph unicode="r" horiz-adv-x="843" d="M37 0v49h147v674h-147v49h348v-92q90 109 238 108q84 0 135 -32q66 -41 65 -115q0 -49 -32.5 -77.5t-81.5 -28.5t-83 26.5t-34 73.5q0 63 51 90q6 2 6 6q0 8 -49 8q-68 0 -141 -55q-74 -53 -74 -119v-516h147v-49h-495z" />
<glyph unicode="s" horiz-adv-x="751" d="M88 8v207q0 25 23 25q18 0 24 -25q55 -195 266 -195q80 0 138 33q74 39 73 113q0 86 -125 129q-16 2 -196 43q-188 41 -189 207q0 59 22.5 106t61.5 80t91.5 50.5t113.5 17.5q96 0 160 -51l41 38l6 5q8 8 16 8q14 0 15 -23v-207q0 -20 -17 -20q-20 0 -22 18 q-14 82 -69.5 132.5t-141.5 50.5q-63 0 -115 -31q-61 -35 -61 -92q0 -61 123 -99q45 -10 89 -19t89 -20q199 -57 198 -245q0 -129 -81.5 -200t-212.5 -71q-156 0 -238 76l-39 -51q-8 -14 -20 -14q-23 -1 -23 24z" />
<glyph unicode="t" horiz-adv-x="712" d="M39 727v49h143v217l201 92v-309h205v-49h-205v-518q0 -176 127 -176q111 0 133 133q4 29 29 29q20 0 20 -25q0 -16 -2 -20q-35 -176 -252 -177q-119 0 -187.5 61.5t-68.5 178.5v514h-143z" />
<glyph unicode="u" horiz-adv-x="1138" d="M47 723v47h348v-588q0 -68 17 -96q23 -35 90 -35q78 0 153 64q80 63 80 137v471h-147v47h348v-721h147v-49h-348v123q-109 -145 -317 -146q-223 0 -223 218v528h-148z" />
<glyph unicode="v" horiz-adv-x="1034" d="M43 723v47h498v-47h-144l211 -471l205 471h-145v47h331v-47h-129l-319 -731h-29l-338 731h-141z" />
<glyph unicode="w" horiz-adv-x="1368" d="M47 723v47h479v-47h-135l178 -447l174 494h29l215 -496l152 449h-172v47h372v-47h-147l-256 -746h-29l-215 494l-178 -494h-31l-295 746h-141z" />
<glyph unicode="x" horiz-adv-x="1060" d="M53 723v47h465v-47h-129l182 -240l195 240h-125v47h334v-47h-139l-232 -283l299 -391h131v-49h-495v49h149l-199 262l-215 -262h146v-49h-357v49h146l248 305l-281 369h-123z" />
<glyph unicode="y" horiz-adv-x="1067" d="M53 721v49h514v-49h-155l229 -496l207 496h-152v49h351v-49h-142l-432 -1036q-82 -199 -246 -199q-117 0 -116 92q0 80 84 80q61 0 90 -55q12 -23 24 -23q66 0 115 121l121 293l-348 727h-144z" />
<glyph unicode="z" horiz-adv-x="847" d="M100 0v53l463 670h-196q-162 0 -185 -201h-43v248h633v-57l-455 -664h230q188 0 205 221h43v-270h-695z" />
<glyph unicode="{" horiz-adv-x="786" d="M43 614v50q84 25 135 81q61 61 62 142v352q0 150 65 203q61 49 215 49h174l15 -16l-58 -80h-112q-70 0 -93 -60q-10 -35 -10 -118v-302q0 -131 -45 -188q-45 -63 -172 -88q125 -20 172 -84q45 -57 45 -188v-304q0 -49 2 -79.5t6 -42.5q20 -55 95 -58h77h78l17 -22 l-60 -76h-131q-145 0 -209 55q-72 61 -71 201v354q0 76 -60 142q-55 59 -137 77z" />
<glyph unicode="|" horiz-adv-x="307" d="M49 -287v1805l176 34v-1804z" />
<glyph unicode="}" horiz-adv-x="786" d="M43 -139l16 22h78h78q74 2 94 58q4 12 6 42.5t2 79.5v304q0 131 45 188q47 63 173 84q-127 25 -173 88q-45 57 -45 188v302q0 84 -10 118q-23 59 -92 60h-113l-57 80l14 16h174q154 0 216 -49q66 -53 65 -203v-352q0 -80 61 -142q51 -57 136 -81v-50q-82 -18 -138 -77 q-59 -66 -59 -142v-354q0 -139 -72 -201q-66 -55 -209 -55h-131z" />
<glyph unicode="~" horiz-adv-x="1003" d="M70 391v23q0 111 65.5 185.5t177.5 74.5q72 0 119 -25l246 -164q47 -29 72 -28q82 0 81 131h66q0 -113 -70 -201q-78 -96 -184 -96q-70 0 -131 43l-213 147q-39 27 -80 27q-82 0 -82 -117h-67z" />
<glyph unicode="&#xa1;" d="M-369 -256q0 35 25 59.5t61 24.5q37 0 61.5 -23.5t24.5 -60.5t-24.5 -61.5t-61.5 -24.5t-61.5 24.5t-24.5 61.5zM-221 -494q0 35 26.5 61.5t61.5 26.5q37 0 61.5 -25.5t24.5 -62.5t-24.5 -61.5t-61.5 -24.5t-62.5 24.5t-25.5 61.5zM-70 -256q0 35 25 59.5t61 24.5 q37 0 61.5 -24.5t24.5 -59.5q0 -37 -24.5 -61.5t-61.5 -24.5q-35 0 -60.5 25.5t-25.5 60.5zM195 -256q0 37 25.5 60.5t62.5 23.5q35 0 60.5 -24.5t25.5 -59.5q0 -37 -25 -61.5t-61 -24.5q-37 0 -62.5 24.5t-25.5 61.5zM195 -506q0 35 25.5 60.5t60.5 25.5q37 0 61.5 -24.5 t24.5 -61.5t-25 -61.5t-61 -24.5q-37 0 -61.5 24.5t-24.5 61.5z" />
<glyph unicode="&#x5b1;" d="M-369 -256q0 35 25 59.5t61 24.5q37 0 61.5 -23.5t24.5 -60.5t-24.5 -61.5t-61.5 -24.5t-61.5 24.5t-24.5 61.5zM-221 -494q0 35 26.5 61.5t61.5 26.5q37 0 61.5 -25.5t24.5 -62.5t-24.5 -61.5t-61.5 -24.5t-62.5 24.5t-25.5 61.5zM-70 -256q0 35 25 59.5t61 24.5 q37 0 61.5 -24.5t24.5 -59.5q0 -37 -24.5 -61.5t-61.5 -24.5q-35 0 -60.5 25.5t-25.5 60.5zM195 -256q0 37 25.5 60.5t62.5 23.5q35 0 60.5 -24.5t25.5 -59.5q0 -37 -25 -61.5t-61 -24.5q-37 0 -62.5 24.5t-25.5 61.5zM195 -506q0 35 25.5 60.5t60.5 25.5q37 0 61.5 -24.5 t24.5 -61.5t-25 -61.5t-61 -24.5q-37 0 -61.5 24.5t-24.5 61.5z" />
<glyph unicode="&#xa2;" horiz-adv-x="1024" d="M109 440q0 225 131 363q133 139 350 139q6 0 24.5 -3t49.5 -7l90 254h71l-96 -277q154 -53 154 -172q0 -37 -23.5 -64.5t-60.5 -27.5q-78 0 -123 107l-207 -596q70 -25 117 -25q102 0 180 59q57 47 125 146l27 -17q-154 -338 -396 -337q-41 0 -110 18l-101 -283h-69 l104 308q-237 120 -237 415zM266 532q0 -217 140 -331l235 661q-47 18 -98 19q-137 0 -211 -111q-66 -97 -66 -238z" />
<glyph unicode="&#xa3;" horiz-adv-x="1024" d="M25 109q0 78 57 120q51 37 133 37q16 0 38.5 -3t51.5 -7l6 35q0 39 -4 86t-12 104q-6 47 -12.5 95.5t-14.5 95.5h-221v92h219q-8 33 -11 67.5t-3 69.5q0 207 94 338q109 145 305 145q100 0 176 -45q90 -53 91 -145q0 -45 -28 -77t-73 -32q-70 0 -78 64l-10 117 q-20 63 -108 63q-102 0 -154 -92q-41 -78 -41 -186q0 -49 6 -121t17 -166h256v-92h-250q2 -20 2 -44v-53q0 -102 -49 -348q166 -72 307 -71q88 0 151 39q10 6 42 29.5t83 64.5l13 -10q0 -25 -25 -76q-98 -217 -324 -217q-117 0 -290 125q-109 -127 -203 -127q-59 0 -98 34 t-39 91zM78 115q0 -74 82 -74q47 0 89 35t42 82q0 16 -51 24q-23 4 -39.5 7.5t-26.5 3.5q-96 0 -96 -78z" />
<glyph unicode="&#xa5;" horiz-adv-x="872" d="M119.998 841.594q0 110.395 100.796 174.593q-2.40039 2.39941 -3.60059 4.49902q-1.19922 2.10059 -3.59961 4.5q-2.39941 0 -3.59961 1.2002q-74.9971 57.5977 -74.9971 158.394q0 44.3984 15.8994 82.4971q15.8994 38.0977 44.6982 65.0967t67.4971 42.2988 q38.6982 15.2988 84.2969 15.2988q77.3965 0 136.194 -46.7979q65.3975 -50.3975 65.3975 -126.595q0 -95.9961 -95.9961 -143.395q0 -6 8.39941 -11.3994q1.2002 -2.39941 11.3994 -4.7998q88.1963 -52.7979 88.1963 -176.992q0 -92.3965 -65.9971 -154.794 q-65.3975 -57.5977 -161.394 -57.5977q-86.9961 0 -146.994 41.3984q-66.5967 45.5977 -66.5967 132.595zM226.793 861.393q0 -47.998 9 -69.5977q25.7988 -72.5967 103.196 -72.5967q20.999 0 41.0977 6.59961q20.0996 6.59961 35.999 18.8994t25.7988 28.7988 t9.89941 37.498q0 63.5977 -52.7979 105.596q-22.1992 17.3994 -65.3975 37.1992q-41.998 20.999 -63.5967 36.5977q-43.1992 -43.1973 -43.1992 -128.994zM231.594 1247.18q0 -30.5986 34.7979 -68.3975q28.1992 -32.998 63.5977 -50.3975l68.9971 -34.7988 q49.1982 44.3984 49.1982 118.195q0 122.995 -101.996 122.995q-114.595 -0.600586 -114.595 -87.5967z" />
<glyph unicode="&#xb4;" horiz-adv-x="872" d="M119.998 841.594q0 110.395 100.796 174.593q-2.40039 2.39941 -3.60059 4.49902q-1.19922 2.10059 -3.59961 4.5q-2.39941 0 -3.59961 1.2002q-74.9971 57.5977 -74.9971 158.394q0 44.3984 15.8994 82.4971q15.8994 38.0977 44.6982 65.0967t67.4971 42.2988 q38.6982 15.2988 84.2969 15.2988q77.3965 0 136.194 -46.7979q65.3975 -50.3975 65.3975 -126.595q0 -95.9961 -95.9961 -143.395q0 -6 8.39941 -11.3994q1.2002 -2.39941 11.3994 -4.7998q88.1963 -52.7979 88.1963 -176.992q0 -92.3965 -65.9971 -154.794 q-65.3975 -57.5977 -161.394 -57.5977q-86.9961 0 -146.994 41.3984q-66.5967 45.5977 -66.5967 132.595zM226.793 861.393q0 -47.998 9 -69.5977q25.7988 -72.5967 103.196 -72.5967q20.999 0 41.0977 6.59961q20.0996 6.59961 35.999 18.8994t25.7988 28.7988 t9.89941 37.498q0 63.5977 -52.7979 105.596q-22.1992 17.3994 -65.3975 37.1992q-41.998 20.999 -63.5967 36.5977q-43.1992 -43.1973 -43.1992 -128.994zM231.594 1247.18q0 -30.5986 34.7979 -68.3975q28.1992 -32.998 63.5977 -50.3975l68.9971 -34.7988 q49.1982 44.3984 49.1982 118.195q0 122.995 -101.996 122.995q-114.595 -0.600586 -114.595 -87.5967z" />
<glyph unicode="&#xa8;" horiz-adv-x="882" d="M118.798 1023.99q0 121.795 49.1982 223.19q61.1973 128.995 170.393 128.995q115.796 0 182.393 -126.596q25.7998 -49.1973 37.7988 -106.195q12 -56.998 12 -120.595q0 -25.7988 -3 -54.2979t-10.2002 -60.2979q-8.39941 -41.998 -20.6992 -71.9971 q-12.2988 -29.999 -27.2988 -50.998q-61.1973 -115.795 -170.993 -115.195q-112.795 0 -172.793 127.795q-46.7979 94.7959 -46.7979 226.191zM260.992 1092.38q0 -46.7979 4.5 -98.9961q4.5 -52.1973 12.8994 -110.995q25.7988 -165.593 77.3965 -165.593 q71.3975 0 71.3975 239.39q0 49.1982 -4.2002 98.9961q-4.19922 49.7979 -11.999 104.996q-25.7988 164.393 -72.5977 164.393q-39.5977 0 -53.9971 -41.3975q-23.3994 -28.7988 -23.3994 -190.793z" />
<glyph unicode="&#xac;" horiz-adv-x="882" d="M118.798 1023.99q0 121.795 49.1982 223.19q61.1973 128.995 170.393 128.995q115.796 0 182.393 -126.596q25.7998 -49.1973 37.7988 -106.195q12 -56.998 12 -120.595q0 -25.7988 -3 -54.2979t-10.2002 -60.2979q-8.39941 -41.998 -20.6992 -71.9971 q-12.2988 -29.999 -27.2988 -50.998q-61.1973 -115.795 -170.993 -115.195q-112.795 0 -172.793 127.795q-46.7979 94.7959 -46.7979 226.191zM260.992 1092.38q0 -46.7979 4.5 -98.9961q4.5 -52.1973 12.8994 -110.995q25.7988 -165.593 77.3965 -165.593 q71.3975 0 71.3975 239.39q0 49.1982 -4.2002 98.9961q-4.19922 49.7979 -11.999 104.996q-25.7988 164.393 -72.5977 164.393q-39.5977 0 -53.9971 -41.3975q-23.3994 -28.7988 -23.3994 -190.793z" />
<glyph unicode="&#xa9;" horiz-adv-x="1556" d="M78 676q0 297 203 504q203 205 501 204q295 0 496 -206q201 -207 201 -502t-201 -502q-201 -203 -496 -203q-299 0 -501 203q-203 203 -203 502zM190 676q0 -248 170 -436q172 -182 422 -183q246 0 418 189q166 180 166 430q0 252 -164 434q-170 188 -420 188 q-254 0 -422 -184q-170 -188 -170 -438zM389 694q0 176 135 291q125 104 310 105q61 0 145 -19q109 -23 108 -61v-144h-34q-8 88 -64 133q-72 49 -162 50q-143 0 -217 -105q-63 -88 -63 -242q0 -373 293 -372q170 0 247 176h33l-33 -144q-10 -35 -118 -55q-90 -18 -150 -18 q-197 0 -305 96q-125 112 -125 309z" />
<glyph unicode="&#xaa;" horiz-adv-x="1048" d="M72 90q0 35 116 186l148 185q-262 348 -262 368q0 23 20 23q8 0 33 -25q150 -147 399 -362q-59 -51 -143 -129t-201 -189q-80 -80 -88 -79q-22 -1 -22 22zM502 90q0 35 116 186l148 185q-262 348 -262 368q0 23 20 23q8 0 33 -25q150 -147 399 -362q-59 -51 -143 -129 t-201 -189q-80 -80 -88 -79q-22 -1 -22 22z" />
<glyph unicode="&#xbb;" horiz-adv-x="1048" d="M72 90q0 35 116 186l148 185q-262 348 -262 368q0 23 20 23q8 0 33 -25q150 -147 399 -362q-59 -51 -143 -129t-201 -189q-80 -80 -88 -79q-22 -1 -22 22zM502 90q0 35 116 186l148 185q-262 348 -262 368q0 23 20 23q8 0 33 -25q150 -147 399 -362q-59 -51 -143 -129 t-201 -189q-80 -80 -88 -79q-22 -1 -22 22z" />
<glyph unicode="&#xab;" horiz-adv-x="1048" d="M68 465q209 180 399 362q27 25 33 25q20 0 20 -23q0 -20 -262 -368l148 -185q117 -152 116 -186q0 -23 -22 -22q-8 0 -54 45q-86 86 -180 173t-198 179zM498 465q209 180 399 362q27 25 33 25q20 0 20 -23q0 -20 -262 -368l148 -185q117 -152 116 -186q0 -23 -22 -22 q-8 0 -53 45q-86 86 -180.5 173t-198.5 179z" />
<glyph unicode="&#xad;" horiz-adv-x="759" d="M80 479v178h594v-178h-594z" />
<glyph unicode="&#xae;" horiz-adv-x="894" d="M118.799 674.8l4.79883 50.3984q28.1992 29.3984 53.998 55.7979q25.7988 26.3984 50.3984 50.998q133.794 139.794 176.992 245.989q21 52.7979 21 84.5967q0 53.998 -31.499 90.2969q-31.499 36.2979 -84.2969 36.2979q-55.1973 0 -93.5957 -41.998 q-22.1992 -26.999 -43.7988 -76.1973l-47.998 20.999q76.1973 191.393 240.591 191.992q45.5977 0 84.2959 -14.0986q38.6982 -14.0996 66.2979 -39.8984q27.5986 -25.7988 42.8984 -62.6973q15.2988 -36.8994 15.2988 -82.4971q0 -92.3965 -112.795 -215.392 q-28.1992 -30.5986 -75.5977 -72.2969q-47.3975 -41.6982 -112.195 -96.8955l-18.5986 -17.3994q3.59961 -3.60059 11.999 0q59.998 14.999 115.795 14.999h98.3965q35.3984 12 49.1982 47.998h52.7979l-52.7979 -169.793z" />
<glyph unicode="&#xaf;" horiz-adv-x="858" d="M117.798 702.999l18.5986 49.1982q66.5977 -29.3994 122.995 -29.3994q29.3994 0 54.5977 12.2998q25.1992 12.2998 42.8984 32.3984q17.6992 20.0996 27.5986 47.998q9.90039 27.8994 9.90039 58.498q0 25.7988 -7.2002 50.3975q-7.19922 24.5996 -20.999 43.498 q-13.7998 18.8994 -33.2988 29.999t-44.0977 11.0996q-18.5996 0 -26.999 -3.59961l-38.3984 -13.7998l-14.3994 45.5986q154.793 82.1963 154.793 179.393q0 37.7988 -25.7988 61.1973q-25.7988 23.3994 -62.9971 23.3994q-45.5986 0 -107.995 -46.1982l-28.1992 42.5977 q101.996 85.7969 206.392 86.3965q63.5977 0 113.396 -34.7979q52.7979 -37.7988 52.7979 -99.5967q0 -104.396 -145.194 -155.993q6 -6 20.999 -6q35.3984 -3.59961 64.1973 -20.6992q28.7988 -17.0986 49.7979 -43.498q21 -26.3984 32.6992 -59.6973t11.6992 -68.6973 q0 -101.996 -74.9971 -166.193q-72.5967 -65.3975 -175.793 -64.7979q-43.1982 0 -86.6963 9.59961t-90.2959 29.3994z" />
<glyph unicode="&#xbf;" d="M-86 -254q0 35 24.5 59.5t61.5 24.5t61.5 -23.5t24.5 -60.5t-24.5 -61.5t-61.5 -24.5t-61.5 24.5t-24.5 61.5zM-86 -506q0 35 25.5 60.5t60.5 25.5q37 0 61.5 -24.5t24.5 -61.5t-24.5 -61.5t-61.5 -24.5t-61.5 24.5t-24.5 61.5z" />
<glyph unicode="&#x5b0;" d="M-86 -254q0 35 24.5 59.5t61.5 24.5t61.5 -23.5t24.5 -60.5t-24.5 -61.5t-61.5 -24.5t-61.5 24.5t-24.5 61.5zM-86 -506q0 35 25.5 60.5t60.5 25.5q37 0 61.5 -24.5t24.5 -61.5t-24.5 -61.5t-61.5 -24.5t-61.5 24.5t-24.5 61.5z" />
<glyph unicode="&#xd7;" horiz-adv-x="1130" d="M154 111l299 299l-299 301l110 110l299 -299l301 299l111 -110l-299 -301l297 -297l-113 -111l-297 297l-299 -301z" />
<glyph unicode="&#x2122;" horiz-adv-x="1130" d="M154 111l299 299l-299 301l110 110l299 -299l301 299l111 -110l-299 -301l297 -297l-113 -111l-297 297l-299 -301z" />
<glyph unicode="&#x131;" horiz-adv-x="692" d="M68 1012q0 225 30 225q10 -10 15.5 -17.5t9.5 -15.5q16 -53 82 -53h237q27 0 43.5 2t22.5 4q23 10 35 51l14 29l10 4q16 0 17 -18l8 -80l10 -96q0 -96 -31 -127q-25 -49 -96 -60h-121v-190q0 -59 7.5 -143.5t21.5 -198.5q12 -113 19.5 -197t7.5 -143q0 -109 -25 -264 q-35 -215 -92 -197q-8 6 -15 13l-14 14q-18 39 -18 84q-27 104 -27 262q0 41 4 92t13 110l32 260q16 129 23.5 254t7.5 244h-61q-86 0 -101 12q-69 25 -69 140z" />
<glyph unicode="&#x5e5;" horiz-adv-x="692" d="M68 1012q0 225 30 225q10 -10 15.5 -17.5t9.5 -15.5q16 -53 82 -53h237q27 0 43.5 2t22.5 4q23 10 35 51l14 29l10 4q16 0 17 -18l8 -80l10 -96q0 -96 -31 -127q-25 -49 -96 -60h-121v-190q0 -59 7.5 -143.5t21.5 -198.5q12 -113 19.5 -197t7.5 -143q0 -109 -25 -264 q-35 -215 -92 -197q-8 6 -15 13l-14 14q-18 39 -18 84q-27 104 -27 262q0 41 4 92t13 110l32 260q16 129 23.5 254t7.5 244h-61q-86 0 -101 12q-69 25 -69 140z" />
<glyph unicode="&#x152;" horiz-adv-x="774" d="M55 850l86 305h551l-86 -305h-551z" />
<glyph unicode="&#x5be;" horiz-adv-x="774" d="M55 850l86 305h551l-86 -305h-551z" />
<glyph unicode="&#x153;" d="M-266 1384v111h532v-111h-532z" />
<glyph unicode="&#x5bf;" d="M-266 1384v111h532v-111h-532z" />
<glyph unicode="&#x192;" d="M-86 -256q0 35 24.5 59.5t61.5 24.5t61.5 -23.5t24.5 -60.5t-24.5 -61.5t-61.5 -24.5t-61.5 24.5t-24.5 61.5z" />
<glyph unicode="&#x5b4;" d="M-86 -256q0 35 24.5 59.5t61.5 24.5t61.5 -23.5t24.5 -60.5t-24.5 -61.5t-61.5 -24.5t-61.5 24.5t-24.5 61.5z" />
<glyph unicode="&#x2c6;" horiz-adv-x="692" d="M68 170q0 61 13 85t71 32q348 86 348 315q0 203 -260 246q-125 0 -138 37q-4 10 -6 27.5t-2 41.5q0 92 23 170q0 18 35 31q0 113 65 231q76 131 184 132q31 0 58.5 -25t27.5 -53q0 -55 -79 -90q-115 -51 -146 -76q-55 -43 -65 -125q254 -92 325 -322q31 -102 31 -204 q0 -289 -176 -484q-137 -152 -244 -151q-65 0 -65 182z" />
<glyph unicode="&#x5e6;" horiz-adv-x="692" d="M68 170q0 61 13 85t71 32q348 86 348 315q0 203 -260 246q-125 0 -138 37q-4 10 -6 27.5t-2 41.5q0 92 23 170q0 18 35 31q0 113 65 231q76 131 184 132q31 0 58.5 -25t27.5 -53q0 -55 -79 -90q-115 -51 -146 -76q-55 -43 -65 -125q254 -92 325 -322q31 -102 31 -204 q0 -289 -176 -484q-137 -152 -244 -151q-65 0 -65 182z" />
<glyph unicode="&#x2d8;" horiz-adv-x="966" d="M25 893q0 16 67 84q41 49 60 113q8 20 30 124l4 23l7 8l10 4q8 0 20 -30l13 -29q20 -41 163 -35l250 4q96 2 123 58l8 12l2 8l13 8q31 0 30 -96q0 -141 -78.5 -215t-220.5 -74h-147l-184 4v-581h305q205 18 262 118l31 76q14 35 14 92l8 60l2 10q0 8 23 12q27 0 26 -67 q0 -158 -12 -234q-39 -270 -229 -336l-31 -10q-35 -10 -105.5 -12t-179.5 0l-114 4q-23 0 -36.5 -1t-22.5 -5t-19.5 -12.5t-26.5 -24.5l-24 -19q-39 0 -39 54q0 53 11 106t34 109q18 47 73 69v592l-65 -2q-55 -4 -55 31z" />
<glyph unicode="&#x5e9;" horiz-adv-x="966" d="M25 893q0 16 67 84q41 49 60 113q8 20 30 124l4 23l7 8l10 4q8 0 20 -30l13 -29q20 -41 163 -35l250 4q96 2 123 58l8 12l2 8l13 8q31 0 30 -96q0 -141 -78.5 -215t-220.5 -74h-147l-184 4v-581h305q205 18 262 118l31 76q14 35 14 92l8 60l2 10q0 8 23 12q27 0 26 -67 q0 -158 -12 -234q-39 -270 -229 -336l-31 -10q-35 -10 -105.5 -12t-179.5 0l-114 4q-23 0 -36.5 -1t-22.5 -5t-19.5 -12.5t-26.5 -24.5l-24 -19q-39 0 -39 54q0 53 11 106t34 109q18 47 73 69v592l-65 -2q-55 -4 -55 31z" />
<glyph unicode="&#x2d9;" horiz-adv-x="1036" d="M25 129q0 68 41 94q27 20 100 27q-68 154 -68 287q0 156 88 325q-115 35 -114 199q0 16 4 37.5t8 50.5q14 70 33 70l8 4l22 -29q27 -51 172 -45l97 6q160 6 264 -35q115 -49 186 -188q37 -68 53.5 -139.5t16.5 -149.5q0 -287 -209 -471q-55 -49 -88 -49q-29 6 -29 27 q0 33 60 63q84 41 141 154q53 98 53 208q0 293 -387 285l-229 -8q-63 -84 -64 -184q0 -96 62 -213q86 -166 94 -191q10 -29 10 -63q0 -43 -13 -81t-37 -66.5t-57.5 -46t-74.5 -17.5q-59 0 -101 40t-42 99z" />
<glyph unicode="&#x5ea;" horiz-adv-x="1036" d="M25 129q0 68 41 94q27 20 100 27q-68 154 -68 287q0 156 88 325q-115 35 -114 199q0 16 4 37.5t8 50.5q14 70 33 70l8 4l22 -29q27 -51 172 -45l97 6q160 6 264 -35q115 -49 186 -188q37 -68 53.5 -139.5t16.5 -149.5q0 -287 -209 -471q-55 -49 -88 -49q-29 6 -29 27 q0 33 60 63q84 41 141 154q53 98 53 208q0 293 -387 285l-229 -8q-63 -84 -64 -184q0 -96 62 -213q86 -166 94 -191q10 -29 10 -63q0 -43 -13 -81t-37 -66.5t-57.5 -46t-74.5 -17.5q-59 0 -101 40t-42 99z" />
<glyph unicode="&#x2db;" horiz-adv-x="45" d="M-258 1604l137 137l31 -31l-82 -82h217v-1628h-45v1583h-176l86 -86l-31 -31z" />
<glyph unicode="&#x200f;" horiz-adv-x="45" d="M-258 1604l137 137l31 -31l-82 -82h217v-1628h-45v1583h-176l86 -86l-31 -31z" />
<glyph unicode="&#x2dc;" horiz-adv-x="1036" d="M57 252q-6 162 45 328q35 117 60 127l10 6q29 0 29 -29l-15 -41q-16 -61 -25 -111.5t-9 -95.5q0 -35 18 -121l27 -135q43 -207 43 -346q0 -78 -31 -176q-39 -131 -98 -131q-43 0 -43 43q18 109 14 176l-4 94l-10 168zM84 1069q0 100 16 123q0 8 23 20q8 0 16 -9t19.5 -19 t25 -19.5t31.5 -9.5l219 4q125 2 193 -14q162 -43 245 -246q51 -121 52 -276q0 -291 -197 -463q-143 -129 -254 -129l-10 2q-18 12 -19 20l-2 8q0 25 27 31q381 119 381 457q0 332 -352 321l-226 -8q-55 -2 -65 4q-123 13 -123 203z" />
<glyph unicode="&#x5e7;" horiz-adv-x="1036" d="M57 252q-6 162 45 328q35 117 60 127l10 6q29 0 29 -29l-15 -41q-16 -61 -25 -111.5t-9 -95.5q0 -35 18 -121l27 -135q43 -207 43 -346q0 -78 -31 -176q-39 -131 -98 -131q-43 0 -43 43q18 109 14 176l-4 94l-10 168zM84 1069q0 100 16 123q0 8 23 20q8 0 16 -9t19.5 -19 t25 -19.5t31.5 -9.5l219 4q125 2 193 -14q162 -43 245 -246q51 -121 52 -276q0 -291 -197 -463q-143 -129 -254 -129l-10 2q-18 12 -19 20l-2 8q0 25 27 31q381 119 381 457q0 332 -352 321l-226 -8q-55 -2 -65 4q-123 13 -123 203z" />
<glyph unicode="&#x2dd;" horiz-adv-x="45" d="M0 0v1628h217l-82 82l31 31l137 -137l-137 -138l-31 31l86 86h-176v-1583h-45z" />
<glyph unicode="&#x200e;" horiz-adv-x="45" d="M0 0v1628h217l-82 82l31 31l137 -137l-137 -138l-31 31l86 86h-176v-1583h-45z" />
<glyph unicode="&#x590;" horiz-adv-x="1536" d="M240 514v127h1054v-127h-1054zM547 -176q0 109 102 174q-2 2 -3 4t-5 4q-2 0 -4 2q-74 57 -74 160q0 90 60.5 147.5t152.5 57.5q78 0 137 -47q63 -51 64 -127q0 -94 -94 -144q0 -8 8 -10q0 -2 10 -6q88 -53 88 -176q0 -94 -65 -156q-63 -57 -162 -57q-88 0 -148 41 q-67 45 -67 133zM588 1282l20 80l31 131h43q0 -18 35 -18h297l-4 -70q-166 -356 -166 -627h-131l-19 -2q16 94 39 158q74 221 213 430q-23 -4 -104 -8l-125 -4q-66 -10 -78 -70h-51zM655 -156q0 -49 9 -71q25 -72 104 -72q41 0 77 25.5t36 66.5q0 63 -54 107q-10 8 -26.5 17 t-38.5 20q-23 10 -38 19t-26 17q-43 -43 -43 -129zM659 229q0 -29 35 -67q31 -37 64 -51l69 -35q49 45 50 119q0 123 -103 122q-115 0 -115 -88z" />
<glyph unicode="&#x591;" d="M-168 -471q0 131 131 164v125h74v-125q133 -35 133 -164v-131h-76v11q0 7 2 24v43q0 147 -86 147q-104 0 -104 -135v-47q2 -14 2 -25v-18h-76v131z" />
<glyph unicode="&#x592;" d="M-186 1444q0 33 20.5 53.5t52.5 20.5q33 0 54.5 -20.5t21.5 -53.5q0 -31 -21.5 -52.5t-54.5 -21.5t-53 20.5t-20 53.5zM-76 1632q0 31 22.5 53.5t53.5 22.5q33 0 54.5 -21.5t21.5 -54.5t-21.5 -54.5t-54.5 -21.5t-54.5 21.5t-21.5 54.5zM37 1444q0 33 21.5 53.5 t54.5 20.5t53 -20.5t20 -53.5q0 -31 -20.5 -52.5t-52.5 -21.5q-31 0 -53.5 21.5t-22.5 52.5z" />
<glyph unicode="&#x593;" d="M-119 1456l156 76l-156 72l156 75l-156 72l156 76h84l-158 -76l158 -72l-158 -75l158 -72l-158 -76l158 -74h-84z" />
<glyph unicode="&#x594;" d="M-76 1452q0 33 21.5 53.5t54.5 20.5t54.5 -20.5t21.5 -53.5q0 -31 -21.5 -52.5t-54.5 -21.5t-54.5 20.5t-21.5 53.5zM-76 1677q0 31 22.5 53.5t53.5 22.5q33 0 54.5 -21.5t21.5 -54.5t-21.5 -53t-54.5 -20t-54.5 20t-21.5 53z" />
<glyph unicode="&#x595;" d="M-113 1378v375h76v-375h-76zM37 1452q0 33 21.5 53.5t54.5 20.5q31 0 52 -21.5t21 -52.5t-20.5 -52.5t-52.5 -21.5q-31 0 -53.5 21.5t-22.5 52.5zM37 1677q0 31 22.5 53.5t53.5 22.5t52 -22.5t21 -53.5q0 -33 -20.5 -53t-52.5 -20q-31 0 -53.5 21t-22.5 52z" />
<glyph unicode="&#x596;" d="M-41 -219q0 6 1 15t3 20h76q-2 -10 -3 -24.5t-1 -37.5q0 -98 63 -149q55 -49 156 -49v-78q-295 0 -295 303z" />
<glyph unicode="&#x597;" d="M-121 1534l123 156l119 -156l-119 -154z" />
<glyph unicode="&#x598;" d="M-258 1530q0 53 38 92t91 39q66 0 109 -53q18 -27 36.5 -51.5t40.5 -53.5q27 -49 70 -49q33 0 53.5 21.5t20.5 54.5q0 47 -54 69l21 56q90 -43 90 -125q0 -55 -39 -93t-92 -38q-66 0 -109 53q-16 27 -33.5 50.5t-33.5 49.5q-39 51 -80 52q-33 0 -53.5 -20.5t-20.5 -53.5 q0 -53 53 -72l-20 -55q-88 39 -88 127z" />
<glyph unicode="&#x599;" d="M-104 1702l90 78q35 -41 61.5 -84t35.5 -95.5t-5.5 -116t-61.5 -143.5l-49 27q20 39 30.5 82t4.5 86t-30.5 85t-75.5 81z" />
<glyph unicode="&#x59a;" d="M-150 -305l199 194h123l-199 -194l199 -205h-121z" />
<glyph unicode="&#x59b;" d="M-66 -266q0 29 18.5 48t45.5 19q66 0 65 -67q0 -63 -65 -64q-27 0 -45.5 18.5t-18.5 45.5zM-66 -442q221 0 222 204l-6 56h75q2 -10 3 -27.5t1 -44.5q0 -133 -86 -207q-70 -59 -209 -59v78z" />
<glyph unicode="&#x59c;" d="M-96 1544q0 125 137 225l55 -51q-111 -80 -110 -172q0 -84 75 -166h-96q-61 76 -61 164z" />
<glyph unicode="&#x59d;" d="M-96 1544q0 125 137 225l55 -51q-111 -80 -110 -172q0 -84 75 -166h-96q-61 76 -61 164z" />
<glyph unicode="&#x59e;" d="M-197 1544q0 125 138 225l55 -51q-111 -84 -111 -172q0 -82 78 -166h-98q-62 76 -62 164zM27 1544q0 123 139 225l53 -51q-111 -80 -110 -172q0 -84 75 -166h-94q-63 76 -63 164z" />
<glyph unicode="&#x59f;" d="M-496 1655q0 80 53.5 134t133.5 54q82 0 135 -54t53 -134q0 -61 -37 -111l123 -123l-41 -41l-123 123q-45 -39 -110 -39q-82 0 -134.5 52.5t-52.5 138.5zM-432 1655q0 -53 36 -88t87 -35q53 0 89 35t36 88q0 51 -36 86t-89 35q-51 0 -87 -35t-36 -86zM35 1421l123 123 q-39 39 -39 111q0 80 54 134t136 54q37 0 71 -15.5t59.5 -41t41 -60t15.5 -71.5q0 -82 -53.5 -136.5t-133.5 -54.5q-72 0 -110 39l-123 -123zM184 1655q0 -53 36 -88t89 -35q51 0 85 35t34 88q0 47 -36 84t-83 37q-53 0 -89 -34t-36 -87z" />
<glyph unicode="&#x5a0;" d="M-55 1421l123 123q-37 43 -37 111q0 80 54 134t134 54q39 0 73 -15.5t59.5 -41t40 -60t14.5 -71.5q0 -82 -53.5 -136.5t-133.5 -54.5q-72 0 -110 39l-123 -123zM96 1655q0 -53 35 -88t88 -35t86 35t33 88q0 47 -36 84t-83 37q-53 0 -88 -34t-35 -87z" />
<glyph unicode="&#x5a1;" d="M-39 1380v357h74v-172q0 -10 39 -11q76 0 76 111v37q-2 16 -3 23v12h76v-82q0 -70 -35 -111q-37 -55 -98 -55q-29 0 -55 10v-119h-74z" />
<glyph unicode="&#x5a3;" d="M-184 -463h153v281h76v-357h-229v76z" />
<glyph unicode="&#x5a4;" d="M-193 -352l173 170h108l-174 -170l174 -178h-106z" />
<glyph unicode="&#x5a5;" d="M-248 -442q217 0 217 202l-4 58h78q6 -90 6 -101q0 -236 -297 -235v76z" />
<glyph unicode="&#x5a6;" d="M-221 -520q111 80 110 170q0 80 -75 168h96q63 -82 63 -164q0 -121 -139 -225zM6 -520q111 82 111 170q0 72 -78 168h98q61 -78 62 -164q0 -119 -138 -225z" />
<glyph unicode="&#x5a7;" d="M-125 -264l64 53l186 33v-74l-139 -24l139 -220l-64 -53l-186 -33v76l137 23z" />
<glyph unicode="&#x5a8;" d="M-97 1731.5q5 11.5 15 20.5t20.5 14.5t16.5 -1.5q37 -39 62.5 -84t33.5 -97t-4 -111.5t-49 -126.5q-4 -8 -16.5 -8.5t-23.5 6t-18.5 14.5t-2.5 18q20 45 35.5 85t16.5 79t-17.5 81t-67.5 93q-6 6 -1 17.5z" />
<glyph unicode="&#x5a9;" d="M-408 1655q0 80 53.5 134t133.5 54t133 -54t53 -134q0 -57 -35 -111l123 -123l-43 -41l-121 123q-45 -39 -110 -39q-82 0 -134.5 52.5t-52.5 138.5zM-344 1655q0 -53 35 -88t88 -35t88 35t35 88q0 51 -35 86t-88 35t-88 -35t-35 -86z" />
<glyph unicode="&#x5aa;" d="M-168 -182h76q0 -10 -2 -38t-2 -44q0 -141 88 -142q106 0 106 134q0 16 -2 44.5t-2 45.5h76v-129q0 -131 -133 -166v-123h-74v123q-59 16 -95 61t-36 105v129z" />
<glyph unicode="&#x5ab;" d="M-139 1561l174 168h106l-174 -168l174 -179h-106z" />
<glyph unicode="&#x5ac;" d="M-195 1382v74h156v281h74v-355h-230z" />
<glyph unicode="&#x5ad;" d="M-41 -217q0 6 1 15t3 20h76q-2 -10 -3 -24.5t-1 -37.5q0 -98 63 -149q55 -49 156 -49v-78q-295 0 -295 303z" />
<glyph unicode="&#x5ae;" d="M-258 1530q0 53 38 92t91 39q66 0 109 -53q18 -27 36.5 -51.5t40.5 -53.5q27 -49 70 -49q33 0 53.5 21.5t20.5 54.5q0 47 -54 69l21 56q90 -43 90 -125q0 -55 -39 -93t-92 -38q-66 0 -109 53q-16 27 -33.5 50.5t-33.5 49.5q-39 51 -80 52q-33 0 -53.5 -20.5t-20.5 -53.5 q0 -53 53 -72l-20 -55q-88 39 -88 127z" />
<glyph unicode="&#x5af;" d="M-213 1614q0 92 60.5 153.5t152.5 61.5t153.5 -61.5t61.5 -153.5q0 -47 -16.5 -86t-46 -67.5t-68.5 -45t-84 -16.5q-88 0 -152 63q-61 62 -61 152zM-156 1614q0 -66 45 -115t111 -49t112 49t46 115t-46 115t-112 49t-111 -49t-45 -115z" />
<glyph unicode="&#x5b2;" d="M-354 -190h387v-109h-387v109zM141 -256q0 37 26 60.5t62 23.5q35 0 60.5 -24.5t25.5 -59.5q0 -37 -24.5 -61.5t-61.5 -24.5t-62.5 24.5t-25.5 61.5zM143 -506q0 35 26 60.5t60 25.5q37 0 61.5 -24.5t24.5 -61.5t-24.5 -61.5t-61.5 -24.5t-61.5 24.5t-24.5 61.5z" />
<glyph unicode="&#x5b3;" d="M-354 -190h387v-109h-158l-6 -92q0 -23 27 -62q29 -41 28 -61q0 -37 -24.5 -61.5t-61.5 -24.5q-35 0 -59.5 24.5t-24.5 61.5q0 25 27 63q29 41 29 60l-7 92h-157v109zM141 -256q0 37 26 60.5t62 23.5q35 0 60.5 -24.5t25.5 -59.5q0 -37 -24.5 -61.5t-61.5 -24.5 t-62.5 24.5t-25.5 61.5zM143 -506q0 35 26 60.5t60 25.5q37 0 61.5 -24.5t24.5 -61.5t-24.5 -61.5t-61.5 -24.5t-61.5 24.5t-24.5 61.5z" />
<glyph unicode="&#x221a;" d="M-354 -190h387v-109h-158l-6 -92q0 -23 27 -62q29 -41 28 -61q0 -37 -24.5 -61.5t-61.5 -24.5q-35 0 -59.5 24.5t-24.5 61.5q0 25 27 63q29 41 29 60l-7 92h-157v109zM141 -256q0 37 26 60.5t62 23.5q35 0 60.5 -24.5t25.5 -59.5q0 -37 -24.5 -61.5t-61.5 -24.5 t-62.5 24.5t-25.5 61.5zM143 -506q0 35 26 60.5t60 25.5q37 0 61.5 -24.5t24.5 -61.5t-24.5 -61.5t-61.5 -24.5t-61.5 24.5t-24.5 61.5z" />
<glyph unicode="&#x5b5;" d="M-225 -256q0 35 24.5 59.5t61.5 24.5t61.5 -23.5t24.5 -60.5t-24.5 -61.5t-61.5 -24.5t-61.5 24.5t-24.5 61.5zM53 -256q0 35 24.5 59.5t61.5 24.5t61.5 -24.5t24.5 -59.5q0 -37 -24.5 -61.5t-61.5 -24.5q-35 0 -60.5 25.5t-25.5 60.5z" />
<glyph unicode="&#x2248;" d="M-225 -256q0 35 24.5 59.5t61.5 24.5t61.5 -23.5t24.5 -60.5t-24.5 -61.5t-61.5 -24.5t-61.5 24.5t-24.5 61.5zM53 -256q0 35 24.5 59.5t61.5 24.5t61.5 -24.5t24.5 -59.5q0 -37 -24.5 -61.5t-61.5 -24.5q-35 0 -60.5 25.5t-25.5 60.5z" />
<glyph unicode="&#x5b6;" d="M-236 -256q0 35 25 59.5t61 24.5q37 0 62 -23.5t25 -60.5t-25 -61.5t-62 -24.5t-61.5 24.5t-24.5 61.5zM-88 -494q0 35 26.5 61.5t61.5 26.5q37 0 61.5 -25.5t24.5 -62.5t-24.5 -61.5t-61.5 -24.5t-62.5 24.5t-25.5 61.5zM63 -256q0 35 25 59.5t62 24.5t61.5 -24.5 t24.5 -59.5q0 -37 -25 -61.5t-61 -24.5q-35 0 -61 25.5t-26 60.5z" />
<glyph unicode="&#x2206;" d="M-236 -256q0 35 25 59.5t61 24.5q37 0 62 -23.5t25 -60.5t-25 -61.5t-62 -24.5t-61.5 24.5t-24.5 61.5zM-88 -494q0 35 26.5 61.5t61.5 26.5q37 0 61.5 -25.5t24.5 -62.5t-24.5 -61.5t-61.5 -24.5t-62.5 24.5t-25.5 61.5zM63 -256q0 35 25 59.5t62 24.5t61.5 -24.5 t24.5 -59.5q0 -37 -25 -61.5t-61 -24.5q-35 0 -61 25.5t-26 60.5z" />
<glyph unicode="&#x5b7;" d="M-193 -190h388v-109h-388v109z" />
<glyph unicode="&#x5b8;" d="M-193 -190h388v-109h-158l-6 -92q0 -23 26 -62q29 -41 29 -61q0 -37 -24.5 -61.5t-61.5 -24.5q-35 0 -59.5 24.5t-24.5 61.5q0 25 27 63q29 41 28 60l-6 92h-158v109z" />
<glyph unicode="&#x5b9;" d="M-86 1411q0 35 25.5 60.5t60.5 25.5q37 0 61.5 -24.5t24.5 -61.5t-24.5 -61.5t-61.5 -24.5t-61.5 24.5t-24.5 61.5z" />
<glyph unicode="&#x2026;" d="M-86 1411q0 35 25.5 60.5t60.5 25.5q37 0 61.5 -24.5t24.5 -61.5t-24.5 -61.5t-61.5 -24.5t-61.5 24.5t-24.5 61.5z" />
<glyph unicode="&#x5bb;" d="M-86 -256q0 35 24.5 59.5t61.5 24.5t61.5 -24.5t24.5 -59.5q0 -37 -24.5 -61.5t-61.5 -24.5q-35 0 -60.5 25.5t-25.5 60.5zM66 -393q0 35 24.5 59.5t61.5 24.5t61.5 -23.5t24.5 -60.5t-25 -61.5t-61 -24.5q-37 0 -61.5 24.5t-24.5 61.5zM217 -537q0 35 26.5 61.5 t61.5 26.5q37 0 61.5 -25.5t24.5 -62.5t-24.5 -61.5t-61.5 -24.5t-62.5 24.5t-25.5 61.5z" />
<glyph unicode="&#x5bc;" d="M-84 590q0 35 24.5 59.5t59.5 24.5t59.5 -24.5t24.5 -59.5t-24.5 -59.5t-59.5 -24.5t-59.5 24.5t-24.5 59.5z" />
<glyph unicode="&#x5bd;" d="M-37 -182h74v-357h-74v357z" />
<glyph unicode="&#x5c0;" horiz-adv-x="497" d="M195 2v1184h110v-1184h-110z" />
<glyph unicode="&#x5c1;" d="M358 1411q0 35 26 60.5t60 25.5q37 0 61.5 -24.5t24.5 -61.5t-24.5 -61.5t-61.5 -24.5t-61.5 24.5t-24.5 61.5z" />
<glyph unicode="&#x5c2;" d="M-172 1411q0 35 25.5 60.5t60.5 25.5q37 0 61.5 -24.5t24.5 -61.5t-24.5 -61.5t-61.5 -24.5t-61.5 24.5t-24.5 61.5z" />
<glyph unicode="&#x5c3;" horiz-adv-x="485" d="M55 121q0 57 40 98t100 41q59 0 93 -40t34 -99q0 -53 -39 -91t-93 -38q-61 0 -100 43q-35 31 -35 86zM59 715q0 59 37 99t97 40q59 0 98 -38t39 -97q0 -53 -39 -92t-94 -39l-58 6l-10 4q-70 33 -70 117z" />
<glyph unicode="&#x5c4;" d="M-86 1411q0 35 25.5 60.5t60.5 25.5q37 0 61.5 -24.5t24.5 -61.5t-24.5 -61.5t-61.5 -24.5t-61.5 24.5t-24.5 61.5z" />
<glyph unicode="&#x5c7;" d="M-193 -184h388v-109h-158l-6 -266q0 -23 26 -62q29 -41 29 -61q0 -37 -24.5 -61.5t-61.5 -24.5q-35 0 -59.5 24.5t-24.5 61.5q0 25 27 64q29 41 28 59l-6 266h-158v109z" />
<glyph unicode="&#x5d0;" horiz-adv-x="1036" d="M70 1057q0 145 36 145q12 0 21 -10l10 -12q4 -6 7 -8.5t6 -4.5q18 -14 32 -18q0 109 66 229q72 139 176 140q39 0 64.5 -31t25.5 -68q0 -43 -117 -88q-154 -59 -170 -186l185 6q113 6 209 -16q188 -49 274 -301q37 -111 37 -220q0 -203 -111 -374q-160 -252 -284 -252 q-10 2 -15.5 6t-11.5 10l-4 8q-2 4 -2 11q0 14 28 32q166 70 254 236q66 121 66 239q0 76 -25.5 138.5t-71.5 106.5t-110.5 66.5t-140.5 18.5l-230 -12q-59 -115 -59 -201q0 -27 3 -56.5t13 -60.5q6 -10 33 -94q43 -115 43 -233q0 -74 -33 -131q-51 -82 -90 -82 q-43 0 -39 51l5 121q2 23 -3.5 60.5t-19.5 96.5q-10 47 -15.5 86t-5.5 70q0 47 11.5 101.5t34.5 115.5q8 20 23 62l40 106q-72 0 -113 64q-32 57 -32 133z" />
<glyph unicode="&#x2021;" horiz-adv-x="1036" d="M70 1057q0 145 36 145q12 0 21 -10l10 -12q4 -6 7 -8.5t6 -4.5q18 -14 32 -18q0 109 66 229q72 139 176 140q39 0 64.5 -31t25.5 -68q0 -43 -117 -88q-154 -59 -170 -186l185 6q113 6 209 -16q188 -49 274 -301q37 -111 37 -220q0 -203 -111 -374q-160 -252 -284 -252 q-10 2 -15.5 6t-11.5 10l-4 8q-2 4 -2 11q0 14 28 32q166 70 254 236q66 121 66 239q0 76 -25.5 138.5t-71.5 106.5t-110.5 66.5t-140.5 18.5l-230 -12q-59 -115 -59 -201q0 -27 3 -56.5t13 -60.5q6 -10 33 -94q43 -115 43 -233q0 -74 -33 -131q-51 -82 -90 -82 q-43 0 -39 51l5 121q2 23 -3.5 60.5t-19.5 96.5q-10 47 -15.5 86t-5.5 70q0 47 11.5 101.5t34.5 115.5q8 20 23 62l40 106q-72 0 -113 64q-32 57 -32 133z" />
<glyph unicode="&#x5d1;" horiz-adv-x="899" d="M37 41q0 84 51 182q27 55 90 51l105 -4q145 -10 284 33q113 27 113 68q0 33 -125 114l-90 56q-14 2 -25 28q4 16 12.5 39t20.5 51l86 213q-139 -18 -229 -18q-115 0 -148 18q-104 37 -104 185q0 121 28 137l7 8q14 -4 24 -12t20.5 -17.5t21.5 -16.5t30 -7h440 q63 0 64 -16q0 -12 -4 -21l-119 -315q195 -152 194 -312q0 -96 -98 -237q-70 -102 -182 -168q-182 -102 -379 -103l-23 -2q-65 0 -65 66z" />
<glyph unicode="&#x5d2;" horiz-adv-x="692" d="M-12 47q0 4 7 11.5t17.5 15.5t18.5 15t12 11q10 12 15 24.5t12 22.5q25 53 42 90t31 54q47 57 133 57q88 0 259 -72q0 236 -58 363q-33 123 -276 215q-57 14 -58 61q0 41 37 138q41 102 74 102q74 0 180 -131q131 -154 141 -453l9 -376q4 -70 1 -112t-7 -58l-7 -15 q-14 -14 -24 -14q-29 0 -27 45l12 178q-47 23 -63 23q-76 0 -121 -117q-78 -139 -203 -135l-53 2l-20 6l-21 4q-10 2 -20 6q-43 14 -43 39z" />
<glyph unicode="&#x201a;" horiz-adv-x="692" d="M-12 47q0 4 7 11.5t17.5 15.5t18.5 15t12 11q10 12 15 24.5t12 22.5q25 53 42 90t31 54q47 57 133 57q88 0 259 -72q0 236 -58 363q-33 123 -276 215q-57 14 -58 61q0 41 37 138q41 102 74 102q74 0 180 -131q131 -154 141 -453l9 -376q4 -70 1 -112t-7 -58l-7 -15 q-14 -14 -24 -14q-29 0 -27 45l12 178q-47 23 -63 23q-76 0 -121 -117q-78 -139 -203 -135l-53 2l-20 6l-21 4q-10 2 -20 6q-43 14 -43 39z" />
<glyph unicode="&#x5d3;" horiz-adv-x="829" d="M33 1104q0 80 24 108l11 5q6 -6 16 -13.5t22 -19.5q20 -37 199 -35l350 8q47 0 57.5 -14.5t10.5 -65.5q0 -176 -74 -211l-14 -125l-43 -223q-10 -59 -19.5 -116.5t-19.5 -116.5q-14 -88 -21.5 -149.5t-7.5 -94.5q-8 -45 -49 -45q-16 0 -41 16q-70 49 -69 111q0 25 67 225 l172 514l-397 -8q-86 -2 -137 86q-37 68 -37 164z" />
<glyph unicode="&#x201e;" horiz-adv-x="829" d="M33 1104q0 80 24 108l11 5q6 -6 16 -13.5t22 -19.5q20 -37 199 -35l350 8q47 0 57.5 -14.5t10.5 -65.5q0 -176 -74 -211l-14 -125l-43 -223q-10 -59 -19.5 -116.5t-19.5 -116.5q-14 -88 -21.5 -149.5t-7.5 -94.5q-8 -45 -49 -45q-16 0 -41 16q-70 49 -69 111q0 25 67 225 l172 514l-397 -8q-86 -2 -137 86q-37 68 -37 164z" />
<glyph unicode="&#x5d4;" horiz-adv-x="1105" d="M45 469q0 37 8 45l6 6l9 2q18 0 53 -98q51 -109 221 -141q72 -14 199 -15q20 0 38.5 -23.5t18.5 -43.5l-6 -103q-2 -25 -4 -41t-8 -24q-27 -41 -93 -41l-28 4q-39 2 -127 41q-8 4 -15.5 8t-11.5 8q-168 106 -227 273q-33 84 -33 143zM68 1087v43q0 16 2 27q2 25 7 39 t13 23l10 6l13 -2l22 -29q18 -45 74 -45l248 6q231 2 348 -68q203 -127 203 -436q0 -84 -19.5 -163.5t-54.5 -153.5q-35 -72 -117 -176q-18 -35 -47 -35q-20 0 -31 22q0 18 15 37l28 27q2 4 6.5 9t14.5 20q59 84 76 122q45 92 45 187q0 78 -27 138t-74 101t-112.5 60.5 t-143.5 17.5l-82 -2l-258 -6q-33 0 -54 3t-34.5 11.5t-24 24.5t-22.5 45q-12 35 -19 70.5t-5 76.5z" />
<glyph unicode="&#x2030;" horiz-adv-x="1105" d="M45 469q0 37 8 45l6 6l9 2q18 0 53 -98q51 -109 221 -141q72 -14 199 -15q20 0 38.5 -23.5t18.5 -43.5l-6 -103q-2 -25 -4 -41t-8 -24q-27 -41 -93 -41l-28 4q-39 2 -127 41q-8 4 -15.5 8t-11.5 8q-168 106 -227 273q-33 84 -33 143zM68 1087v43q0 16 2 27q2 25 7 39 t13 23l10 6l13 -2l22 -29q18 -45 74 -45l248 6q231 2 348 -68q203 -127 203 -436q0 -84 -19.5 -163.5t-54.5 -153.5q-35 -72 -117 -176q-18 -35 -47 -35q-20 0 -31 22q0 18 15 37l28 27q2 4 6.5 9t14.5 20q59 84 76 122q45 92 45 187q0 78 -27 138t-74 101t-112.5 60.5 t-143.5 17.5l-82 -2l-258 -6q-33 0 -54 3t-34.5 11.5t-24 24.5t-22.5 45q-12 35 -19 70.5t-5 76.5z" />
<glyph unicode="&#x5d5;" horiz-adv-x="552" d="M41 950q0 23 3 53.5t13 65.5q23 90 60 90q-4 0 63 -43l129 -82q84 -55 107 -219q2 -23 3 -85t1 -171q0 -88 -3 -178t-11 -184l-11 -125q-2 -76 -45 -76q-23 0 -22 27l2 57l12 143q2 29 4 47.5t2 28.5v63q0 115 -10 193t-27 117q-18 43 -88 88l-117 67q-65 47 -65 123z " />
<glyph unicode="&#x5d6;" horiz-adv-x="485" d="M72 936q0 154 137 197l113 32q33 2 51 29l20 18q23 0 39 -73q6 -25 8 -48.5t2 -46.5q0 -203 -233 -202q-53 0 -53 -49q0 -16 34 -91q100 -203 101 -391q0 -35 -6 -73.5t-17 -85.5q-27 -96 -61 -148q-18 -14 -35 -14q-33 0 -33 67l13 129l-2 117q-2 129 -16.5 252 t-43.5 244z" />
<glyph unicode="&#x5d7;" horiz-adv-x="966" d="M45 1079q0 80 25 115l8 12l10 6q4 -8 17.5 -19t29.5 -26q18 -12 133 -12h121q49 0 86 -4t62 -8q205 -49 282 -305q16 -51 24.5 -106.5t8.5 -115.5q0 -274 -139 -473q-113 -156 -183 -155q-39 0 -38 26q0 29 55 58q106 43 172 186q61 129 61 254q0 156 -71 248 q-76 100 -230 100h-231q-23 -51 -34 -83t-17 -46q-10 -29 -13.5 -56.5t-3.5 -58.5q0 -23 1 -38t3 -25l25 -102q6 -16 14 -48t19 -75q4 -29 6 -56.5t2 -54.5q0 -59 -25 -129q-33 -92 -82 -92q-23 0 -36 22.5t-13 42.5q0 53 -12 146q-4 53 -8 89t-6 56l-2 45q-12 160 100 410 q4 14 11 27.5t13 27.5q-88 0 -112 72q-33 63 -33 145z" />
<glyph unicode="&#x5d8;" horiz-adv-x="1105" d="M53 956q0 66 29 131q33 84 86 84q76 0 125 -100q37 -78 37 -166q0 -25 -3 -60.5t-12 -82.5q-8 -47 -12 -82t-4 -57l-4 -338l264 -11q74 -2 139.5 17.5t118.5 62.5q113 86 113 234q0 272 -383 272q-61 0 -62 51q0 74 97 213q25 33 51 33q84 0 186 -100q166 -158 166 -467 q0 -264 -164 -445q-10 -10 -28.5 -25.5t-47.5 -39.5q-59 -45 -75 -45q-135 -45 -410 -45q-70 0 -94 -25q-35 -35 -51 -35q-35 0 -35 72q0 104 33 178q39 100 133 101l2 96q8 352 -131 471q-64 63 -64 108z" />
<glyph unicode="&#x5d9;" horiz-adv-x="552" d="M35 989q0 25 4 49.5t8 51.5q18 78 47 77q16 16 35 -16q14 -20 102 -70q186 -72 187 -286q0 -78 -25 -197q-12 -59 -24.5 -105.5t-28.5 -76.5q-14 -33 -31 -33q-14 0 -28 14q0 12 18 80q12 35 17.5 63.5t5.5 53.5q0 86 -46 129q-16 16 -124 74q-117 65 -117 192z" />
<glyph unicode="&#x5da;" horiz-adv-x="829" d="M49 1065q0 121 27 135l12 6l23 -14l6 -10q12 -23 35 -25l38 -8l359 6q78 0 128 -51t50 -129q0 -80 -43 -279q-39 -188 -39 -313q0 -70 12 -201q8 -80 11.5 -129t5.5 -71q6 -96 6 -140q0 -39 -8 -85t-25 -99q-39 -137 -102 -137q-31 0 -31 39l6 43v57l-2 174l-6 129 q-2 70 1 146.5t13 162.5q6 51 19.5 119t34.5 154l75 315h-288l-177 -8q-141 -4 -141 213z" />
<glyph unicode="&#x5db;" horiz-adv-x="899" d="M33 90q2 18 3 34.5t5 31.5q8 68 31 116l65 15q53 0 113.5 8t126.5 24q72 16 128 39t97 50q133 86 133 247q0 57 -20.5 101.5t-59.5 73t-92 40t-117 2.5l-198 -10q-94 -2 -127 53q-27 39 -27 146q0 125 21 145l12 11l23 -9l10 -14q0 -25 53 -29l45 -4l139 4 q395 6 396 -493q0 -410 -398 -606l-10 -7q-137 -70 -301 -69q-23 0 -31 10q-20 20 -20 90z" />
<glyph unicode="&#x5dc;" horiz-adv-x="692" d="M14 1686q0 39 52 45q6 4 77 4q41 0 41 -41v-533q51 -12 85 -23.5t50 -17.5q66 -33 125 -106q117 -147 117 -332q0 -408 -258 -604q-123 -92 -197 -92q-61 0 -57 96q4 35 5 60.5t3 43.5q12 74 35 90q33 27 74 27q338 86 338 324q0 236 -309 235l-27 4q-33 0 -33 62l-2 678 q0 39 -78 39q-41 0 -41 41z" />
<glyph unicode="&#x5dd;" horiz-adv-x="1105" d="M80 481q0 213 129 391q-72 0 -86 105q-2 16 -4 40.5t-2 53.5q0 150 28 166l7 2q23 0 22 -22l19 -35q12 -27 81 -27q14 2 23 2h10l172 2q66 2 107 1t57 -5q74 -16 143 -72q115 -86 166 -264q37 -133 37 -258q0 -301 -186 -469q-16 -12 -44 -30.5t-69 -41.5 q-98 -31 -176 -30q-195 0 -319 149q-115 141 -115 342zM152 565q0 -147 122 -223q51 -33 117 -47t144 -14q174 0 276 69q123 82 123 248q0 31 -3 60.5t-13 58.5q-33 113 -127 137q-16 6 -41 8t-56 2h-418q-124 -154 -124 -299z" />
<glyph unicode="&#x5de;" horiz-adv-x="1105" d="M27 932q0 37 39 125q39 92 73 92q88 0 144 -125q47 -100 47 -197l45 58l170 205q49 61 90 61q123 0 235 -186q88 -150 88 -365q0 -291 -149 -465q-125 -143 -252 -143q-90 0 -90 57q0 63 74 57l69 -2q125 -4 199 119q66 106 65 236q0 145 -88 270q-92 137 -237 137 q-117 0 -209 -108q0 -371 -45 -549q-2 -59 -66 -137q-59 -74 -116 -74q-59 0 -60 55q0 84 99 125q41 23 65.5 59.5t34.5 84.5q12 63 17 123.5t5 119.5q0 193 -202 301q-45 29 -45 66z" />
<glyph unicode="&#x5df;" horiz-adv-x="485" d="M76 981q0 92 45 180q8 18 29 19q78 -66 167 -99q98 -53 99 -163q0 -29 -5 -56.5t-16 -56.5q-86 -240 -86 -445q0 -23 2 -63.5t8 -101.5l25 -310l-6 -125q-4 -33 -10 -65.5t-23 -67.5q-43 -102 -100 -102q-31 0 -31 29l4 96v364q0 281 58 471l83 279q-68 0 -135 41 q-108 59 -108 176z" />
<glyph unicode="&#x5e0;" horiz-adv-x="622" d="M59 104q0 98 9 123q18 63 84 72l43 16q256 90 256 295q0 117 -99 176q-63 43 -205 68q-53 10 -70.5 27.5t-17.5 70.5q0 150 39 187q0 18 29 18q139 0 268 -188q106 -156 107 -391q0 -352 -240 -519l-39 -26q-8 -4 -21.5 -9.5t-29.5 -11.5q-61 -23 -66 -22q-47 -1 -47 114 z" />
<glyph unicode="&#xf8ff;" horiz-adv-x="622" d="M59 104q0 98 9 123q18 63 84 72l43 16q256 90 256 295q0 117 -99 176q-63 43 -205 68q-53 10 -70.5 27.5t-17.5 70.5q0 150 39 187q0 18 29 18q139 0 268 -188q106 -156 107 -391q0 -352 -240 -519l-39 -26q-8 -4 -21.5 -9.5t-29.5 -11.5q-61 -23 -66 -22q-47 -1 -47 114 z" />
<glyph unicode="&#x5e1;" horiz-adv-x="1173" d="M88 543q0 156 84 331l-14 9q-23 10 -25 16l-6 10q-23 49 -23 144q0 121 33 153l10 6q4 0 11.5 -7t17.5 -16t25.5 -17.5t36.5 -10.5q41 -2 66.5 -3t37.5 -1l213 4q63 4 113.5 -2t85.5 -16q88 -31 164 -117q160 -182 159 -471q0 -123 -51 -250q-53 -141 -147 -205l-31 -28 q-121 -80 -254 -80q-207 0 -381 176l4 -107q4 -82 -27 -81q-41 0 -40 61v51q0 158 -50 330q-12 70 -12 121zM156 602q0 -111 75 -194q117 -131 349 -132q174 0 297 76q143 86 143 254q0 106 -76 176q-55 55 -90 56q-90 29 -211 28h-45l-369 -6q-73 -117 -73 -258z" />
<glyph unicode="&#x5e2;" horiz-adv-x="1036" d="M45 41q2 27 3 53.5t5 55.5q4 41 10.5 65.5t16.5 36.5q4 14 31 20l90 2l108 -2q-12 59 -27.5 153.5t-31.5 225.5q-6 23 -9 37t-5 19q-12 35 -52 65l-84 70q-53 43 -53 76q0 45 35 137q16 41 22 51q20 37 58 37q72 0 125 -96q47 -80 47 -160l-4 -49q-12 -127 -13 -166 q0 -147 37 -400q197 0 336 68q182 86 182 260q0 125 -124 195q-102 55 -238 55q-68 0 -68 24q0 45 115 226q20 37 49 37q66 0 162 -97q39 -45 65.5 -83.5t43.5 -73.5q47 -113 47 -248q0 -180 -80 -328q-88 -156 -238 -237q-92 -49 -133 -50l-94 -16q-47 -6 -88 -10t-82 -4 q-168 0 -164 51z" />
<glyph unicode="&#x5e3;" horiz-adv-x="966" d="M100 592q0 301 273 524q4 10 27.5 24.5t35.5 14.5q61 0 221 -63q164 -66 191 -105q14 -25 14 -47l-18 -145q-4 -33 -11.5 -81l-17.5 -112q-8 -59 -12 -107.5t0 -86.5l4 -111l37 -449q6 -61 -23 -178l-2 -10q0 -57 -43 -113q-10 -23 -31 -22q-37 0 -36 33 q-16 96 -25.5 174t-9.5 135q0 119 9 236.5t32 236.5l61 373q-293 154 -428 153q-100 0 -151 -82q-45 -74 -45 -172q0 -88 61 -137q41 -33 129 -57q47 -14 81 -25.5t50 -25.5q63 -41 64 -121q0 -41 -35 -67.5t-74 -26.5q-102 0 -203 108q-125 135 -125 332z" />
<glyph unicode="&#x5e4;" horiz-adv-x="966" d="M59 57q0 215 64 217l153 13q78 6 157 23.5t157 45.5q90 33 147.5 110t57.5 173q0 82 -37 135q-51 94 -273 88l-221 -8q-45 -68 -45 -104q0 -61 72 -88q53 -25 53 -95q0 -47 -35 -84t-82 -37q-61 0 -100 47.5t-39 108.5q0 98 117 252q-61 0 -92 90q-10 31 -15.5 60.5 t-5.5 62.5q0 135 33 168l14 10q4 0 27 -41q16 -33 47 -47q23 -12 96 -8l119 2q55 4 98 -1t74 -15q248 -80 248 -455q0 -236 -131 -410q-127 -180 -346 -237q-14 -14 -129 -33q-72 -12 -115 -12q-68 -1 -68 69z" />
<glyph unicode="&#x5e8;" horiz-adv-x="899" d="M57 1094q0 113 25 112q16 -8 22 -14q0 -20 24 -32.5t44 -12.5l125 4q186 8 274 -51q199 -137 199 -490q0 -287 -143 -485l-33 -45l-57 -62q-4 -6 -7.5 -8t-7.5 -6q-25 -14 -35 -14q-2 -2 -8 -2q-39 0 -39 32q0 33 41 68l68 51q14 14 28.5 30.5t26.5 37.5q111 166 111 348 q0 172 -74 242.5t-246 62.5l-180 -8q-104 -4 -137 82q-10 25 -15.5 66t-5.5 94z" />
<glyph unicode="&#x5f0;" horiz-adv-x="1153" d="M41 950q0 23 3 53.5t13 65.5q23 90 60 90q-4 0 63 -43l129 -82q84 -55 107 -219q2 -23 3 -85t1 -171q0 -88 -3 -178t-11 -184l-11 -125q-2 -76 -45 -76q-23 0 -22 27l2 57l12 143q2 29 4 47.5t2 28.5v63q0 115 -10 193t-27 117q-18 43 -88 88l-117 67q-65 47 -65 123z M641 950q0 23 3 53.5t13 65.5q23 90 60 90q-4 0 63 -43l129 -82q84 -55 107 -219q2 -23 3 -85t1 -171q0 -88 -3 -178t-11 -184l-11 -125q-2 -76 -45 -76q-23 0 -22 27l2 57l12 143q2 29 4 47.5t2 28.5v63q0 115 -10 193t-27 117q-18 43 -88 88l-117 67q-65 47 -65 123z" />
<glyph unicode="&#x5f1;" horiz-adv-x="1251" d="M676 950q0 23 3 53.5t13 65.5q23 90 60 90q-4 0 63 -43l129 -82q84 -55 107 -219q2 -23 3 -85t1 -171q0 -88 -3 -178t-11 -184l-11 -125q-2 -76 -45 -76q-23 0 -22 27l2 57l12 143q2 29 4 47.5t2 28.5v63q0 115 -10 193t-27 117q-18 43 -88 88l-117 67q-65 47 -65 123z M35 989q0 25 4 49.5t8 51.5q18 78 47 77q16 16 35 -16q14 -20 102 -70q186 -72 187 -286q0 -78 -25 -197q-12 -59 -24.5 -105.5t-28.5 -76.5q-14 -33 -31 -33q-14 0 -28 14q0 12 18 80q12 35 17.5 63.5t5.5 53.5q0 86 -46 129q-16 16 -124 74q-117 65 -117 192z" />
<glyph unicode="&#x5f2;" horiz-adv-x="1138" d="M35 989q0 25 4 49.5t8 51.5q18 78 47 77q16 16 35 -16q14 -20 102 -70q186 -72 187 -286q0 -78 -25 -197q-12 -59 -24.5 -105.5t-28.5 -76.5q-14 -33 -31 -33q-14 0 -28 14q0 12 18 80q12 35 17.5 63.5t5.5 53.5q0 86 -46 129q-16 16 -124 74q-117 65 -117 192zM621 989 q0 25 4 49.5t8 51.5q18 78 47 77q16 16 35 -16q14 -20 102 -70q186 -72 187 -286q0 -78 -25 -197q-12 -59 -24.5 -105.5t-28.5 -76.5q-14 -33 -31 -33q-14 0 -28 14q0 12 18 80q12 35 17.5 63.5t5.5 53.5q0 86 -46 129q-16 16 -124 74q-117 65 -117 192z" />
<glyph unicode="&#x5f3;" horiz-adv-x="552" d="M147 784l3 15l79 348q14 51 50 92t88 41q86 0 86 -94q0 -45 -74 -152l-37 -55l-8 -16l-92 -136q-49 -70 -64 -69q-31 -1 -31 26z" />
<glyph unicode="&#x25ca;" horiz-adv-x="552" d="M147 784l3 15l79 348q14 51 50 92t88 41q86 0 86 -94q0 -45 -74 -152l-37 -55l-8 -16l-92 -136q-49 -70 -64 -69q-31 -1 -31 26z" />
<glyph unicode="&#x5f4;" horiz-adv-x="899" d="M150 791l2 14l55 252q25 104 45 145q43 78 115 78q86 0 86 -78q0 -51 -88 -198q-6 -10 -17.5 -29t-28.5 -45l-69 -99q-53 -72 -84 -71q-16 17 -16 31zM500 776l45 209l35 135q29 170 139 170q90 0 90 -88q0 -47 -59 -141l-54 -84l-129 -191q-12 -29 -37 -28q-30 0 -30 18 z" />
<glyph unicode="&#x2000;" horiz-adv-x="1024" />
<glyph unicode="&#x2001;" horiz-adv-x="2048" />
<glyph unicode="&#x2002;" horiz-adv-x="1024" />
<glyph unicode="&#x2003;" horiz-adv-x="2048" />
<glyph unicode="&#x2004;" horiz-adv-x="681" />
<glyph unicode="&#x2005;" horiz-adv-x="512" />
<glyph unicode="&#x2006;" horiz-adv-x="339" />
<glyph unicode="&#x2007;" horiz-adv-x="899" />
<glyph unicode="&#x2008;" horiz-adv-x="485" />
<glyph unicode="&#x2009;" horiz-adv-x="204" />
<glyph unicode="&#x200a;" horiz-adv-x="20" />
<glyph unicode="&#x200b;" />
<glyph unicode="&#x200c;" horiz-adv-x="45" d="M0 0v1628h45v-1628h-45z" />
<glyph unicode="&#x200d;" horiz-adv-x="45" d="M-115 1495l109 109l-109 106l31 31l107 -109l106 109l31 -31l-107 -106l107 -109l-31 -29l-84 84v-1550h-45v1550l-84 -84z" />
<glyph unicode="&#x2010;" horiz-adv-x="759" d="M80 479v178h594v-178h-594z" />
<glyph unicode="&#x2011;" horiz-adv-x="759" d="M80 479v178h594v-178h-594z" />
<glyph unicode="&#x2012;" horiz-adv-x="899" d="M80 479v178h733v-178h-733z" />
<glyph unicode="&#x2013;" horiz-adv-x="929" d="M25 614l69 168h809l-69 -168h-809z" />
<glyph unicode="&#x2014;" horiz-adv-x="1859" d="M25 614l69 168h1731l-70 -168h-1730z" />
<glyph unicode="&#x2015;" horiz-adv-x="4096" d="M80 479v178h3930v-178h-3930z" />
<glyph unicode="&#x2016;" horiz-adv-x="614" d="M356 -287v1805l176 34v-1804zM49 -287v1805l176 34v-1804z" />
<glyph unicode="&#x2018;" horiz-adv-x="485" d="M8 -158l64 310q20 90 30 110q27 55 91 55q37 0 68.5 -22.5t31.5 -56.5q0 -27 -35 -86l-209 -340l-16 -2q-6 2 -8 4l-5 4q-18 14 -12 24z" />
<glyph unicode="&#x2019;" horiz-adv-x="485" d="M57 121q0 139 136 139q53 0 93 -42t40 -95t-40 -93t-93 -40q-57 0 -87 28q-49 40 -49 103z" />
<glyph unicode="&#x201c;" horiz-adv-x="899" d="M147 -113l3 15l55 252q25 104 45 145q43 78 115 78q86 0 86 -78q0 -51 -89 -199q-6 -10 -17 -28.5t-28 -44.5l-69 -99q-53 -72 -84 -71q-17 16 -17 30zM498 -127l45 209l35 135q29 170 139 170q90 0 90 -88q0 -47 -59 -141l-54 -84l-129 -191q-12 -29 -37 -28 q-30 0 -30 18z" />
<glyph unicode="&#x201d;" horiz-adv-x="899" d="M150 791l2 14l55 252q25 104 45 145q43 78 115 78q86 0 86 -78q0 -51 -88 -198q-6 -10 -17.5 -29t-28.5 -45l-69 -99q-53 -72 -84 -71q-16 17 -16 31zM500 776l45 209l35 135q29 170 139 170q90 0 90 -88q0 -47 -59 -141l-54 -84l-129 -191q-12 -29 -37 -28q-30 0 -30 18 z" />
<glyph unicode="&#x2022;" horiz-adv-x="1062" d="M115 643q0 172 118 291q121 121 293 121q170 0 291 -121t121 -291q0 -172 -121 -293t-291 -121q-172 0 -293 121q-118 119 -118 293z" />
<glyph unicode="&#x2024;" horiz-adv-x="485" d="M57 121q0 139 136 139q53 0 93 -42t40 -95t-40 -93t-93 -40q-57 0 -87 28q-49 40 -49 103z" />
<glyph unicode="&#x2025;" horiz-adv-x="970" d="M542 121q0 139 136 139q53 0 93 -42t40 -95t-40 -93t-93 -40q-57 0 -87 28q-49 40 -49 103zM57 121q0 139 136 139q53 0 93 -42t40 -95t-40 -93t-93 -40q-57 0 -87 28q-49 40 -49 103z" />
<glyph unicode="&#x202a;" />
<glyph unicode="&#x202f;" horiz-adv-x="378" />
<glyph unicode="&#x2032;" horiz-adv-x="552" d="M147 784l3 15l79 348q14 51 50 92t88 41q86 0 86 -94q0 -45 -74 -152l-37 -55l-8 -16l-92 -136q-49 -70 -64 -69q-31 -1 -31 26z" />
<glyph unicode="&#x2033;" horiz-adv-x="1105" d="M700 784l3 15l79 348q14 51 50 92t88 41q86 0 86 -94q0 -45 -74 -152l-37 -55l-8 -16l-92 -136q-49 -70 -64 -69q-31 -1 -31 26zM147 784l3 15l79 348q14 51 50 92t88 41q86 0 86 -94q0 -45 -74 -152l-37 -55l-8 -16l-92 -136q-49 -70 -64 -69q-31 -1 -31 26z" />
<glyph unicode="&#x2034;" horiz-adv-x="1658" d="M1253 784l3 15l79 348q14 51 50 92t88 41q86 0 86 -94q0 -45 -74 -152l-37 -55l-8 -16l-92 -136q-49 -70 -64 -69q-31 -1 -31 26zM700 784l3 15l79 348q14 51 50 92t88 41q86 0 86 -94q0 -45 -74 -152l-37 -55l-8 -16l-92 -136q-49 -70 -64 -69q-31 -1 -31 26zM147 784 l3 15l79 348q14 51 50 92t88 41q86 0 86 -94q0 -45 -74 -152l-37 -55l-8 -16l-92 -136q-49 -70 -64 -69q-31 -1 -31 26z" />
<glyph unicode="&#x2039;" horiz-adv-x="851" d="M162 582q45 39 109.5 95t150.5 132l147 139q125 117 133 117q25 0 25 -29q0 -35 -328 -461q47 -59 93.5 -116.5t93.5 -116.5q143 -186 143 -229q0 -29 -27 -29q-10 0 -153 143q-23 23 -118 111t-269 244z" />
<glyph unicode="&#x203a;" horiz-adv-x="851" d="M123 1036q0 29 29 29q10 0 153 -143q35 -33 131 -121t256 -232q-45 -39 -109.5 -95t-150.5 -132q-45 -45 -111.5 -107.5t-158.5 -148.5l-10 -2q-27 0 -27 29q0 35 328 460q-47 57 -92.5 114.5t-90.5 117.5q-147 186 -147 231z" />
<glyph unicode="&#x203c;" horiz-adv-x="1245" d="M748 125q0 59 38 98t97 39q53 0 95 -39t42 -94q0 -59 -40 -96t-99 -37q-74 0 -113 61q-4 8 -6 13.5t-4 9.5q-10 22 -10 45zM773 606v500q0 72 104 72q111 0 111 -50v-540q0 -25 -25 -74l-55 -113l-15 -22l-18 -2l-4 8q-4 8 -12.5 18.5t-18.5 26.5l-39 82l-22 53 q-6 8 -6 41zM125 125q0 59 38 98t97 39q53 0 95 -39t42 -94q0 -59 -40 -96t-99 -37q-74 0 -113 61q-4 8 -6 13.5t-4 9.5q-10 22 -10 45zM150 606v500q0 72 104 72q111 0 111 -50v-540q0 -25 -25 -74l-55 -113l-15 -22l-18 -2l-4 8q-4 8 -12.5 18.5t-18.5 26.5l-39 82l-22 53 q-6 8 -6 41z" />
<glyph unicode="&#x203e;" horiz-adv-x="573" d="M-214.202 161.999l18.5986 49.1982q66.5977 -29.3994 122.995 -29.3994q29.3994 0 54.5977 12.2998q25.1992 12.2998 42.8984 32.3984q17.6992 20.0996 27.5986 47.998q9.90039 27.8994 9.90039 58.498q0 25.7988 -7.2002 50.3975q-7.19922 24.5996 -20.999 43.498 q-13.7998 18.8994 -33.2988 29.999t-44.0977 11.0996q-18.5996 0 -26.999 -3.59961l-38.3984 -13.7998l-14.3994 45.5986q154.793 82.1963 154.793 179.393q0 37.7988 -25.7988 61.1973q-25.7988 23.3994 -62.9971 23.3994q-45.5986 0 -107.995 -46.1982l-28.1992 42.5977 q101.996 85.7969 206.392 86.3965q63.5977 0 113.396 -34.7979q52.7979 -37.7988 52.7979 -99.5967q0 -104.396 -145.194 -155.993q6 -6 20.999 -6q35.3984 -3.59961 64.1973 -20.6992q28.7988 -17.0986 49.7979 -43.498q21 -26.3984 32.6992 -59.6973t11.6992 -68.6973 q0 -101.996 -74.9971 -166.193q-72.5967 -65.3975 -175.793 -64.7979q-43.1982 0 -86.6963 9.59961t-90.2959 29.3994z" />
<glyph unicode="&#x2047;" horiz-adv-x="1658" d="M870 932q0 84 119 172q88 68 196 67q121 0 205 -69q90 -78 90 -193q0 -109 -147 -252q-88 -88 -88 -190q0 -45 8 -61l4 -17l-6 -10l-6 -8q-33 0 -54 45l-20 53q-14 41 -14 100q0 41 9 78t25 76q10 20 30 55t50 82q47 70 47 127q0 51 -31.5 88t-82.5 37q-61 0 -113 -82 q-39 -72 -39 -145q0 -43 -28 -43q-33 0 -91 30q-63 33 -63 60zM1091 121q0 57 39 98t98 41t96 -38t37 -97t-35.5 -98t-95.5 -39q-53 0 -96 39t-43 94zM41 932q0 84 119 172q88 68 196 67q121 0 205 -69q90 -78 90 -193q0 -109 -147 -252q-88 -88 -88 -190q0 -45 8 -61l4 -17 l-6 -10l-6 -8q-33 0 -54 45l-20 53q-14 41 -14 100q0 41 9 78t25 76q10 20 30 55t50 82q47 70 47 127q0 51 -31.5 88t-82.5 37q-61 0 -113 -82q-39 -72 -39 -145q0 -43 -28 -43q-33 0 -91 30q-63 33 -63 60zM262 121q0 57 39 98t98 41t96 -38t37 -97t-35.5 -98t-95.5 -39 q-53 0 -96 39t-43 94z" />
<glyph unicode="&#x2048;" horiz-adv-x="1452" d="M954 125q0 59 38 98t97 39q53 0 95 -39t42 -94q0 -59 -40 -96t-99 -37q-74 0 -113 61q-4 8 -6 13.5t-4 9.5q-10 22 -10 45zM979 606v500q0 72 104 72q111 0 111 -50v-540q0 -25 -25 -74l-55 -113l-15 -22l-18 -2l-4 8q-4 8 -12.5 18.5t-18.5 26.5l-39 82l-22 53 q-6 8 -6 41zM41 932q0 84 119 172q88 68 196 67q121 0 205 -69q90 -78 90 -193q0 -109 -147 -252q-88 -88 -88 -190q0 -45 8 -61l4 -17l-6 -10l-6 -8q-33 0 -54 45l-20 53q-14 41 -14 100q0 41 9 78t25 76q10 20 30 55t50 82q47 70 47 127q0 51 -31.5 88t-82.5 37 q-61 0 -113 -82q-39 -72 -39 -145q0 -43 -28 -43q-33 0 -91 30q-63 33 -63 60zM262 121q0 57 39 98t98 41t96 -38t37 -97t-35.5 -98t-95.5 -39q-53 0 -96 39t-43 94z" />
<glyph unicode="&#x2049;" horiz-adv-x="1452" d="M664 932q0 84 119 172q88 68 196 67q121 0 205 -69q90 -78 90 -193q0 -109 -147 -252q-88 -88 -88 -190q0 -45 8 -61l4 -17l-6 -10l-6 -8q-33 0 -54 45l-20 53q-14 41 -14 100q0 41 9 78t25 76q10 20 30 55t50 82q47 70 47 127q0 51 -31.5 88t-82.5 37q-61 0 -113 -82 q-39 -72 -39 -145q0 -43 -28 -43q-33 0 -91 30q-63 33 -63 60zM885 121q0 57 39 98t98 41t96 -38t37 -97t-35.5 -98t-95.5 -39q-53 0 -96 39t-43 94zM125 125q0 59 38 98t97 39q53 0 95 -39t42 -94q0 -59 -40 -96t-99 -37q-74 0 -113 61q-4 8 -6 13.5t-4 9.5q-10 22 -10 45z M150 606v500q0 72 104 72q111 0 111 -50v-540q0 -25 -25 -74l-55 -113l-15 -22l-18 -2l-4 8q-4 8 -12.5 18.5t-18.5 26.5l-39 82l-22 53q-6 8 -6 41z" />
<glyph unicode="&#x2057;" horiz-adv-x="2211" d="M1806 784l3 15l79 348q14 51 50 92t88 41q86 0 86 -94q0 -45 -74 -152l-37 -55l-8 -16l-92 -136q-49 -70 -64 -69q-31 -1 -31 26zM1253 784l3 15l79 348q14 51 50 92t88 41q86 0 86 -94q0 -45 -74 -152l-37 -55l-8 -16l-92 -136q-49 -70 -64 -69q-31 -1 -31 26zM700 784 l3 15l79 348q14 51 50 92t88 41q86 0 86 -94q0 -45 -74 -152l-37 -55l-8 -16l-92 -136q-49 -70 -64 -69q-31 -1 -31 26zM147 784l3 15l79 348q14 51 50 92t88 41q86 0 86 -94q0 -45 -74 -152l-37 -55l-8 -16l-92 -136q-49 -70 -64 -69q-31 -1 -31 26z" />
<glyph unicode="&#x205f;" horiz-adv-x="473" />
<glyph unicode="&#x2060;" />
<glyph unicode="&#xe000;" horiz-adv-x="770" d="M0 770h770v-770h-770v770z" />
<glyph unicode="&#xfb00;" horiz-adv-x="1441" d="M762 0v49h158v680h-156v49h156v74q0 221 43 313q80 170 254 170q72 0 129 -32q72 -41 71 -105q0 -78 -75 -78q-82 0 -82 74q0 47 47 70q0 23 -86 22q-100 0 -101 -137v-371h170v-49h-170v-680h158v-49h-516zM41 0v49h158v680h-156v49h156v74q0 221 43 313q80 170 254 170 q72 0 129 -32q72 -41 71 -105q0 -78 -75 -78q-82 0 -82 74q0 47 47 70q0 23 -86 22q-100 0 -101 -137v-371h170v-49h-170v-680h158v-49h-516z" />
<glyph unicode="&#xfb01;" horiz-adv-x="1341" d="M789 0v49h157v680h-157v49h356v-729h160v-49h-516zM926 1126q0 47 34.5 79t84.5 32q49 0 83.5 -31.5t34.5 -79.5q0 -47 -35.5 -77.5t-82.5 -30.5t-83 30.5t-36 77.5zM41 0v49h158v680h-156v49h156v74q0 221 43 313q80 170 254 170q72 0 129 -32q72 -41 71 -105 q0 -78 -75 -78q-82 0 -82 74q0 47 47 70q0 23 -86 22q-100 0 -101 -137v-371h170v-49h-170v-680h158v-49h-516z" />
<glyph unicode="&#xfb02;" horiz-adv-x="1323" d="M787 0v49h147v1223h-147v49h346v-1272h147v-49h-493zM41 0v49h158v680h-156v49h156v74q0 221 43 313q80 170 254 170q72 0 129 -32q72 -41 71 -105q0 -78 -75 -78q-82 0 -82 74q0 47 47 70q0 23 -86 22q-100 0 -101 -137v-371h170v-49h-170v-680h158v-49h-516z" />
<glyph unicode="&#xfb03;" horiz-adv-x="2062" d="M1510 0v49h157v680h-157v49h356v-729h160v-49h-516zM1647 1126q0 47 34.5 79t84.5 32q49 0 83.5 -31.5t34.5 -79.5q0 -47 -35.5 -77.5t-82.5 -30.5t-83 30.5t-36 77.5zM762 0v49h158v680h-156v49h156v74q0 221 43 313q80 170 254 170q72 0 129 -32q72 -41 71 -105 q0 -78 -75 -78q-82 0 -82 74q0 47 47 70q0 23 -86 22q-100 0 -101 -137v-371h170v-49h-170v-680h158v-49h-516zM41 0v49h158v680h-156v49h156v74q0 221 43 313q80 170 254 170q72 0 129 -32q72 -41 71 -105q0 -78 -75 -78q-82 0 -82 74q0 47 47 70q0 23 -86 22 q-100 0 -101 -137v-371h170v-49h-170v-680h158v-49h-516z" />
<glyph unicode="&#xfb04;" horiz-adv-x="2043" d="M1508 0v49h147v1223h-147v49h346v-1272h147v-49h-493zM762 0v49h158v680h-156v49h156v74q0 221 43 313q80 170 254 170q72 0 129 -32q72 -41 71 -105q0 -78 -75 -78q-82 0 -82 74q0 47 47 70q0 23 -86 22q-100 0 -101 -137v-371h170v-49h-170v-680h158v-49h-516zM41 0v49 h158v680h-156v49h156v74q0 221 43 313q80 170 254 170q72 0 129 -32q72 -41 71 -105q0 -78 -75 -78q-82 0 -82 74q0 47 47 70q0 23 -86 22q-100 0 -101 -137v-371h170v-49h-170v-680h158v-49h-516z" />
<glyph unicode="&#xfb06;" horiz-adv-x="1464" d="M791 727v49h143v217l201 92v-309h205v-49h-205v-518q0 -176 127 -176q111 0 133 133q4 29 29 29q20 0 20 -25q0 -16 -2 -20q-35 -176 -252 -177q-119 0 -187.5 61.5t-68.5 178.5v514h-143zM88 8v207q0 25 23 25q18 0 24 -25q55 -195 266 -195q80 0 138 33q74 39 73 113 q0 86 -125 129q-16 2 -196 43q-188 41 -189 207q0 59 22.5 106t61.5 80t91.5 50.5t113.5 17.5q96 0 160 -51l41 38l6 5q8 8 16 8q14 0 15 -23v-207q0 -20 -17 -20q-20 0 -22 18q-14 82 -69.5 132.5t-141.5 50.5q-63 0 -115 -31q-61 -35 -61 -92q0 -61 123 -99q45 -10 89 -19 t89 -20q199 -57 198 -245q0 -129 -81.5 -200t-212.5 -71q-156 0 -238 76l-39 -51q-8 -14 -20 -14q-23 -1 -23 24z" />
<glyph unicode="&#xfb1d;" horiz-adv-x="563" d="M35 989q0 25 4 49.5t8 51.5q18 78 47 77q16 16 35 -16q14 -20 102 -70q186 -72 187 -286q0 -78 -25 -197q-12 -59 -24.5 -105.5t-28.5 -76.5q-14 -33 -31 -33q-14 0 -28 14q0 12 18 80q12 35 17.5 63.5t5.5 53.5q0 86 -46 129q-16 16 -124 74q-117 65 -117 192zM256 -256 q0 35 24.5 59.5t61.5 24.5t61.5 -23.5t24.5 -60.5t-24.5 -61.5t-61.5 -24.5t-61.5 24.5t-24.5 61.5z" />
<glyph unicode="&#xfb1e;" horiz-adv-x="1742" d="M57 1069q0 100 17 123q0 8 22 20q8 0 16.5 -9t19.5 -19t24.5 -19.5t31.5 -9.5l936 -4q125 2 193 -14q162 -43 246 -246q51 -121 51 -277q0 -291 -197 -462q-143 -129 -254 -129l-10 2q-18 12 -18 20l-2 8q0 25 26 31q381 119 381 457q0 332 -352 321h-942q-55 -2 -66 4 q-123 13 -123 203z" />
<glyph unicode="&#xfb1f;" horiz-adv-x="1079" d="M35 989q0 25 4 49.5t8 51.5q18 78 47 77q16 16 35 -16q14 -20 102 -70q186 -72 187 -286q0 -78 -25 -197q-12 -59 -24.5 -105.5t-28.5 -76.5q-14 -33 -31 -33q-14 0 -28 14q0 12 18 80q12 35 17.5 63.5t5.5 53.5q0 86 -46 129q-16 16 -124 74q-117 65 -117 192zM561 989 q0 25 4 49.5t8 51.5q18 78 47 77q16 16 35 -16q14 -20 102 -70q186 -72 187 -286q0 -78 -25 -197q-12 -59 -24.5 -105.5t-28.5 -76.5q-14 -33 -31 -33q-14 0 -28 14q0 12 18 80q12 35 17.5 63.5t5.5 53.5q0 86 -46 129q-16 16 -124 74q-117 65 -117 192z" />
<glyph unicode="&#xfb20;" horiz-adv-x="1036" d="M45 41q2 27 3 53.5t5 55.5q4 41 10.5 65.5t16.5 36.5q4 14 31 20l90 2l108 -2q-12 59 -27.5 153.5t-31.5 225.5q-6 23 -9 37t-5 19q-12 35 -52 65l-84 70q-53 43 -53 76q0 45 35 137q16 41 22 51q20 37 58 37q72 0 125 -96q47 -80 47 -160l-4 -49q-12 -127 -13 -166 q0 -147 37 -400q197 0 336 68q182 86 182 260q0 125 -124 195q-102 55 -238 55q-68 0 -68 24q0 45 115 226q20 37 49 37q66 0 162 -97q39 -45 65.5 -83.5t43.5 -73.5q47 -113 47 -248q0 -180 -80 -328q-88 -156 -238 -237q-92 -49 -133 -50l-94 -16q-47 -6 -88 -10t-82 -4 q-168 0 -164 51z" />
<glyph unicode="&#xfb21;" horiz-adv-x="1718" d="M37 41q0 84 51 182q27 55 90 51l924 -4q145 -10 284 33q113 27 113 68q0 33 -125 114l-90 56q-14 2 -24 28q4 16 12 39t20 51l86 213q-41 -6 -78.5 -10t-70.5 -6q-6 0 -75 -1t-166 -1h-210h-211h-165h-72q-115 0 -148 18q-104 37 -104 185q0 121 28 137l7 8q14 -4 24 -12 t20.5 -17.5t21.5 -16.5t30 -7h1014h245q63 0 64 -16q0 -12 -4 -21l-119 -315q195 -152 195 -312q0 -96 -99 -237q-70 -102 -182 -168q-78 -43 -155.5 -68.5t-161.5 -31.5q-4 0 -71 -1.5t-163 -1.5h-207h-207h-162h-71l-23 -2q-65 0 -65 66z" />
<glyph unicode="&#xfb22;" horiz-adv-x="1648" d="M33 1104q0 80 24 108l11 5q6 -6 16 -13.5t22 -19.5q20 -37 199 -35l1170 8q47 0 57 -14.5t10 -65.5q0 -176 -74 -211l-14 -125l-43 -223q-10 -59 -19.5 -116.5t-19.5 -116.5q-14 -88 -21.5 -149.5t-7.5 -94.5q-8 -45 -49 -45q-16 0 -41 16q-70 49 -69 111q0 25 67 225 l172 514l-1216 -8q-86 -2 -137 86q-37 68 -37 164z" />
<glyph unicode="&#xfb23;" horiz-adv-x="1925" d="M45 469q0 37 8 45l6 6l9 2q18 0 53 -98q51 -109 221 -141q72 -14 199 -15q20 0 38.5 -23.5t18.5 -43.5l-6 -103q-2 -25 -4 -41t-8 -24q-27 -41 -93 -41l-28 4q-39 2 -127 41q-8 4 -15.5 8t-11.5 8q-168 106 -227 273q-33 84 -33 143zM68 1087v43q0 16 2 27q2 25 7 39 t13 23l10 6l13 -2l22 -29q18 -45 74 -45l1067 6q231 2 348 -68q203 -127 203 -436q0 -84 -19.5 -163.5t-54.5 -153.5q-35 -72 -117 -176q-18 -35 -47 -35q-20 0 -30 22q0 18 14 37l29 27q2 4 6 9t14 20q59 84 76 122q45 92 45 187q0 78 -26.5 138t-74 101t-113 60.5 t-143.5 17.5l-901 -2l-258 -6q-33 0 -54 3t-34.5 11.5t-24 24.5t-22.5 45q-12 35 -19 70.5t-5 76.5z" />
<glyph unicode="&#xfb24;" horiz-adv-x="1718" d="M33 90q2 18 3 34.5t5 31.5q8 68 31 116l65 15h44h76h75h45q180 0 307 1t213 4t138 6t83 7t47.5 7t30.5 7q72 16 128 39t97 50q133 86 133 247q0 57 -20.5 101.5t-59 73t-92 40t-116.5 2.5l-1018 -10q-94 -2 -127 53q-27 39 -27 146q0 125 21 145l12 11l23 -9l10 -14 q0 -25 53 -29l45 -4l959 4q395 6 395 -493q0 -205 -95.5 -365t-312.5 -248q-43 -23 -126 -36t-187.5 -21t-220 -11t-225 -3t-205 1t-156.5 1q-23 0 -31 10q-20 20 -20 90z" />
<glyph unicode="&#xfb25;" horiz-adv-x="692" d="M14 1686q0 39 52 45q6 4 77 4q41 0 41 -41v-533q51 -12 85 -23.5t50 -17.5q66 -33 125 -106q117 -147 117 -332q0 -408 -258 -604q-123 -92 -197 -92q-61 0 -57 96q4 35 5 60.5t3 43.5q12 74 35 90q33 27 74 27q338 86 338 324q0 236 -309 235l-27 4q-33 0 -33 62l-2 678 q0 39 -78 39q-41 0 -41 41z" />
<glyph unicode="&#xfb26;" horiz-adv-x="1925" d="M80 481q0 213 129 391q-72 0 -86 105q-2 16 -4 40.5t-2 53.5q0 150 28 166l7 2q23 0 22 -22l19 -35q12 -27 81 -27q14 2 23 2h10l991 2q66 2 107 1t57 -5q74 -16 144 -72q115 -86 166 -264q37 -133 36 -258q0 -301 -186 -469q-16 -12 -44 -30.5t-69 -41.5 q-86 -29 -153 -30h-842q-195 0 -319 149q-115 141 -115 342zM152 565q0 -147 122 -223q51 -33 117 -47t144 -14h858q141 6 237 69q123 82 123 248q0 31 -3 60.5t-13 58.5q-33 113 -127 137q-16 6 -41 8t-56 2h-1237q-124 -154 -124 -299z" />
<glyph unicode="&#xfb27;" horiz-adv-x="1718" d="M57 1094q0 113 25 112q16 -8 22 -14q0 -20 24 -32.5t44 -12.5l944 -2q186 8 275 -51q199 -137 198 -490q0 -287 -143 -485l-33 -45l-57 -62q-4 -6 -7 -8t-8 -6q-25 -14 -34 -14q-2 -2 -9 -2q-39 0 -38 32q0 33 40 68l68 51q14 14 28.5 30.5t26.5 37.5q111 166 111 348 q0 172 -74 242.5t-246 62.5l-999 -2q-104 -4 -137 82q-10 25 -15.5 66t-5.5 94z" />
<glyph unicode="&#xfb28;" horiz-adv-x="1855" d="M25 129q0 68 41 94q27 20 100 27q-68 154 -68 287q0 156 88 325q-115 35 -114 199q0 16 4 37.5t8 50.5q14 70 33 70l8 4l22 -29q27 -51 172 -45h916q82 4 147.5 -2t116.5 -27q115 -49 187 -188q37 -68 53 -139.5t16 -149.5q0 -287 -209 -471q-55 -49 -88 -49 q-29 6 -28 27q0 33 59 63q84 41 141 154q53 98 53 208q0 291 -387 283l-1048 -6q-63 -84 -64 -184q0 -96 62 -213q86 -166 94 -191q10 -29 10 -63q0 -43 -13 -81t-37 -66.5t-57.5 -46t-74.5 -17.5q-59 0 -101 40t-42 99z" />
<glyph unicode="&#xfb29;" horiz-adv-x="1183" d="M29 584v172h448v448h170v-448h449v-172h-1067z" />
<glyph unicode="&#xfb2a;" horiz-adv-x="966" d="M25 893q0 16 67 84q41 49 60 113q8 20 30 124l4 23l7 8l10 4q8 0 20 -30l13 -29q20 -41 163 -35l250 4q96 2 123 58l8 12l2 8l13 8q31 0 30 -96q0 -141 -78.5 -215t-220.5 -74h-147l-184 4v-581h305q205 18 262 118l31 76q14 35 14 92l8 60l2 10q0 8 23 12q27 0 26 -67 q0 -158 -12 -234q-39 -270 -229 -336l-31 -10q-35 -10 -105.5 -12t-179.5 0l-114 4q-23 0 -36.5 -1t-22.5 -5t-19.5 -12.5t-26.5 -24.5l-24 -19q-39 0 -39 54q0 53 11 106t34 109q18 47 73 69v592l-65 -2q-55 -4 -55 31zM790 1405q0 35 26 60.5t60 25.5q37 0 61.5 -24.5 t24.5 -61.5t-24.5 -61.5t-61.5 -24.5t-61.5 24.5t-24.5 61.5z" />
<glyph unicode="&#xfb2b;" horiz-adv-x="966" d="M25 893q0 16 67 84q41 49 60 113q8 20 30 124l4 23l7 8l10 4q8 0 20 -30l13 -29q20 -41 163 -35l250 4q96 2 123 58l8 12l2 8l13 8q31 0 30 -96q0 -141 -78.5 -215t-220.5 -74h-147l-184 4v-581h305q205 18 262 118l31 76q14 35 14 92l8 60l2 10q0 8 23 12q27 0 26 -67 q0 -158 -12 -234q-39 -270 -229 -336l-31 -10q-35 -10 -105.5 -12t-179.5 0l-114 4q-23 0 -36.5 -1t-22.5 -5t-19.5 -12.5t-26.5 -24.5l-24 -19q-39 0 -39 54q0 53 11 106t34 109q18 47 73 69v592l-65 -2q-55 -4 -55 31zM-16 1393q0 35 25.5 60.5t60.5 25.5q37 0 61.5 -24.5 t24.5 -61.5t-24.5 -61.5t-61.5 -24.5t-61.5 24.5t-24.5 61.5z" />
<glyph unicode="&#xfb2c;" horiz-adv-x="966" d="M25 893q0 16 67 84q41 49 60 113q8 20 30 124l4 23l7 8l10 4q8 0 20 -30l13 -29q20 -41 163 -35l250 4q96 2 123 58l8 12l2 8l13 8q31 0 30 -96q0 -141 -78.5 -215t-220.5 -74h-147l-184 4v-581h305q205 18 262 118l31 76q14 35 14 92l8 60l2 10q0 8 23 12q27 0 26 -67 q0 -158 -12 -234q-39 -270 -229 -336l-31 -10q-35 -10 -105.5 -12t-179.5 0l-114 4q-23 0 -36.5 -1t-22.5 -5t-19.5 -12.5t-26.5 -24.5l-24 -19q-39 0 -39 54q0 53 11 106t34 109q18 47 73 69v592l-65 -2q-55 -4 -55 31zM790 1405q0 35 26 60.5t60 25.5q37 0 61.5 -24.5 t24.5 -61.5t-24.5 -61.5t-61.5 -24.5t-61.5 24.5t-24.5 61.5zM401 586q0 35 24.5 59.5t59.5 24.5t59.5 -24.5t24.5 -59.5t-24.5 -59.5t-59.5 -24.5t-59.5 24.5t-24.5 59.5z" />
<glyph unicode="&#xfb2d;" horiz-adv-x="966" d="M25 893q0 16 67 84q41 49 60 113q8 20 30 124l4 23l7 8l10 4q8 0 20 -30l13 -29q20 -41 163 -35l250 4q96 2 123 58l8 12l2 8l13 8q31 0 30 -96q0 -141 -78.5 -215t-220.5 -74h-147l-184 4v-581h305q205 18 262 118l31 76q14 35 14 92l8 60l2 10q0 8 23 12q27 0 26 -67 q0 -158 -12 -234q-39 -270 -229 -336l-31 -10q-35 -10 -105.5 -12t-179.5 0l-114 4q-23 0 -36.5 -1t-22.5 -5t-19.5 -12.5t-26.5 -24.5l-24 -19q-39 0 -39 54q0 53 11 106t34 109q18 47 73 69v592l-65 -2q-55 -4 -55 31zM-16 1393q0 35 25.5 60.5t60.5 25.5q37 0 61.5 -24.5 t24.5 -61.5t-24.5 -61.5t-61.5 -24.5t-61.5 24.5t-24.5 61.5zM401 586q0 35 24.5 59.5t59.5 24.5t59.5 -24.5t24.5 -59.5t-24.5 -59.5t-59.5 -24.5t-59.5 24.5t-24.5 59.5z" />
<glyph unicode="&#xfb2e;" horiz-adv-x="1036" d="M70 1057q0 145 36 145q12 0 21 -10l10 -12q4 -6 7 -8.5t6 -4.5q18 -14 32 -18q0 109 66 229q72 139 176 140q39 0 64.5 -31t25.5 -68q0 -43 -117 -88q-154 -59 -170 -186l185 6q113 6 209 -16q188 -49 274 -301q37 -111 37 -220q0 -203 -111 -374q-160 -252 -284 -252 q-10 2 -15.5 6t-11.5 10l-4 8q-2 4 -2 11q0 14 28 32q166 70 254 236q66 121 66 239q0 76 -25.5 138.5t-71.5 106.5t-110.5 66.5t-140.5 18.5l-230 -12q-59 -115 -59 -201q0 -27 3 -56.5t13 -60.5q6 -10 33 -94q43 -115 43 -233q0 -74 -33 -131q-51 -82 -90 -82 q-43 0 -39 51l5 121q2 23 -3.5 60.5t-19.5 96.5q-10 47 -15.5 86t-5.5 70q0 47 11.5 101.5t34.5 115.5q8 20 23 62l40 106q-72 0 -113 64q-32 57 -32 133zM258 -190h388v-109h-388v109z" />
<glyph unicode="&#xfb2f;" horiz-adv-x="1036" d="M70 1057q0 145 36 145q12 0 21 -10l10 -12q4 -6 7 -8.5t6 -4.5q18 -14 32 -18q0 109 66 229q72 139 176 140q39 0 64.5 -31t25.5 -68q0 -43 -117 -88q-154 -59 -170 -186l185 6q113 6 209 -16q188 -49 274 -301q37 -111 37 -220q0 -203 -111 -374q-160 -252 -284 -252 q-10 2 -15.5 6t-11.5 10l-4 8q-2 4 -2 11q0 14 28 32q166 70 254 236q66 121 66 239q0 76 -25.5 138.5t-71.5 106.5t-110.5 66.5t-140.5 18.5l-230 -12q-59 -115 -59 -201q0 -27 3 -56.5t13 -60.5q6 -10 33 -94q43 -115 43 -233q0 -74 -33 -131q-51 -82 -90 -82 q-43 0 -39 51l5 121q2 23 -3.5 60.5t-19.5 96.5q-10 47 -15.5 86t-5.5 70q0 47 11.5 101.5t34.5 115.5q8 20 23 62l40 106q-72 0 -113 64q-32 57 -32 133zM258 -190h388v-109h-158l-6 -92q0 -23 26 -62q29 -41 29 -61q0 -37 -24.5 -61.5t-61.5 -24.5q-35 0 -59.5 24.5 t-24.5 61.5q0 25 27 63q29 41 28 60l-6 92h-158v109z" />
<glyph unicode="&#xfb30;" horiz-adv-x="1036" d="M70 1057q0 145 36 145q12 0 21 -10l10 -12q4 -6 7 -8.5t6 -4.5q18 -14 32 -18q0 109 66 229q72 139 176 140q39 0 64.5 -31t25.5 -68q0 -43 -117 -88q-154 -59 -170 -186l185 6q113 6 209 -16q188 -49 274 -301q37 -111 37 -220q0 -203 -111 -374q-160 -252 -284 -252 q-10 2 -15.5 6t-11.5 10l-4 8q-2 4 -2 11q0 14 28 32q166 70 254 236q66 121 66 239q0 76 -25.5 138.5t-71.5 106.5t-110.5 66.5t-140.5 18.5l-230 -12q-59 -115 -59 -201q0 -27 3 -56.5t13 -60.5q6 -10 33 -94q43 -115 43 -233q0 -74 -33 -131q-51 -82 -90 -82 q-43 0 -39 51l5 121q2 23 -3.5 60.5t-19.5 96.5q-10 47 -15.5 86t-5.5 70q0 47 11.5 101.5t34.5 115.5q8 20 23 62l40 106q-72 0 -113 64q-32 57 -32 133zM453 344q0 35 24.5 59.5t59.5 24.5t59.5 -24.5t24.5 -59.5t-24.5 -59.5t-59.5 -24.5t-59.5 24.5t-24.5 59.5z" />
<glyph unicode="&#xfb31;" horiz-adv-x="899" d="M37 41q0 84 51 182q27 55 90 51l105 -4q145 -10 284 33q113 27 113 68q0 33 -125 114l-90 56q-14 2 -25 28q4 16 12.5 39t20.5 51l86 213q-139 -18 -229 -18q-115 0 -148 18q-104 37 -104 185q0 121 28 137l7 8q14 -4 24 -12t20.5 -17.5t21.5 -16.5t30 -7h440 q63 0 64 -16q0 -12 -4 -21l-119 -315q195 -152 194 -312q0 -96 -98 -237q-70 -102 -182 -168q-182 -102 -379 -103l-23 -2q-65 0 -65 66zM149 580q0 35 24.5 59.5t59.5 24.5t59.5 -24.5t24.5 -59.5t-24.5 -59.5t-59.5 -24.5t-59.5 24.5t-24.5 59.5z" />
<glyph unicode="&#xfb32;" horiz-adv-x="692" d="M162 576q0 35 24.5 59.5t59.5 24.5t59.5 -24.5t24.5 -59.5t-24.5 -59.5t-59.5 -24.5t-59.5 24.5t-24.5 59.5zM-12 47q0 4 7 11.5t17.5 15.5t18.5 15t12 11q10 12 15 24.5t12 22.5q25 53 42 90t31 54q47 57 133 57q88 0 259 -72q0 236 -58 363q-33 123 -276 215 q-57 14 -58 61q0 41 37 138q41 102 74 102q74 0 180 -131q131 -154 141 -453l9 -376q4 -70 1 -112t-7 -58l-7 -15q-14 -14 -24 -14q-29 0 -27 45l12 178q-47 23 -63 23q-76 0 -121 -117q-78 -139 -203 -135l-53 2l-20 6l-21 4q-10 2 -20 6q-43 14 -43 39z" />
<glyph unicode="&#xfb33;" horiz-adv-x="829" d="M33 1104q0 80 24 108l11 5q6 -6 16 -13.5t22 -19.5q20 -37 199 -35l350 8q47 0 57.5 -14.5t10.5 -65.5q0 -176 -74 -211l-14 -125l-43 -223q-10 -59 -19.5 -116.5t-19.5 -116.5q-14 -88 -21.5 -149.5t-7.5 -94.5q-8 -45 -49 -45q-16 0 -41 16q-70 49 -69 111q0 25 67 225 l172 514l-397 -8q-86 -2 -137 86q-37 68 -37 164zM199 615q0 35 24.5 59.5t59.5 24.5t59.5 -24.5t24.5 -59.5t-24.5 -59.5t-59.5 -24.5t-59.5 24.5t-24.5 59.5z" />
<glyph unicode="&#xfb34;" horiz-adv-x="1105" d="M45 469q0 37 8 45l6 6l9 2q18 0 53 -98q51 -109 221 -141q72 -14 199 -15q20 0 38.5 -23.5t18.5 -43.5l-6 -103q-2 -25 -4 -41t-8 -24q-27 -41 -93 -41l-28 4q-39 2 -127 41q-8 4 -15.5 8t-11.5 8q-168 106 -227 273q-33 84 -33 143zM68 1087v43q0 16 2 27q2 25 7 39 t13 23l10 6l13 -2l22 -29q18 -45 74 -45l248 6q231 2 348 -68q203 -127 203 -436q0 -84 -19.5 -163.5t-54.5 -153.5q-35 -72 -117 -176q-18 -35 -47 -35q-20 0 -31 22q0 18 15 37l28 27q2 4 6.5 9t14.5 20q59 84 76 122q45 92 45 187q0 78 -27 138t-74 101t-112.5 60.5 t-143.5 17.5l-82 -2l-258 -6q-33 0 -54 3t-34.5 11.5t-24 24.5t-22.5 45q-12 35 -19 70.5t-5 76.5zM434 561q0 35 24.5 59.5t59.5 24.5t59.5 -24.5t24.5 -59.5t-24.5 -59.5t-59.5 -24.5t-59.5 24.5t-24.5 59.5z" />
<glyph unicode="&#xfb35;" horiz-adv-x="552" d="M41 950q0 23 3 53.5t13 65.5q23 90 60 90q-4 0 63 -43l129 -82q84 -55 107 -219q2 -23 3 -85t1 -171q0 -88 -3 -178t-11 -184l-11 -125q-2 -76 -45 -76q-23 0 -22 27l2 57l12 143q2 29 4 47.5t2 28.5v63q0 115 -10 193t-27 117q-18 43 -88 88l-117 67q-65 47 -65 123z M66 432q0 35 24.5 59.5t59.5 24.5t59.5 -24.5t24.5 -59.5t-24.5 -59.5t-59.5 -24.5t-59.5 24.5t-24.5 59.5z" />
<glyph unicode="&#xfb36;" horiz-adv-x="485" d="M72 936q0 154 137 197l113 32q33 2 51 29l20 18q23 0 39 -73q6 -25 8 -48.5t2 -46.5q0 -203 -233 -202q-53 0 -53 -49q0 -16 34 -91q100 -203 101 -391q0 -35 -6 -73.5t-17 -85.5q-27 -96 -61 -148q-18 -14 -35 -14q-33 0 -33 67l13 129l-2 117q-2 129 -16.5 252 t-43.5 244zM270 711q0 35 24.5 59.5t59.5 24.5t59.5 -24.5t24.5 -59.5t-24.5 -59.5t-59.5 -24.5t-59.5 24.5t-24.5 59.5z" />
<glyph unicode="&#xfb38;" horiz-adv-x="1105" d="M53 956q0 66 29 131q33 84 86 84q76 0 125 -100q37 -78 37 -166q0 -25 -3 -60.5t-12 -82.5q-8 -47 -12 -82t-4 -57l-4 -338l264 -11q74 -2 139.5 17.5t118.5 62.5q113 86 113 234q0 272 -383 272q-61 0 -62 51q0 74 97 213q25 33 51 33q84 0 186 -100q166 -158 166 -467 q0 -264 -164 -445q-10 -10 -28.5 -25.5t-47.5 -39.5q-59 -45 -75 -45q-135 -45 -410 -45q-70 0 -94 -25q-35 -35 -51 -35q-35 0 -35 72q0 104 33 178q39 100 133 101l2 96q8 352 -131 471q-64 63 -64 108zM506 574q0 35 24.5 59.5t59.5 24.5t59.5 -24.5t24.5 -59.5 t-24.5 -59.5t-59.5 -24.5t-59.5 24.5t-24.5 59.5z" />
<glyph unicode="&#xfb39;" horiz-adv-x="552" d="M35 989q0 25 4 49.5t8 51.5q18 78 47 77q16 16 35 -16q14 -20 102 -70q186 -72 187 -286q0 -78 -25 -197q-12 -59 -24.5 -105.5t-28.5 -76.5q-14 -33 -31 -33q-14 0 -28 14q0 12 18 80q12 35 17.5 63.5t5.5 53.5q0 86 -46 129q-16 16 -124 74q-117 65 -117 192zM37 596 q0 35 24.5 59.5t59.5 24.5t59.5 -24.5t24.5 -59.5t-24.5 -59.5t-59.5 -24.5t-59.5 24.5t-24.5 59.5z" />
<glyph unicode="&#xfb3a;" horiz-adv-x="829" d="M49 1065q0 121 27 135l12 6l23 -14l6 -10q12 -23 35 -25l38 -8l359 6q78 0 128 -51t50 -129q0 -80 -43 -279q-39 -188 -39 -313q0 -70 12 -201q8 -80 11.5 -129t5.5 -71q6 -96 6 -140q0 -39 -8 -85t-25 -99q-39 -137 -102 -137q-31 0 -31 39l6 43v57l-2 174l-6 129 q-2 70 1 146.5t13 162.5q6 51 19.5 119t34.5 154l75 315h-288l-177 -8q-141 -4 -141 213zM231 594q0 35 24.5 59.5t59.5 24.5t59.5 -24.5t24.5 -59.5t-24.5 -59.5t-59.5 -24.5t-59.5 24.5t-24.5 59.5z" />
<glyph unicode="&#xfb3b;" horiz-adv-x="899" d="M33 90q2 18 3 34.5t5 31.5q8 68 31 116l65 15q53 0 113.5 8t126.5 24q72 16 128 39t97 50q133 86 133 247q0 57 -20.5 101.5t-59.5 73t-92 40t-117 2.5l-198 -10q-94 -2 -127 53q-27 39 -27 146q0 125 21 145l12 11l23 -9l10 -14q0 -25 53 -29l45 -4l139 4 q395 6 396 -493q0 -410 -398 -606l-10 -7q-137 -70 -301 -69q-23 0 -31 10q-20 20 -20 90zM278 604q0 35 24.5 59.5t59.5 24.5t59.5 -24.5t24.5 -59.5t-24.5 -59.5t-59.5 -24.5t-59.5 24.5t-24.5 59.5z" />
<glyph unicode="&#xfb3c;" horiz-adv-x="692" d="M14 1686q0 39 52 45q6 4 77 4q41 0 41 -41v-533q51 -12 85 -23.5t50 -17.5q66 -33 125 -106q117 -147 117 -332q0 -408 -258 -604q-123 -92 -197 -92q-61 0 -57 96q4 35 5 60.5t3 43.5q12 74 35 90q33 27 74 27q338 86 338 324q0 236 -309 235l-27 4q-33 0 -33 62l-2 678 q0 39 -78 39q-41 0 -41 41zM152 600q0 35 24.5 59.5t59.5 24.5t59.5 -24.5t24.5 -59.5t-24.5 -59.5t-59.5 -24.5t-59.5 24.5t-24.5 59.5z" />
<glyph unicode="&#xfb3e;" horiz-adv-x="1105" d="M27 932q0 37 39 125q39 92 73 92q88 0 144 -125q47 -100 47 -197l45 58l170 205q49 61 90 61q123 0 235 -186q88 -150 88 -365q0 -291 -149 -465q-125 -143 -252 -143q-90 0 -90 57q0 63 74 57l69 -2q125 -4 199 119q66 106 65 236q0 145 -88 270q-92 137 -237 137 q-117 0 -209 -108q0 -371 -45 -549q-2 -59 -66 -137q-59 -74 -116 -74q-59 0 -60 55q0 84 99 125q41 23 65.5 59.5t34.5 84.5q12 63 17 123.5t5 119.5q0 193 -202 301q-45 29 -45 66zM506 486q0 35 24.5 59.5t59.5 24.5t59.5 -24.5t24.5 -59.5t-24.5 -59.5t-59.5 -24.5 t-59.5 24.5t-24.5 59.5z" />
<glyph unicode="&#xfb40;" horiz-adv-x="622" d="M59 104q0 98 9 123q18 63 84 72l43 16q256 90 256 295q0 117 -99 176q-63 43 -205 68q-53 10 -70.5 27.5t-17.5 70.5q0 150 39 187q0 18 29 18q139 0 268 -188q106 -156 107 -391q0 -352 -240 -519l-39 -26q-8 -4 -21.5 -9.5t-29.5 -11.5q-61 -23 -66 -22q-47 -1 -47 114 zM127 590q0 35 24.5 59.5t59.5 24.5t59.5 -24.5t24.5 -59.5t-24.5 -59.5t-59.5 -24.5t-59.5 24.5t-24.5 59.5z" />
<glyph unicode="&#xfb41;" horiz-adv-x="1173" d="M88 543q0 156 84 331l-14 9q-23 10 -25 16l-6 10q-23 49 -23 144q0 121 33 153l10 6q4 0 11.5 -7t17.5 -16t25.5 -17.5t36.5 -10.5q41 -2 66.5 -3t37.5 -1l213 4q63 4 113.5 -2t85.5 -16q88 -31 164 -117q160 -182 159 -471q0 -123 -51 -250q-53 -141 -147 -205l-31 -28 q-121 -80 -254 -80q-207 0 -381 176l4 -107q4 -82 -27 -81q-41 0 -40 61v51q0 158 -50 330q-12 70 -12 121zM156 602q0 -111 75 -194q117 -131 349 -132q174 0 297 76q143 86 143 254q0 106 -76 176q-55 55 -90 56q-90 29 -211 28h-45l-369 -6q-73 -117 -73 -258zM506 578 q0 35 24.5 59.5t59.5 24.5t59.5 -24.5t24.5 -59.5t-24.5 -59.5t-59.5 -24.5t-59.5 24.5t-24.5 59.5z" />
<glyph unicode="&#xfb43;" horiz-adv-x="966" d="M100 592q0 301 273 524q4 10 27.5 24.5t35.5 14.5q61 0 221 -63q164 -66 191 -105q14 -25 14 -47l-18 -145q-4 -33 -11.5 -81l-17.5 -112q-8 -59 -12 -107.5t0 -86.5l4 -111l37 -449q6 -61 -23 -178l-2 -10q0 -57 -43 -113q-10 -23 -31 -22q-37 0 -36 33 q-16 96 -25.5 174t-9.5 135q0 119 9 236.5t32 236.5l61 373q-293 154 -428 153q-100 0 -151 -82q-45 -74 -45 -172q0 -88 61 -137q41 -33 129 -57q47 -14 81 -25.5t50 -25.5q63 -41 64 -121q0 -41 -35 -67.5t-74 -26.5q-102 0 -203 108q-125 135 -125 332zM459 584 q0 35 24.5 59.5t59.5 24.5t59.5 -24.5t24.5 -59.5t-24.5 -59.5t-59.5 -24.5t-59.5 24.5t-24.5 59.5z" />
<glyph unicode="&#xfb44;" horiz-adv-x="966" d="M59 57q0 215 64 217l153 13q78 6 157 23.5t157 45.5q90 33 147.5 110t57.5 173q0 82 -37 135q-51 94 -273 88l-221 -8q-45 -68 -45 -104q0 -61 72 -88q53 -25 53 -95q0 -47 -35 -84t-82 -37q-61 0 -100 47.5t-39 108.5q0 98 117 252q-61 0 -92 90q-10 31 -15.5 60.5 t-5.5 62.5q0 135 33 168l14 10q4 0 27 -41q16 -33 47 -47q23 -12 96 -8l119 2q55 4 98 -1t74 -15q248 -80 248 -455q0 -236 -131 -410q-127 -180 -346 -237q-14 -14 -129 -33q-72 -12 -115 -12q-68 -1 -68 69zM465 584q0 35 24.5 59.5t59.5 24.5t59.5 -24.5t24.5 -59.5 t-24.5 -59.5t-59.5 -24.5t-59.5 24.5t-24.5 59.5z" />
<glyph unicode="&#xfb46;" horiz-adv-x="692" d="M68 170q0 61 13 85t71 32q348 86 348 315q0 203 -260 246q-125 0 -138 37q-4 10 -6 27.5t-2 41.5q0 92 23 170q0 18 35 31q0 113 65 231q76 131 184 132q31 0 58.5 -25t27.5 -53q0 -55 -79 -90q-115 -51 -146 -76q-55 -43 -65 -125q254 -92 325 -322q31 -102 31 -204 q0 -289 -176 -484q-137 -152 -244 -151q-65 0 -65 182zM143 580q0 35 24.5 59.5t59.5 24.5t59.5 -24.5t24.5 -59.5t-24.5 -59.5t-59.5 -24.5t-59.5 24.5t-24.5 59.5z" />
<glyph unicode="&#xfb47;" horiz-adv-x="1036" d="M57 252q-6 162 45 328q35 117 60 127l10 6q29 0 29 -29l-15 -41q-16 -61 -25 -111.5t-9 -95.5q0 -35 18 -121l27 -135q43 -207 43 -346q0 -78 -31 -176q-39 -131 -98 -131q-43 0 -43 43q18 109 14 176l-4 94l-10 168zM84 1069q0 100 16 123q0 8 23 20q8 0 16 -9t19.5 -19 t25 -19.5t31.5 -9.5l219 4q125 2 193 -14q162 -43 245 -246q51 -121 52 -276q0 -291 -197 -463q-143 -129 -254 -129l-10 2q-18 12 -19 20l-2 8q0 25 27 31q381 119 381 457q0 332 -352 321l-226 -8q-55 -2 -65 4q-123 13 -123 203zM414 516q0 35 24.5 59.5t59.5 24.5 t59.5 -24.5t24.5 -59.5t-24.5 -59.5t-59.5 -24.5t-59.5 24.5t-24.5 59.5z" />
<glyph unicode="&#xfb48;" horiz-adv-x="899" d="M57 1094q0 113 25 112q16 -8 22 -14q0 -20 24 -32.5t44 -12.5l125 4q186 8 274 -51q199 -137 199 -490q0 -287 -143 -485l-33 -45l-57 -62q-4 -6 -7.5 -8t-7.5 -6q-25 -14 -35 -14q-2 -2 -8 -2q-39 0 -39 32q0 33 41 68l68 51q14 14 28.5 30.5t26.5 37.5q111 166 111 348 q0 172 -74 242.5t-246 62.5l-180 -8q-104 -4 -137 82q-10 25 -15.5 66t-5.5 94zM301 502q0 35 24.5 59.5t59.5 24.5t59.5 -24.5t24.5 -59.5t-24.5 -59.5t-59.5 -24.5t-59.5 24.5t-24.5 59.5z" />
<glyph unicode="&#xfb49;" horiz-adv-x="966" d="M25 893q0 16 67 84q41 49 60 113q8 20 30 124l4 23l7 8l10 4q8 0 20 -30l13 -29q20 -41 163 -35l250 4q96 2 123 58l8 12l2 8l13 8q31 0 30 -96q0 -141 -78.5 -215t-220.5 -74h-147l-184 4v-581h305q205 18 262 118l31 76q14 35 14 92l8 60l2 10q0 8 23 12q27 0 26 -67 q0 -158 -12 -234q-39 -270 -229 -336l-31 -10q-35 -10 -105.5 -12t-179.5 0l-114 4q-23 0 -36.5 -1t-22.5 -5t-19.5 -12.5t-26.5 -24.5l-24 -19q-39 0 -39 54q0 53 11 106t34 109q18 47 73 69v592l-65 -2q-55 -4 -55 31zM401 586q0 35 24.5 59.5t59.5 24.5t59.5 -24.5 t24.5 -59.5t-24.5 -59.5t-59.5 -24.5t-59.5 24.5t-24.5 59.5z" />
<glyph unicode="&#xfb4a;" horiz-adv-x="1036" d="M25 129q0 68 41 94q27 20 100 27q-68 154 -68 287q0 156 88 325q-115 35 -114 199q0 16 4 37.5t8 50.5q14 70 33 70l8 4l22 -29q27 -51 172 -45l97 6q160 6 264 -35q115 -49 186 -188q37 -68 53.5 -139.5t16.5 -149.5q0 -287 -209 -471q-55 -49 -88 -49q-29 6 -29 27 q0 33 60 63q84 41 141 154q53 98 53 208q0 293 -387 285l-229 -8q-63 -84 -64 -184q0 -96 62 -213q86 -166 94 -191q10 -29 10 -63q0 -43 -13 -81t-37 -66.5t-57.5 -46t-74.5 -17.5q-59 0 -101 40t-42 99zM446 570q0 35 24.5 59.5t59.5 24.5t59.5 -24.5t24.5 -59.5 t-24.5 -59.5t-59.5 -24.5t-59.5 24.5t-24.5 59.5z" />
<glyph unicode="&#xfb4b;" horiz-adv-x="552" d="M41 950q0 23 3 53.5t13 65.5q23 90 60 90q-4 0 63 -43l129 -82q84 -55 107 -219q2 -23 3 -85t1 -171q0 -88 -3 -178t-11 -184l-11 -125q-2 -76 -45 -76q-23 0 -22 27l2 57l12 143q2 29 4 47.5t2 28.5v63q0 115 -10 193t-27 117q-18 43 -88 88l-117 67q-65 47 -65 123z M180 1409q0 35 25.5 60.5t60.5 25.5q37 0 61.5 -24.5t24.5 -61.5t-24.5 -61.5t-61.5 -24.5t-61.5 24.5t-24.5 61.5z" />
<glyph unicode="&#xfb4c;" horiz-adv-x="899" d="M37 41q0 84 51 182q27 55 90 51l105 -4q145 -10 284 33q113 27 113 68q0 33 -125 114l-90 56q-14 2 -25 28q4 16 12.5 39t20.5 51l86 213q-139 -18 -229 -18q-115 0 -148 18q-104 37 -104 185q0 121 28 137l7 8q14 -4 24 -12t20.5 -17.5t21.5 -16.5t30 -7h440 q63 0 64 -16q0 -12 -4 -21l-119 -315q195 -152 194 -312q0 -96 -98 -237q-70 -102 -182 -168q-182 -102 -379 -103l-23 -2q-65 0 -65 66zM197 1384v111h430v-111h-430z" />
<glyph unicode="&#xfb4d;" horiz-adv-x="899" d="M33 90q2 18 3 34.5t5 31.5q8 68 31 116l65 15q53 0 113.5 8t126.5 24q72 16 128 39t97 50q133 86 133 247q0 57 -20.5 101.5t-59.5 73t-92 40t-117 2.5l-198 -10q-94 -2 -127 53q-27 39 -27 146q0 125 21 145l12 11l23 -9l10 -14q0 -25 53 -29l45 -4l139 4 q395 6 396 -493q0 -410 -398 -606l-10 -7q-137 -70 -301 -69q-23 0 -31 10q-20 20 -20 90zM195 1384v111h430v-111h-430z" />
<glyph unicode="&#xfb4e;" horiz-adv-x="966" d="M59 57q0 215 64 217l153 13q78 6 157 23.5t157 45.5q90 33 147.5 110t57.5 173q0 82 -37 135q-51 94 -273 88l-221 -8q-45 -68 -45 -104q0 -61 72 -88q53 -25 53 -95q0 -47 -35 -84t-82 -37q-61 0 -100 47.5t-39 108.5q0 98 117 252q-61 0 -92 90q-10 31 -15.5 60.5 t-5.5 62.5q0 135 33 168l14 10q4 0 27 -41q16 -33 47 -47q23 -12 96 -8l119 2q55 4 98 -1t74 -15q248 -80 248 -455q0 -236 -131 -410q-127 -180 -346 -237q-14 -14 -129 -33q-72 -12 -115 -12q-68 -1 -68 69zM225 1384v111h430v-111h-430z" />
<glyph unicode="&#xfb4f;" horiz-adv-x="1159" d="M-50 1663q-1 27 3 48.5t8 31.5q14 41 29.5 62.5t50.5 58.5q18 20 31 30q4 4 10 1t6 -9t-1 -25.5t9 -27.5l137 -86q53 -33 47 -85t-61 -138q-18 -27 -29.5 -41.5t-18.5 -29.5t-11 -36.5t-4 -60.5l4 -88q2 -41 5 -66.5t14 -45t29.5 -39t51.5 -48.5l442 -397l58 90 q23 35 19.5 65.5t-19.5 46.5l-66 68q-47 49 -54 87t15 83q14 29 23.5 46.5t21 29.5t26.5 22.5t40 28.5q20 14 37.5 13t13.5 -33q-4 -25 11.5 -48.5t37.5 -40.5l144 -124q33 -25 54 -47.5t23.5 -54.5t-19 -80t-77.5 -126q-41 27 -80 30t-72.5 -9t-59 -34.5t-38.5 -47.5 l238 -207q39 -35 67.5 -62.5t40 -65.5t3 -95t-40.5 -150q-6 -16 -16.5 -32.5t-22 -27.5t-21.5 -10t-14 23q-4 35 -21.5 73t-48.5 62l-669 553l-101 88q-41 35 -59.5 81t-30.5 100q-2 6 4 65.5t16.5 136t21.5 154.5t22 123q4 23 8 47.5t-23 36.5l-90 43q-31 14 -42 38.5 t-12 51.5z" />
</font>
</defs>
</svg>
